<?xml version="1.0" encoding="utf-8"?>
<!-- Generator: Adobe Illustrator 25.0.1, SVG Export Plug-In . SVG Version: 6.00 Build 0)  -->
<svg version="1.1"
	 id="svg927" inkscape:version="1.1.2 (b8e25be8, 2022-02-05)" sodipodi:docname="logo.svg" xmlns:inkscape="http://www.inkscape.org/namespaces/inkscape" xmlns:sodipodi="http://sodipodi.sourceforge.net/DTD/sodipodi-0.dtd" xmlns:svg="http://www.w3.org/2000/svg"
	 xmlns="http://www.w3.org/2000/svg" xmlns:xlink="http://www.w3.org/1999/xlink" x="0px" y="0px" viewBox="0 0 700 700"
	 style="enable-background:new 0 0 700 700;" xml:space="preserve">
<style type="text/css">
	.st0{fill:#B6DEC4;}
	.st1{fill:#4A555F;}
	.st2{fill:#E0E0E0;}
	.st3{fill:#FFD552;}
	.st4{fill:#E79D82;}
	.st5{font-family:'BalooBhai2-Bold';}
	.st6{font-size:24px;}
	.st7{fill:#737374;}
	.st8{fill:none;}
</style>
<sodipodi:namedview  bordercolor="#666666" borderopacity="1.0" id="namedview929" inkscape:current-layer="g2932" inkscape:cx="182.5" inkscape:cy="723" inkscape:document-units="pt" inkscape:pagecheckerboard="0" inkscape:pageopacity="0.0" inkscape:pageshadow="2" inkscape:window-height="1312" inkscape:window-maximized="0" inkscape:window-width="2560" inkscape:window-x="0" inkscape:window-y="25" inkscape:zoom="1" pagecolor="#ffffff" showgrid="false">
	</sodipodi:namedview>
<defs>
	
		<inkscape:path-effect  apply_no_weight="true" apply_with_weight="true" effect="bspline" helper_size="0" id="path-effect115563" is_visible="true" lpeversion="1" only_selected="false" steps="2" weight="33.333333">
		</inkscape:path-effect>
	
		<inkscape:path-effect  apply_no_weight="true" apply_with_weight="true" effect="bspline" helper_size="0" id="path-effect44124" is_visible="true" lpeversion="1" only_selected="false" steps="2" weight="33.333333">
		</inkscape:path-effect>
	<inkscape:path-effect  effect="spiro" id="path-effect7052" is_visible="true" lpeversion="1"></inkscape:path-effect>
</defs>
<g id="g191976" inkscape:export-filename="/Users/dong/Desktop/logo2.png" inkscape:export-xdpi="600" inkscape:export-ydpi="600">
	<g id="g191947">
	</g>
</g>
<g>
	<path id="path879" sodipodi:nodetypes="cscccscccssssscscscscssscc" class="st0" d="M221.2,322.8h19c12.6,0,17.2-18.5,22.2-44.6
		c1.8-9.4,4-20.9,6.3-23.3c2.4,2.4,4.7,14.1,6.6,23.6c5.1,25.9,9.7,44.2,21.9,44.2c13,0,17.7-40,21.9-52.6
		c1.7-5.1,4.5-13.6,6.6-13.9c2.2,0.3,5,8.8,6.6,13.9c4.2,12.6,8.9,52.6,21.9,52.6h160.3c1.3,0,2.4-0.8,2.4-1.7s-1.1-1.7-2.4-1.7
		H354.1c-9.2,0-13.9-39.8-17.2-50c-3.3-10-5.4-16.5-11.3-16.5s-8,6.6-11.3,16.5c-3.4,10.3-8,50-17.2,50c-9.1,0-14-24.8-17.2-41.3
		c-3.9-19.9-5.8-26.8-11.3-26.8c-5.7,0-7.5,8.1-11,26.5c-3.2,16.6-8,41.6-17.4,41.6h-19c-1.3,0-2.4,0.8-2.4,1.7
		S219.9,322.8,221.2,322.8L221.2,322.8z"/>
	<g>
		<path id="path142763" class="st1" d="M437.8,311h-33v-43.3h33V311z M405.5,310.3h31.6v-41.9h-31.6V310.3z"/>
		<path id="path142765" class="st1" d="M444.8,304.6h-7.7v-36.3h-25.3v-7h33V304.6z M437.8,303.9h6.3V262h-31.6v5.7h25.3
			L437.8,303.9L437.8,303.9z"/>
		<path id="path142767" class="st2" d="M438.6,303.1v-36.2h-25.3v-4.1h30.1v40.4L438.6,303.1L438.6,303.1z"/>
		<path id="path142769" class="st2" d="M409.4,274.4h11.3v12.3h-11.3V274.4z"/>
		<path id="path142771" class="st1" d="M423.9,274.1h9.4v0.7h-9.4V274.1z M423.9,278h9.4v0.7h-9.4V278z M423.9,282h9.4v0.7h-9.4V282
			z M423.9,285.9h9.4v0.7h-9.4V285.9z M409.4,289.9h23.8v0.7h-23.8V289.9z M409.4,300.2h23.8v0.7h-23.8V300.2z M409.4,303.8h23.8
			v0.7h-23.8V303.8z"/>
		<path id="path142773" class="st3" d="M409.4,293.7h23.8v3.2h-23.8V293.7z"/>
	</g>
	<g id="text59463-1" transform="rotate(-124.35151,-2.4836282,607.37533)">
		<path id="path150800" class="st4" d="M72.3,1117.6c-0.3-0.1-0.6-0.2-0.8-0.5c-0.2-0.2-0.4-0.5-0.4-0.7c-0.1-0.3,0-0.5,0.1-0.8
			s0.3-0.5,0.7-0.6c0.3-0.1,0.6-0.2,0.8-0.2c0.3,0,0.6,0,0.9,0s0.6,0,0.9,0s0.6,0,0.9,0c0.9-0.1,1.9-0.1,2.8-0.2s1.9-0.2,2.8-0.3
			c-0.7-0.4-1.5-0.7-2.2-1.1c-0.7-0.3-1.5-0.7-2.2-1.1c-0.6-0.3-1.1-0.5-1.7-0.8s-1.1-0.5-1.6-0.9c-0.2-0.1-0.3-0.3-0.4-0.5
			s-0.1-0.5-0.1-0.7s0.1-0.5,0.2-0.7s0.3-0.4,0.5-0.4c1.3-0.5,2.7-1.1,4-1.6s2.7-1.1,4-1.6c-0.8-0.2-1.6-0.3-2.4-0.4
			s-1.6-0.3-2.3-0.4c-0.2,0-0.5-0.1-0.9-0.1s-0.7-0.1-1.1-0.2s-0.7-0.1-1-0.2s-0.6-0.2-0.7-0.3c-0.3-0.2-0.5-0.5-0.5-0.8
			c-0.1-0.3,0-0.6,0.1-0.9s0.3-0.5,0.6-0.7c0.2-0.2,0.6-0.2,0.9-0.2c0.6,0.1,1.3,0.2,1.9,0.3c0.6,0.1,1.2,0.3,1.9,0.4
			c1.4,0.3,2.7,0.5,4.1,0.8c1.3,0.3,2.7,0.5,4.1,0.8c0.4,0.1,0.8,0.2,1.1,0.3c0.3,0.2,0.5,0.5,0.6,0.9c0,0.2,0.1,0.4,0,0.5
			c0,0.2-0.1,0.3-0.2,0.5c-0.2,0.3-0.6,0.6-1,0.7c-0.4,0.2-0.8,0.3-1.1,0.5c-0.6,0.2-1.2,0.5-1.8,0.7c-0.6,0.2-1.2,0.5-1.7,0.7
			c-0.7,0.3-1.5,0.5-2.2,0.8s-1.4,0.6-2.2,0.9c0.2,0.1,0.4,0.2,0.7,0.3c0.2,0.1,0.4,0.2,0.7,0.3c0.4,0.2,0.8,0.4,1.2,0.6
			c0.4,0.2,0.8,0.4,1.2,0.6c0.5,0.3,1,0.5,1.5,0.7c0.5,0.2,1,0.5,1.5,0.7c0.4,0.2,0.8,0.4,1.2,0.6c0.4,0.2,0.8,0.4,1.1,0.8
			c0.2,0.2,0.3,0.5,0.4,0.7c0,0.3,0,0.5-0.1,0.7s-0.3,0.4-0.5,0.6s-0.5,0.3-0.7,0.3c-0.4,0.1-0.8,0.1-1.2,0.2s-0.9,0.2-1.2,0.2
			c-0.7,0.1-1.3,0.2-2,0.3c-0.6,0.1-1.3,0.2-1.9,0.2c-1.1,0.1-2.2,0.2-3.2,0.3c-1.1,0.1-2.1,0.1-3.2,0.1L72.3,1117.6z"/>
		<path id="path150802" class="st4" d="M72.2,1127.7c0,0.4-0.1,0.7-0.2,0.9c-0.1,0.3-0.3,0.5-0.6,0.6s-0.5,0.1-0.8,0
			s-0.6-0.3-0.8-0.6c-0.2-0.3-0.4-0.6-0.5-1s-0.2-0.8-0.2-1.1c-0.1-0.8-0.1-1.6,0-2.2c0.1-0.7,0.2-1.3,0.5-1.9
			c0.2-0.5,0.6-1,1.1-1.5c0.5-0.4,1-0.8,1.8-1.1c0.5-0.2,1-0.3,1.5-0.3c0.6,0,1.1,0.1,1.7,0.2c0.5,0.1,1.1,0.3,1.6,0.5
			s0.9,0.5,1.3,0.8c0.5,0.4,0.8,0.9,1.1,1.6c0.3,0.7,0.5,1.4,0.6,2.1s0.1,1.5-0.1,2.2c-0.1,0.7-0.4,1.3-0.8,1.8
			c-0.3,0.4-0.7,0.7-1.2,0.9c-0.5,0.2-1,0.4-1.5,0.4s-1-0.1-1.4-0.3c-0.4-0.2-0.8-0.6-1.1-1c-0.3-0.5-0.5-1-0.6-1.5s-0.2-1-0.3-1.6
			c0-0.5-0.1-1.1-0.1-1.6s0-1,0-1.5c-0.4,0.2-0.8,0.5-1,0.9s-0.3,0.8-0.4,1.3s0,0.9,0,1.4c0.1,0.5,0.2,1,0.3,1.4L72.2,1127.7z
			 M77.2,1124.2c-0.1-0.4-0.3-0.7-0.6-1c-0.2-0.2-0.6-0.5-1.1-0.7c0,0.4,0,0.9,0.1,1.4c0,0.5,0,1,0.1,1.5c0,0.5,0.1,0.9,0.2,1.2
			c0.1,0.3,0.3,0.5,0.5,0.6c0.1,0,0.2,0,0.4,0c0.1,0,0.2-0.1,0.3-0.2c0.3-0.4,0.4-0.8,0.4-1.3s0-0.9-0.1-1.2L77.2,1124.2z"/>
		<path id="path150804" class="st4" d="M75.2,1133.4c0.2-0.3,0.4-0.5,0.6-0.6s0.5-0.2,0.8-0.2s0.5,0.1,0.7,0.3
			c0.2,0.2,0.4,0.4,0.5,0.8c0.1,0.3,0.1,0.6,0,0.9s-0.2,0.6-0.3,0.9c0.1,0,0.3,0.1,0.7,0.2c0.4,0.1,0.7,0.2,1.1,0.4
			c0.4,0.2,0.8,0.3,1.1,0.5c0.4,0.2,0.6,0.4,0.7,0.5c0.3,0.4,0.4,0.9,0.2,1.3c-0.2,0.4-0.5,0.7-1,0.9c-0.1,0-0.2,0.1-0.3,0.1
			c-0.1,0-0.2,0-0.3,0c-0.5-0.2-1.1-0.4-1.6-0.6s-1.1-0.4-1.6-0.6l-0.6,1.7c-0.1,0.3-0.3,0.5-0.5,0.6s-0.5,0.2-0.8,0.2
			s-0.5-0.1-0.7-0.2s-0.4-0.3-0.5-0.5c-0.2-0.4-0.2-0.9,0-1.3c0.1-0.4,0.3-0.9,0.5-1.4c-0.8-0.3-1.6-0.6-2.4-0.9s-1.6-0.6-2.4-0.8
			c-0.4-0.1-0.7-0.2-1.1-0.3c-0.4-0.1-0.7-0.2-1-0.4c-0.2-0.2-0.4-0.4-0.5-0.6s-0.1-0.5-0.1-0.7s0.1-0.5,0.3-0.7
			c0.1-0.2,0.3-0.4,0.6-0.5c0.1-0.1,0.3-0.1,0.6-0.1c0.3,0,0.5,0.1,0.8,0.2s0.7,0.2,1,0.4c0.3,0.1,0.7,0.2,1.1,0.4
			c0.5,0.2,1,0.3,1.5,0.5s1,0.4,1.4,0.5c0.5,0.2,0.8,0.3,1.1,0.4L75.2,1133.4z"/>
		<path id="path150806" class="st4" d="M62.3,1146.7c-0.5-0.1-0.8-0.3-1-0.5c-0.2-0.3-0.3-0.6-0.2-0.9c0-0.3,0.2-0.6,0.4-0.9
			c0.3-0.3,0.6-0.4,1.1-0.5c-0.1-0.5-0.1-1-0.1-1.4s0.2-0.9,0.4-1.4c0.3-0.7,0.7-1.3,1.2-1.8c0.4-0.5,1-0.8,1.5-1
			c0.6-0.2,1.2-0.3,1.8-0.2c0.7,0.1,1.4,0.3,2.1,0.7c0.3,0.2,0.6,0.4,0.8,0.6c0.3,0.2,0.5,0.5,0.7,0.7c0.3,0.3,0.5,0.6,0.8,0.9
			c0.3,0.4,0.5,0.7,0.6,1.1c0.6,1.2,0.8,2.5,0.7,3.8c0,0.2-0.1,0.5-0.2,0.9s-0.2,0.7-0.4,1c-0.2,0.4-0.4,0.7-0.6,0.9
			c-0.2,0.3-0.5,0.5-0.8,0.5c-0.2,0-0.4,0.1-0.6,0.1s-0.3,0-0.4-0.1s-0.3-0.1-0.5-0.2s-0.4-0.2-0.6-0.3c-0.4-0.2-0.8-0.4-1.1-0.6
			c-0.4-0.2-0.7-0.3-1.1-0.5c-0.1-0.1-0.3-0.1-0.5-0.2s-0.4-0.2-0.6-0.3c-0.2-0.1-0.5-0.2-0.7-0.3c-0.2-0.1-0.4-0.1-0.5-0.1
			L62.3,1146.7z M65.3,1142.7c0,0.2,0,0.4,0.1,0.7c0,0.3,0.1,0.5,0.2,0.7c0.8,0.2,1.6,0.5,2.3,0.8c0.8,0.3,1.5,0.7,2.2,1.1
			c0.2-0.7,0.2-1.4,0-2.1c-0.2-0.7-0.5-1.3-1-1.8c-0.2-0.2-0.4-0.4-0.6-0.6s-0.5-0.3-0.7-0.4c-0.3-0.1-0.6-0.2-0.9-0.1
			s-0.5,0.2-0.7,0.3c-0.2,0.2-0.4,0.4-0.5,0.6C65.4,1142.2,65.3,1142.4,65.3,1142.7L65.3,1142.7z"/>
		<path id="path150808" class="st4" d="M57.6,1151.5c0.2-0.4,0.5-0.7,0.8-1.1c0.3-0.3,0.6-0.6,1-0.8c0-0.2,0.1-0.4,0.2-0.6
			c0.1-0.2,0.2-0.3,0.4-0.4c0.1-0.1,0.3-0.2,0.4-0.2c0.1,0,0.2-0.1,0.3-0.1c0.3,0,0.6,0,0.9,0.2c0.3,0.1,0.5,0.4,0.6,0.7l10.2,6.2
			c0.3,0.2,0.5,0.4,0.6,0.8c0.1,0.3,0.1,0.7,0,1s-0.3,0.5-0.6,0.7c-0.3,0.2-0.7,0.2-1.1,0.1c-0.3-0.1-0.5-0.2-0.8-0.3
			c-0.2-0.1-0.5-0.2-0.8-0.4c-0.3-0.2-0.7-0.4-1.1-0.6s-0.9-0.6-1.4-0.9c0,0.2,0,0.3,0,0.5s0,0.3,0,0.5c-0.1,0.5-0.2,0.9-0.4,1.4
			c-0.2,0.4-0.5,0.8-0.8,1.2c-0.3,0.4-0.7,0.6-1.2,0.8c-0.4,0.2-0.9,0.3-1.4,0.3c-0.7,0-1.5-0.2-2.3-0.5c-0.8-0.3-1.5-0.7-2.1-1.3
			c-0.6-0.5-1.1-1.1-1.5-1.9c-0.4-0.7-0.5-1.5-0.4-2.3c0.1-0.5,0.2-1,0.3-1.5C57.1,1152.4,57.3,1152,57.6,1151.5L57.6,1151.5z
			 M63.4,1153.4l-2.4-1.5h-0.1h-0.1c-1.1,1-1.5,2.2-1.1,3.6c0.4,0.5,0.9,0.9,1.3,1.2c0.5,0.3,1,0.5,1.7,0.7c0.2,0,0.4,0,0.5-0.2
			c0.1-0.1,0.3-0.2,0.4-0.3c0.2-0.2,0.3-0.4,0.3-0.8c0-0.3,0-0.6,0-1c0-0.3-0.1-0.7-0.2-1c-0.1-0.3-0.2-0.6-0.3-0.8L63.4,1153.4z"/>
		<path id="path150810" class="st4" d="M58.8,1161.2c0.3,0.4,0.6,0.7,0.8,1.2c0.2,0.4,0.4,0.9,0.6,1.3c0.2,0.5,0.3,0.9,0.3,1.4
			s0,0.9,0,1.4c-0.1,0.8-0.4,1.5-0.8,2.1c-0.4,0.6-0.9,1.1-1.6,1.4c-0.6,0.3-1.3,0.5-2,0.5c-0.7,0-1.4-0.2-2.2-0.6
			c-0.5-0.3-0.9-0.5-1.3-0.8c-0.4-0.3-0.7-0.6-1.1-1c-0.5-0.6-0.9-1.3-1.2-2.1c-0.3-0.8-0.4-1.6-0.4-2.4s0.2-1.6,0.5-2.3
			c0.3-0.7,0.9-1.3,1.7-1.7c0.4-0.2,0.7-0.3,1.1-0.4c0.3-0.1,0.7-0.1,1.1-0.1c0.4,0,0.8,0,1.2,0.1s0.8,0.3,1.1,0.4
			c0.4,0.2,0.8,0.4,1.1,0.7c0.3,0.3,0.7,0.6,0.9,0.9H58.8z M56.7,1163.1c-0.2-0.2-0.3-0.4-0.5-0.5c-0.2-0.2-0.4-0.3-0.6-0.4
			c-0.3-0.2-0.6-0.3-1-0.4c-0.3-0.1-0.6,0-0.9,0c-0.3,0.1-0.5,0.3-0.7,0.5s-0.3,0.6-0.4,1c-0.1,0.5,0,1.1,0.3,1.7s0.6,1.1,1,1.5
			s0.9,0.7,1.5,0.9c0.6,0.2,1.1,0.1,1.6-0.3c0.2-0.3,0.4-0.6,0.5-1c0.1-0.3,0.1-0.7,0.1-1s-0.1-0.7-0.3-1
			C57.1,1163.7,56.9,1163.4,56.7,1163.1L56.7,1163.1z"/>
		<path id="path150812" class="st4" d="M46,1169.4c-0.3-0.3-0.4-0.6-0.4-1s0.1-0.7,0.3-1s0.4-0.5,0.7-0.6s0.6,0,0.9,0.3
			c1.4,1.1,2.8,2.4,4.2,3.6c1.4,1.3,2.8,2.6,4.2,3.9c0.2-0.1,0.5-0.2,0.7-0.1s0.4,0.1,0.6,0.2c0.2,0.1,0.3,0.3,0.5,0.5
			c0.1,0.2,0.2,0.4,0.2,0.7c0,0.3,0,0.5-0.1,0.9c-0.1,0.3-0.2,0.7-0.3,1c-0.1,0.4-0.3,0.7-0.4,1c-0.2,0.3-0.3,0.6-0.4,0.8
			c-0.5,0.9-1.2,1.6-2,2.2s-1.7,1-2.6,1.2c-0.9,0.2-1.8,0.1-2.7-0.2c-0.9-0.3-1.7-0.9-2.3-1.9c-0.2-0.3-0.3-0.6-0.5-0.9
			s-0.2-0.6-0.3-0.9c-0.1-0.5-0.2-0.9-0.2-1.4s0.1-1,0.1-1.4c-0.4,0-0.9,0-1.3,0c-0.4,0-0.9,0-1.3,0c-0.2,0-0.4,0-0.7,0.1
			c-0.3,0-0.7,0-1,0c-0.4,0-0.7,0-1-0.1c-0.3,0-0.5-0.1-0.6-0.3c-0.2-0.2-0.3-0.5-0.4-0.7c-0.1-0.3-0.1-0.5-0.1-0.8
			c0-0.2,0.1-0.5,0.3-0.6c0.2-0.2,0.4-0.3,0.7-0.4s0.7-0.1,1.1-0.1c0.4,0,0.7,0,1.1,0c0.8,0,1.5,0,2.3,0c0.7,0,1.5,0,2.2,0
			c0.2-0.3,0.3-0.5,0.5-0.8c0.2-0.2,0.4-0.5,0.6-0.7l-2.4-2.2L46,1169.4z M51.5,1180.1c0.7-0.2,1.3-0.6,1.8-1.1
			c0.5-0.5,0.9-1.1,1.2-1.8l-3.9-3.5c-0.4,0.5-0.8,1.1-1.2,1.7s-0.6,1.3-0.6,2c0,0.4,0,0.8,0.1,1.1c0.1,0.4,0.3,0.7,0.5,0.9
			c0.2,0.3,0.5,0.5,0.9,0.6C50.7,1180.1,51.1,1180.2,51.5,1180.1L51.5,1180.1z"/>
		<path id="path150814" class="st4" d="M34.2,1184.7c-0.2,0.3-0.5,0.5-0.7,0.7c-0.3,0.1-0.5,0.2-0.8,0.1c-0.3,0-0.5-0.2-0.7-0.4
			c-0.2-0.2-0.3-0.5-0.3-1c0-0.3,0-0.7,0.2-1.1c0.1-0.4,0.3-0.7,0.4-1c0.4-0.7,0.8-1.4,1.2-1.9s0.9-1,1.4-1.3s1.1-0.5,1.7-0.6
			c0.6-0.1,1.3-0.1,2,0.1c0.5,0.1,1,0.3,1.5,0.6c0.5,0.3,0.9,0.7,1.3,1.1c0.4,0.4,0.7,0.8,1,1.3s0.5,0.9,0.6,1.4
			c0.2,0.6,0.2,1.2,0.1,1.9c-0.1,0.7-0.3,1.4-0.7,2.1s-0.8,1.3-1.3,1.8s-1.1,0.9-1.6,1.1s-1,0.2-1.5,0.1s-1-0.2-1.4-0.5
			s-0.8-0.6-1-1.1c-0.3-0.4-0.4-0.9-0.3-1.5c0-0.5,0.1-1.1,0.3-1.6s0.4-1,0.6-1.4c0.3-0.5,0.5-0.9,0.8-1.4c0.3-0.4,0.6-0.9,0.8-1.3
			c-0.5-0.1-0.9,0-1.3,0.2c-0.4,0.2-0.7,0.5-1,0.8c-0.3,0.4-0.6,0.8-0.8,1.2c-0.2,0.5-0.4,0.9-0.5,1.4V1184.7z M40.4,1184.5
			c0.1-0.4,0.1-0.8,0.1-1.1c-0.1-0.3-0.3-0.7-0.6-1.2c-0.2,0.4-0.5,0.8-0.7,1.2c-0.3,0.4-0.5,0.9-0.8,1.3c-0.2,0.4-0.4,0.8-0.5,1.1
			c-0.1,0.3-0.1,0.6,0.1,0.8c0.1,0.1,0.2,0.2,0.3,0.2c0.1,0.1,0.2,0.1,0.3,0c0.4-0.2,0.8-0.5,1.1-0.8c0.3-0.4,0.5-0.7,0.6-1.1
			L40.4,1184.5z"/>
		<path id="path150816" class="st4" d="M35.2,1192.4c0.1,0.4,0.2,0.7,0.1,1c-0.1,0.3-0.2,0.6-0.4,0.7c-0.2,0.2-0.4,0.3-0.7,0.4
			s-0.5,0-0.8-0.1c-0.1,0.2-0.2,0.4-0.2,0.5c-0.1,0.2-0.2,0.3-0.3,0.5c-0.6,0.8-1.3,1.3-2.1,1.6c-0.8,0.2-1.6,0.3-2.4,0.1
			c-0.8-0.2-1.5-0.5-2.2-1.1c-0.7-0.5-1.2-1.2-1.7-1.9c-0.4-0.7-0.7-1.5-0.8-2.4c-0.1-0.9,0.1-1.7,0.6-2.6c0.3-0.6,0.7-1.1,1.2-1.5
			c0.5-0.5,0.9-0.9,1.5-1.2c0,0-0.1-0.1-0.2-0.3c-0.2-0.2-0.3-0.4-0.6-0.7c-0.2-0.3-0.5-0.6-0.7-0.9c-0.3-0.3-0.5-0.7-0.7-1
			c-0.2-0.3-0.4-0.6-0.6-0.9s-0.3-0.5-0.3-0.6c0-0.4,0.1-0.7,0.2-0.9c0.2-0.2,0.4-0.4,0.7-0.5c0.3-0.1,0.6-0.1,0.9,0
			c0.3,0.1,0.5,0.2,0.8,0.5l8.7,11.2L35.2,1192.4z M31,1191.8C31,1191.7,31,1191.7,31,1191.8c0-0.1,0-0.1,0-0.2l-2.4-3
			c-0.3,0.2-0.5,0.3-0.8,0.5c-0.2,0.2-0.5,0.4-0.7,0.7c-0.4,0.6-0.7,1.2-0.7,1.8c0,0.7,0.3,1.2,0.8,1.8c0.2,0.2,0.5,0.4,0.8,0.6
			c0.3,0.2,0.6,0.3,0.9,0.4c0.3,0,0.6,0,0.9-0.1s0.5-0.3,0.7-0.7c0.1-0.2,0.2-0.5,0.3-0.8C31,1192.4,31,1192.1,31,1191.8L31,1191.8z
			"/>
		<path id="path150818" class="st4" d="M23.5,1196.3c0.2,0.4,0.3,0.9,0.4,1.3c0.1,0.5,0.1,0.9,0.1,1.4s-0.1,1-0.2,1.4
			c-0.1,0.5-0.3,0.9-0.5,1.3c-0.4,0.7-0.9,1.3-1.5,1.7c-0.6,0.4-1.2,0.7-1.9,0.8c-0.7,0.1-1.4,0-2.1-0.2s-1.3-0.6-1.9-1.2
			c-0.4-0.4-0.7-0.8-0.9-1.2c-0.3-0.4-0.5-0.8-0.7-1.3c-0.3-0.7-0.4-1.5-0.4-2.3c0-0.9,0.1-1.7,0.4-2.4c0.3-0.8,0.7-1.5,1.2-2
			c0.6-0.6,1.3-0.9,2.2-1c0.4-0.1,0.8-0.1,1.1,0c0.4,0,0.7,0.1,1.1,0.2s0.8,0.3,1.1,0.5s0.6,0.5,0.9,0.8s0.6,0.6,0.8,1
			c0.2,0.4,0.4,0.8,0.6,1.2L23.5,1196.3z M20.9,1197.5c-0.1-0.2-0.2-0.5-0.3-0.7c-0.1-0.2-0.2-0.4-0.4-0.6c-0.2-0.3-0.5-0.5-0.8-0.7
			s-0.6-0.2-0.9-0.3c-0.3,0-0.6,0.1-0.9,0.2c-0.3,0.2-0.5,0.4-0.7,0.8c-0.2,0.5-0.3,1-0.3,1.7c0,0.6,0.2,1.2,0.5,1.8
			c0.3,0.5,0.6,1,1.1,1.3c0.5,0.3,1,0.4,1.6,0.3c0.3-0.2,0.6-0.5,0.8-0.8c0.2-0.3,0.3-0.6,0.4-1c0.1-0.3,0.1-0.7,0.1-1
			C21.1,1198.2,21,1197.8,20.9,1197.5L20.9,1197.5z"/>
		<path id="path150820" class="st4" d="M13.9,1204.5L13.9,1204.5c0,0.2,0.1,0.3,0.3,0.5c0.3,0,0.5,0,0.8,0.2
			c0.2,0.1,0.4,0.3,0.6,0.5c0.1,0.2,0.2,0.4,0.2,0.7c0,0.3-0.1,0.5-0.2,0.8c-0.2,0.4-0.5,0.6-0.9,0.7c-0.4,0.1-0.9,0.1-1.2,0.1
			c-0.2,0.5-0.4,0.9-0.7,1.3s-0.6,0.7-0.9,1c-0.3,0.3-0.7,0.5-1.2,0.7c-0.4,0.1-0.9,0.2-1.4,0.2c-0.3,0-0.5-0.1-0.8-0.2
			s-0.5-0.2-0.7-0.4c-0.3-0.3-0.4-0.6-0.4-0.9s0-0.6,0.2-0.8c0.2-0.2,0.4-0.4,0.7-0.5s0.6-0.1,1,0c0.1,0,0.2,0,0.3,0s0.1,0,0.3,0
			c0.2-0.1,0.5-0.2,0.6-0.4c0.2-0.2,0.3-0.4,0.4-0.7c0.1-0.2,0.2-0.5,0.3-0.8s0.1-0.5,0.2-0.7l-3-5.1c-0.1-0.2-0.2-0.4-0.2-0.7
			c-0.1-0.4,0-0.7,0.2-1s0.4-0.5,0.7-0.6c0.3-0.1,0.6-0.1,0.9,0c0.3,0.1,0.6,0.3,0.8,0.7L13.9,1204.5L13.9,1204.5z"/>
		<path id="path150822" class="st4" d="M4.5,1210.6c0.3-0.1,0.6-0.1,0.9,0c0.3,0.1,0.5,0.2,0.7,0.4c0.2,0.2,0.3,0.4,0.4,0.7
			c0,0.3,0,0.6-0.2,0.9c-0.1,0.3-0.3,0.5-0.6,0.6c-0.3,0.1-0.5,0.3-0.8,0.4c0.1,0.1,0.2,0.3,0.3,0.6c0.2,0.3,0.4,0.7,0.6,1.1
			c0.2,0.4,0.3,0.8,0.5,1.1c0.1,0.4,0.2,0.7,0.2,0.9c-0.1,0.5-0.3,0.9-0.7,1.1c-0.4,0.2-0.9,0.2-1.3-0.1c-0.1,0-0.2-0.1-0.3-0.2
			c-0.1-0.1-0.2-0.1-0.2-0.2c-0.3-0.5-0.5-1-0.8-1.5s-0.5-1-0.8-1.5l-1.6,0.8c-0.2,0.1-0.5,0.2-0.8,0.1s-0.5-0.2-0.7-0.4
			c-0.2-0.2-0.3-0.4-0.4-0.7c-0.1-0.2-0.1-0.5,0-0.7c0.2-0.4,0.5-0.8,0.9-1s0.8-0.5,1.3-0.7c-0.4-0.8-0.8-1.5-1.2-2.3
			s-0.8-1.5-1.2-2.3c-0.2-0.3-0.4-0.7-0.6-1s-0.4-0.7-0.5-1c-0.1-0.3,0-0.5,0.1-0.8c0.1-0.2,0.2-0.4,0.4-0.6
			c0.2-0.1,0.4-0.2,0.7-0.3c0.2-0.1,0.5-0.1,0.8,0c0.1,0,0.3,0.2,0.5,0.4c0.2,0.2,0.3,0.4,0.5,0.7c0.2,0.3,0.3,0.6,0.5,1
			c0.1,0.3,0.3,0.6,0.6,1.1c0.2,0.4,0.5,0.9,0.7,1.4c0.3,0.5,0.5,0.9,0.7,1.4c0.2,0.4,0.4,0.8,0.5,1L4.5,1210.6z"/>
	</g>
	<text transform="matrix(1 0 0 1 221.5447 350)" class="st4 st5 st6">M</text>
	<text transform="matrix(1 0 0 1 240.6447 350)" class="st7 st5 st6">etabolic Profiling Unit</text>
	<g>
		<g>
			<g>
				<path class="st7" d="M270.6,374l-1.5,2.6l0.3,0.3l2.6-1.4c0.3-0.1,0.4-0.4,0.5-0.7l0.2-1.4l-1.2,0.1
					C271,373.5,270.7,373.7,270.6,374z"/>
			</g>
			<g>
				<path class="st7" d="M270.7,371.5c0.3-0.3,0.4-0.7,0.2-1.1l-0.3-1l-1.2,0.6c-0.3,0.1-0.5,0.4-0.6,0.8l-0.6,2.9l0.4,0.2
					L270.7,371.5z"/>
			</g>
			<g>
				<path class="st7" d="M282.8,386.2l-1.6-1c-0.4-0.3-0.9-0.3-1.4-0.2l-2.3,0.7v0.4l2.9,1c0.5,0.2,1.1,0.1,1.6-0.3L282.8,386.2z"/>
			</g>
			<g>
				<path class="st7" d="M263.6,381.4c-0.2,0.2-0.3,0.5-0.2,0.7l0.1,1.9h0.4l1.2-1.6c0.2-0.3,0.3-0.7,0.1-1.1l-0.5-1.2L263.6,381.4z
					"/>
			</g>
			<g>
				<path class="st7" d="M262.7,376.3c-0.1,0.2-0.2,0.5-0.1,0.8l0.9,2.3h0.4l0.8-2.3c0.1-0.3,0.1-0.5-0.2-0.9l-0.9-1.3L262.7,376.3z
					"/>
			</g>
			<g>
				<path class="st7" d="M263.1,372.2c0.3-0.2,0.5-0.6,0.5-0.9l0.3-1.6l-1.4,0.1c-0.4,0-0.7,0.2-0.9,0.5l0,0l-1.5,2.7l0.4,0.5
					L263.1,372.2z"/>
			</g>
			<g>
				<path class="st7" d="M274.4,371.6c0.5-0.2,0.5-0.2,0.7-0.8l0.5-1.3H274c-0.3,0-0.6,0.2-0.8,0.4l-1.5,2.3l0.4,0.4L274.4,371.6z"
					/>
			</g>
			<g>
				<path class="st7" d="M281.4,373.7c-0.4,0-0.7,0.3-0.8,0.6l-1.3,2.6l0.3,0.3l2.7-1.5c0.3-0.2,0.6-0.5,0.6-0.9l-0.1-1.2h-1.4
					V373.7z"/>
			</g>
			<g>
				<path class="st7" d="M283.1,379.6l0.4-1.4l-1.5-0.5c-0.3-0.1-0.6,0-0.8,0.2l-2.5,2.2l0.2,0.4l3.5-0.2
					C282.6,380.3,283,380,283.1,379.6z"/>
			</g>
			<g>
				<path class="st7" d="M274.9,373.9l3.9-2.4c0.3-0.2,0.4-0.5,0.4-0.9l-0.1-1.2l-1.7,0.5c-0.3,0.1-0.5,0.3-0.7,0.6l-2.1,3.2
					L274.9,373.9z"/>
			</g>
			<g>
				<path class="st7" d="M267.5,372.1c0.2-0.3,0.2-0.6,0.1-0.9l-0.9-1.8l-1.3,1c-0.2,0.2-0.2,0.7-0.3,1v0.1l-0.3,3.2l0.6,0.2
					L267.5,372.1z"/>
			</g>
			<g>
				<path class="st7" d="M247.6,373.4l-1.5-0.7l-0.1,1.7c0,0.4,0.1,0.7,0.5,1.2l1.7,1.7l0.4-0.3l-0.6-2.9
					C248,373.7,247.9,373.5,247.6,373.4z"/>
			</g>
			<g>
				<path class="st7" d="M262,375.2l-0.2-1.3l-1.6,0.6c-0.4,0.1-0.5,0.6-0.7,1.1l-0.9,2l0.4,0.3l2.5-1.2
					C261.9,376.4,262.1,376.2,262,375.2z"/>
			</g>
			<g>
				<path class="st7" d="M254.5,376l0.4-0.1l0.1-1.7c0.1-0.4-0.2-0.8-0.5-1l-0.9-0.5l-0.4,1c-0.1,0.2,0,0.5,0.1,0.7L254.5,376z"/>
			</g>
			<g>
				<path class="st7" d="M246.4,371.3l2.5,1.6l0.4-0.3l-0.7-2.2c-0.1-0.3-0.4-0.6-0.7-0.7l-1.7-0.3l-0.2,0.9
					C245.9,370.7,246.1,371.1,246.4,371.3z"/>
			</g>
			<g>
				<path class="st7" d="M250,375l1.8,1.7l0.3-0.3l-0.5-2.3c-0.1-0.3-0.3-0.5-0.6-0.6l-1.2-0.4l-0.2,1.1
					C249.6,374.5,249.7,374.8,250,375z"/>
			</g>
			<g>
				<path class="st7" d="M255.6,373.1l0.4-0.1l0.3-2.2c0-0.3-0.1-0.5-0.4-0.7l-1-0.6l-0.8,1.1c-0.2,0.3-0.2,0.6,0,0.9L255.6,373.1z"
					/>
			</g>
			<g>
				<path class="st7" d="M259.8,371.5c0.3-0.1,0.4-0.3,0.4-0.6l-0.1-1.5l-1.6,0.1c-0.2,0.1-0.4,0.2-0.5,0.4l-0.8,2.3l0.4,0.4
					L259.8,371.5z"/>
			</g>
			<g>
				<path class="st7" d="M258,379.5c-0.1,0.1-0.2,0.2-0.3,0.3l-1,0.9l0.1,0.3l1.6,0.1c0.3,0,0.6-0.2,0.8-0.6l0.5-1l-1-0.2
					C258.3,379.3,258.1,379.4,258,379.5z"/>
			</g>
			<g>
				<path class="st7" d="M256,376.8l2.2-1.1c0.4-0.2,0.6-0.5,0.5-0.9l-0.2-1.4L257,374c-0.3,0.1-0.4,0.3-0.5,0.5l-0.9,2L256,376.8z"
					/>
			</g>
			<g>
				<path class="st7" d="M250.3,371.1l2,1.8l0.4-0.2l-0.2-2.3c0-0.4-0.3-0.7-0.8-0.8l-0.9-0.3l-0.7,0.7
					C249.9,370.4,250,370.8,250.3,371.1z"/>
			</g>
			<g>
				<path class="st7" d="M272.8,375.9L272.8,375.9l-1.4,2.5l0.3,0.3l2.5-1.3c0.3-0.2,0.4-0.4,0.4-0.7l0.1-1.5l-1.2,0.2
					C273.2,375.4,273,375.6,272.8,375.9z"/>
			</g>
			<g>
				<path class="st7" d="M278.9,374.6l-1.7,0.4c-0.3,0-0.5,0.2-0.7,0.7l-1.4,2.5l0.3,0.3l2.6-1.1c0.4-0.2,0.7-0.7,0.8-1.3
					L278.9,374.6z"/>
			</g>
			<g>
				<path class="st7" d="M273.9,382.9l3-1.4c0.3-0.1,0.5-0.5,0.6-0.8l0.1-1.1l-1.7,0.1c-0.3,0-0.6,0.2-0.8,0.4l-1.5,2.4L273.9,382.9
					z"/>
			</g>
			<g>
				<path class="st7" d="M279.9,383.7l1-1.2l-1.8-0.8c-0.3-0.1-0.7-0.1-1,0.1l-2.5,1.9l0.2,0.4l3.4-0.2
					C279.5,384,279.7,383.9,279.9,383.7z"/>
			</g>
			<g>
				<path class="st7" d="M273.8,385.7c-0.2,0.1-0.3,0.2-0.5,0.4l-1.2,2.2l0.3,0.4l3-1.2c0.4-0.2,0.7-0.6,0.6-1l-0.1-1.4L273.8,385.7
					z"/>
			</g>
			<g>
				<path class="st7" d="M279.1,373.4l3.4-1.6c0.3-0.2,0.5-0.5,0.5-0.9v-1.4l-1.7,0.2c-0.2,0.1-0.4,0.2-0.5,0.4l-1.9,3L279.1,373.4z
					"/>
			</g>
			<g>
				<path class="st7" d="M285.8,372.5c0.6-0.3,1.2-0.5,1.3-1.1c0-0.4,0.1-1.7,0.1-2l-1.7,0.2c-0.4,0-0.8,0.3-0.9,0.7l-1.1,2.7
					l0.4,0.3L285.8,372.5z"/>
			</g>
			<g>
				<path class="st7" d="M280.7,394.4c-0.2-0.2-0.6-0.3-0.9-0.3l-3,0.6l-0.1,0.4l3.2,1.4c0.3,0.1,0.7,0.1,0.9-0.1l1.2-0.8
					L280.7,394.4z"/>
			</g>
			<g>
				<path class="st7" d="M268.3,376.8l0.1-1.8l-1.5,0.5c-0.3,0.1-0.6,0.3-0.7,0.7l-0.9,3.1l0.3,0.2l2.2-1.7
					C268.2,377.5,268.3,377.3,268.3,376.8z"/>
			</g>
			<g>
				<path class="st7" d="M269.3,380.8c0.3-0.2,0.5-0.5,0.5-0.9l0.1-1.2l-1.4,0.2c-0.4,0-0.7,0.3-0.9,0.7l-0.8,2.1l0.3,0.3
					L269.3,380.8z"/>
			</g>
			<g>
				<path class="st7" d="M278.9,393.3c0.4,0.1,0.8,0,1.1-0.3l0.9-1.1l-1.7-0.8c-0.2-0.1-0.5-0.1-0.8,0l-2.5,0.9v0.5L278.9,393.3z"/>
			</g>
			<g>
				<path class="st7" d="M279.4,399.7l1.5-0.2l-0.5-1.1c-0.2-0.5-0.7-0.9-1.3-1.1l-3-0.6l-0.2,0.4l2,2
					C278.3,399.6,278.9,399.8,279.4,399.7z"/>
			</g>
			<g>
				<path class="st7" d="M279,403.4l2-0.2l-0.2-1.3c0-0.4-0.4-0.7-0.8-0.8l-3.8-0.8l-0.2,0.4l2.1,2.4
					C278.4,403.3,278.7,403.5,279,403.4z"/>
			</g>
			<g>
				<path class="st7" d="M269.5,382.3l0.2,0.3l2.6-0.5c0.3-0.1,0.6-0.3,0.8-0.6l0.7-1.9h-1.5c-0.3,0-0.6,0.1-0.8,0.4L269.5,382.3z"
					/>
			</g>
			<g>
				<path class="st7" d="M278.3,389.7l1-1.6l-1.9-0.3c-0.3,0-0.5,0-0.7,0.2l-2.5,1.5l0.1,0.4l3.1,0.3
					C277.8,390.2,278.1,390,278.3,389.7z"/>
			</g>
			<g>
				<path class="st7" d="M271.8,385.6c0.4,0,0.6-0.1,0.9-0.4l1-1.1l-1.7-0.6c-0.7-0.2-0.9-0.1-1.3,0.1l-1.8,1.3l0.1,0.5L271.8,385.6
					z"/>
			</g>
			<g>
				<path class="st7" d="M274,396.1c0.4,0.1,0.7-0.1,1-0.3l0.8-1l-1.1-0.5c-0.2-0.1-0.5-0.1-0.8-0.1l-2.4,0.9v0.4L274,396.1z"/>
			</g>
			<g>
				<path class="st7" d="M269.6,389.9l-0.5,2.3l0.3,0.3l1.7-1.6c0.4-0.5,0.6-0.6,0.5-1l-0.1-1.2c0,0-0.9,0.3-1.2,0.4
					C270,389.3,269.8,389.3,269.6,389.9z"/>
			</g>
			<g>
				<path class="st7" d="M273.6,392.9c0.4-0.1,0.7-0.5,0.7-1l-0.1-1.1l-1.5,0.2c-0.2,0-0.4,0.1-0.5,0.3l-2,2.2l0.2,0.4L273.6,392.9z
					"/>
			</g>
			<g>
				<path class="st7" d="M284.8,383.1l-2.7,1v0.5l3,1.1c0.4,0.1,0.8,0,1.1-0.3l1-1.1l-1.4-1.1C285.5,383,285.1,383,284.8,383.1z"/>
			</g>
			<g>
				<path class="st7" d="M268.4,395.2l-1.3,1.2l0.2,0.5l1.9-0.1c0.4,0,0.9-0.3,1-0.7l0.4-1L269,395
					C268.8,394.9,268.6,395,268.4,395.2z"/>
			</g>
			<g>
				<path class="st7" d="M274,399.2l1.5-0.6l-0.9-1c-0.2-0.2-0.5-0.4-0.9-0.4l-2.7,0.1l-0.1,0.4l2,1.4
					C273.2,399.3,273.6,399.3,274,399.2z"/>
			</g>
			<g>
				<path class="st7" d="M268.6,397.8h-2.3l-0.2,0.3l1.8,1.3c0.3,0.2,0.6,0.3,1,0.2l1.4-0.3l-0.8-1.1
					C269.3,398,268.9,397.8,268.6,397.8z"/>
			</g>
			<g>
				<path class="st7" d="M233.5,407.4c-0.2,0.1-0.3,0.3-0.4,0.5l-0.6,1.5l2.8-0.7c0.3-0.1,0.6-0.3,0.7-0.7l0.9-2.7l-0.5-0.2
					L233.5,407.4z"/>
			</g>
			<g>
				<path class="st7" d="M275,401.4c-0.1-0.3-0.4-0.6-0.7-0.7l-3.1-0.7l-0.2,0.4l2.1,2.6c0.2,0.3,0.6,0.4,1,0.3l1.6-0.3L275,401.4z"
					/>
			</g>
			<g>
				<path class="st7" d="M268.4,393.5v-0.8l-1.1,0.1c-0.4,0.1-0.7,0.1-0.8,0.7l-0.4,2l-1.2,1.3h-4.8c-0.5,0-0.8-0.6-0.4-1l2.4-2.7
					l-0.4-0.4L255,400l-0.4-0.4l1-1.1c0.1-0.1,0.1-0.3,0.1-0.4l-0.6-1.4l3-7c0.2-0.6,0.8-1,1.4-1h2.1l1-1.1c0.9-0.9,1.3-1.1,2.2-1.1
					h1.7l1.4,1.1c0.3,0.2,0.6,0.2,1,0.1l1.2-0.4l-1-0.9c-0.5-0.4-0.6-0.3-1-0.3h-2.2l0,0l0,0H264l0.9-1l1.7-0.2
					c0.3-0.1,0.5-0.3,0.8-0.6l0.7-1.3h-1.4c-0.4,0-0.7,0-0.9,0.3l-3,3.2c-0.3,0.3-0.8,0.4-1.1,0.3h-3.9l-1.2,1.3l-0.4-0.3l1-1.1
					c0.2-0.2,0.3-0.4,0.2-0.7l-0.4-3.5c0,0-1.2-0.7-1.3-1.4c-0.1-0.6,0.1-1.1,0.6-1.5l0.6-0.5c0.4-0.3,0.5-0.4,0.6-1.2l0.1-1.1
					l-1.6,0.7c-0.2,0.1-0.5,0.5-0.5,0.7v1.4l-0.5,0.9l-0.6-0.8v-0.6l0.3-1.3c0.1-0.4-0.2-0.7-0.4-1l-1.1-0.8l-0.5,1.1
					c-0.1,0.3,0,0.6,0.2,0.9l1,1.1v5.6l-2.8-1.6c-0.4-0.2-0.7-0.6-0.8-1.1v-1.1v-1.7c0-0.6,0-0.7-0.4-1l-0.7-0.5l-0.6,1
					c-0.1,0.3-0.2,0.6-0.1,0.8l1.1,1.5l0,0l-0.2,1.1l-2.5-2.3c-0.2-0.2-0.5-0.3-0.8-0.2l-1.2,0.5l0.5,0.8c0.2,0.4,0.4,0.4,0.7,0.5
					l2,0.2l3.8,5.1c0.5,0.6,0.6,1.4,0.3,2l-1,2l-0.3,0.6l-5.9-3.7c-0.4-0.3-0.5-0.3-1-0.3l-1,0.1l0.4,1c0.2,0.4,0.5,0.8,0.9,0.7h1.9
					l1.4,0.9v0.2h-2.1l0,0h-1.9c-0.4,0-0.8,0.2-0.9,0.6l-0.7,1.5h1.3c0.3,0,0.5-0.1,0.7-0.2l1.5-1.3h0.7c0.5,0,0.8,0,1,0.4l1.3,1.9
					c0.5,0.8,0.6,1.1,0.5,1.6l-0.8,1.7l-1.4,2.8l-0.1,7.6l-1.9,2v0.6h15l0.6-0.6l-2.2-4.9l1.4-4.6c0.2-0.5,0.6-0.9,1.2-0.9h3.4
					l3.7-4C268.4,393.9,268.4,393.9,268.4,393.5z"/>
			</g>
			<g>
				<path class="st7" d="M240.3,392.8l-2.6,1.3c-0.3,0.2-0.5,0.5-0.5,0.8v1.5l2-0.7c0.2-0.1,0.4-0.3,0.5-0.5l1-2.2L240.3,392.8z"/>
			</g>
			<g>
				<path class="st7" d="M239,397.7h-0.5l-1.3,3.5c-0.1,0.3-0.1,0.7,0.1,0.9l0.7,1.5l1.4-2c0.3-0.3,0.4-0.7,0.2-1.1L239,397.7z"/>
			</g>
			<g>
				<path class="st7" d="M242.1,393.9l-1.8,2.4c-0.2,0.3-0.3,0.6-0.2,1l0.3,1.2l1.7-1.1c0.3-0.2,0.5-0.5,0.5-0.9V394L242.1,393.9z"
					/>
			</g>
			<g>
				<path class="st7" d="M274.9,404.3l-0.4,0.2l0.3,3.2c0,0.3,0.2,0.5,0.4,0.7l2,1.1l0.4-2c0.1-0.3,0-0.6-0.3-0.8L274.9,404.3z"/>
			</g>
			<g>
				<path class="st7" d="M285.4,390.6l-4-0.1l-0.2,0.4l3.2,2.1c0.4,0.3,0.8,0.3,1.2,0l1.5-1l-1.1-1.1
					C285.9,390.7,285.6,390.6,285.4,390.6z"/>
			</g>
			<g>
				<path class="st7" d="M284.9,379.3l-2.4,2.5l0.2,0.4l3.6-0.4c0.5-0.1,0.9-0.5,0.9-1v-1.5l-1.4-0.3
					C285.5,379,285.1,379.1,284.9,379.3z"/>
			</g>
			<g>
				<path class="st7" d="M284.2,387.2h-0.1l-3.1,1.4l0.1,0.5l3.9,0.4c0.1,0,0.1,0,0.2,0c0.4,0.1,0.6,0.1,1.3-0.6l0.6-0.6l-1.2-0.8
					C285,386.9,284.8,387,284.2,387.2z"/>
			</g>
			<g>
				<path class="st7" d="M285.1,374.7l-2.1,1.8l0.1,0.4l1.7,0.2c0.1,0,0.2,0,0.3,0c0.5,0,1.1,0.1,1.4-0.3c0.1-0.1,0.1-0.2,0.2-0.3
					l0.3-1.4l-0.9-0.6C285.9,374.4,285.4,374.4,285.1,374.7z"/>
			</g>
			<g>
				<path class="st7" d="M286.7,406.7L286.7,406.7l-3.7-2.4l-0.4,0.3l1.3,3.6c0.1,0.3,0.4,0.6,0.7,0.6l2.5,0.5v-2
					C287.1,407.1,287,406.8,286.7,406.7z"/>
			</g>
			<g>
				<path class="st7" d="M281.7,407L281.7,407l-3.3-2.7l-0.4,0.3l1.3,3.9c0.1,0.3,0.4,0.5,0.8,0.6l2,0.3l-0.1-1.7
					C282.1,407.4,282,407.2,281.7,407z"/>
			</g>
			<g>
				<path class="st7" d="M286,401.9l-3.7-1.2l-0.3,0.4l2.7,3c0.2,0.2,0.5,0.4,0.8,0.3l1.6-0.2l-0.5-1.7
					C286.6,402.2,286.3,402,286,401.9z"/>
			</g>
			<g>
				<path class="st7" d="M285.5,394.1h-3l-0.2,0.4l2.4,2c0.2,0.2,0.4,0.2,0.7,0.2l1.7-0.4l-1-1.9C286,394.2,285.7,394.1,285.5,394.1
					z"/>
			</g>
			<g>
				<path class="st7" d="M286.5,399c-0.2-0.4-0.2-0.6-0.5-0.7l-4.1-0.8l-0.2,0.4l2.7,2.4c0.1,0.1,0.3,0.2,0.5,0.3l2.3,0.2l-0.6-1.5
					C286.5,399.1,286.5,399,286.5,399z"/>
			</g>
			<g>
				<path class="st7" d="M238.9,372L238.9,372l3.1,1.6l0.3-0.3l-1.8-3.2c-0.2-0.3-0.4-0.3-0.9-0.4c-0.1,0-0.1,0-0.2,0l-1.6-0.1
					l0.6,2.1C238.5,371.7,238.6,371.9,238.9,372z"/>
			</g>
			<g>
				<path class="st7" d="M240.9,377.4l-1.6,0.6l1.1,1.4c0.2,0.3,0.5,0.4,0.8,0.4l2.5-0.2l0.1-0.5l-2.1-1.5
					C241.6,377.3,241.2,377.3,240.9,377.4z"/>
			</g>
			<g>
				<path class="st7" d="M232.6,404.4l0.1,1.6l2.4-1.2c0.3-0.1,0.5-0.4,0.5-0.7l0.6-2.4l-0.5-0.3l-2.7,2.1
					C232.7,403.7,232.6,404.1,232.6,404.4z"/>
			</g>
			<g>
				<path class="st7" d="M243.7,384.8l-2.3-1.5c-0.3-0.2-0.6-0.1-0.9,0l-1.5,0.9l1.3,1c0.2,0.2,0.4,0.2,0.7,0.2l2.7-0.2V384.8z"/>
			</g>
			<g>
				<path class="st7" d="M244.1,381.4l-2.8-1c-0.3-0.1-0.5-0.1-1,0.1l-1,0.5l0.9,1c0.2,0.3,0.6,0.5,1,0.4l2.9-0.5L244.1,381.4z"/>
			</g>
			<g>
				<path class="st7" d="M245.8,385.3h-1.2l0.3,1c0.1,0.2,0.2,0.3,0.4,0.5l1.8,1.1l0.2-0.3l-0.8-1.9
					C246.4,385.5,246.1,385.3,245.8,385.3z"/>
			</g>
			<g>
				<path class="st7" d="M242.6,371.7l1.9,2l0.4-0.2l-0.5-3.3c-0.1-0.5-0.5-0.8-1-0.8h-1.1v1.6C242.3,371.3,242.4,371.6,242.6,371.7
					z"/>
			</g>
			<g>
				<path class="st7" d="M238.4,390.1l-1,1.5l1.6,0.5c0.3,0.1,0.7,0,1-0.2l2.2-1.9l-0.2-0.5l-2.8,0.2
					C238.8,389.7,238.5,389.8,238.4,390.1z"/>
			</g>
			<g>
				<path class="st7" d="M247.6,382.6l-1.9-0.3c-0.4-0.1-0.8,0.1-1,0.5l-0.6,1l1.3,0.4c0.3,0.1,0.5,0,0.8-0.1l1.6-1L247.6,382.6z"/>
			</g>
			<g>
				<path class="st7" d="M242.3,386.5l-2.6-0.3c-0.3,0-0.6,0.1-0.8,0.3l-1.1,1.3l1.6,0.7c0.3,0.1,0.7,0.1,0.9-0.1l2-1.4L242.3,386.5
					z"/>
			</g>
			<g>
				<path class="st7" d="M239.6,373.8l-1.4,0.4l0.3,1c0.1,0.4,0.4,0.7,0.7,0.7l3.2,0.7l0.2-0.4l-2-2.1
					C240.3,373.9,239.9,373.8,239.6,373.8z"/>
			</g>
			<g>
				<path class="st7" d="M234.6,392.3l2.4-2.9l-0.4-0.3l-2.7,0.7c-0.3,0.1-0.6,0.3-0.6,0.6l-0.7,2l1.1,0.3
					C234,392.7,234.4,392.6,234.6,392.3z"/>
			</g>
			<g>
				<path class="st7" d="M235.2,396.1l1.2-2.7L236,393l-2.7,1.5c-0.3,0.2-0.5,0.5-0.5,0.8l-0.1,1.8l2-0.5
					C234.8,396.6,235.1,396.4,235.2,396.1z"/>
			</g>
			<g>
				<path class="st7" d="M235.1,388.3l2.9-2.8l-0.3-0.5l-3.3,0.7c-0.3,0.1-0.5,0.2-0.6,0.4l-1.1,1.6l1.3,0.7
					C234.3,388.6,234.8,388.6,235.1,388.3z"/>
			</g>
			<g>
				<path class="st7" d="M235,400.6l1.7-3l-0.4-0.4l-2.8,1.2c-0.3,0.1-0.6,0.4-0.6,0.8l-0.2,1.6l1.3,0.3
					C234.3,401.2,234.8,401,235,400.6z"/>
			</g>
			<g>
				<path class="st7" d="M233.8,372.3l3.5,0.7l0.2-0.4l-2.5-2.9c-0.3-0.3-0.8-0.4-1.1-0.2l-1.3,0.7l0.4,1.4
					C233.1,372,233.4,372.3,233.8,372.3z"/>
			</g>
			<g>
				<path class="st7" d="M243.7,375l0.2,1.8c0,0.4,0.3,0.7,0.7,0.8l2.5,1.1l0.3-0.4l-2.1-3c-0.2-0.3-0.5-0.5-0.9-0.4L243.7,375z"/>
			</g>
			<g>
				<path class="st7" d="M234.4,377.1l3.7,0.1l0.2-0.4l-2.9-2.2c-0.3-0.2-0.8-0.3-1.1,0l-1.7,1.1l1.1,1.1
					C233.9,377,234.1,377.1,234.4,377.1z"/>
			</g>
			<g>
				<path class="st7" d="M235.7,381l3.1-1.2v-0.5l-3.6-1.3c-0.3-0.1-0.7,0-1,0.2l-1.6,1.4l2.2,1.3
					C235.1,381.1,235.4,381.1,235.7,381z"/>
			</g>
			<g>
				<path class="st7" d="M235.2,384.3l2.8-1.5l-0.1-0.6l-3.6-0.3c-0.4,0-0.7,0.1-0.9,0.4l-0.8,1.2l1.7,0.7
					C234.6,384.4,234.9,384.4,235.2,384.3z"/>
			</g>
		</g>
		<g>
			<path class="st7" d="M295.2,417.6h-70.8v-56.3h70.8V417.6z M225.3,416.8h69.2v-54.7h-69.2V416.8z"/>
		</g>
		<g>
			<g>
				<path class="st7" d="M439.3,379.8h0.3v-9.5h-1.2v6.8l-6.4-6.9h-0.3v9.5h1.2v-6.8L439.3,379.8z M427.5,379.8h0.3v-9.5h-1.2v6.8
					l-6.4-6.9h-0.3v9.5h1.2v-6.8L427.5,379.8z M426.6,394.5h4.9v-1.1h-3.7V390h3.5v-1h-3.5v-2.8h3.7v-1.1h-4.9V394.5z M412,375.9
					l1.4-3.3l1.4,3.3H412z M409,379.7h1.2l1.3-2.8h3.8l1.3,2.8h1.3l-4.3-9.5h-0.3L409,379.7z M438.3,408.7h4.9v-1.1h-3.7v-3.4h3.5
					v-1.1h-3.5v-2.8h3.7v-1.1h-4.9V408.7z M420.2,394.5h1.2v-8.4h2.9V385h-7v1.1h2.9V394.5z M396.9,379.7h1.2v-6.8l3.8,4l3.8-4v6.8
					h1.2v-9.5h-0.3l-4.7,5l-4.7-5h-0.3V379.7z M431.6,409c1.3,0,2.4-0.4,3.2-1.2v-1.4h-0.1c-0.6,0.9-1.6,1.5-3.1,1.5
					c-2.1,0-3.7-1.7-3.7-4c0-2.2,1.6-3.9,3.7-3.9c1.3,0,2.5,0.6,3.1,1.5h0.1v-1.4c-0.8-0.7-1.9-1.1-3.2-1.1c-2.8,0-4.9,2.1-4.9,4.9
					C426.7,406.8,428.9,409,431.6,409z M410.9,394.6c2.1,0,4.1-1.1,4.1-4.2V385h-1.2v5.8c0,1.8-1.4,2.7-2.9,2.7
					c-1.4,0-2.9-0.9-2.9-2.7V385h-1.2v5.4C406.8,393.5,408.9,394.6,410.9,394.6z M423.3,408.8h0.3v-9.5h-1.2v6.8l-6.4-6.9h-0.3v9.5
					h1.2V402L423.3,408.8z M386.8,379.7h7v-1.1h-4.9l5.4-8.4h-6.9v1.1h4.9L386.8,379.7z M400.4,394.5h1.2v-8.4h2.9V385h-7v1.1h2.9
					V394.5z M383.1,379.7h1.2v-9.4h-1.2V379.7z M406.9,408.7h4.9v-1.1h-3.7v-3.4h3.5v-1.1h-3.5v-2.8h3.7v-1.1h-4.9V408.7z
					 M393.5,394.5h1.2V385h-1.2V394.5z M374.9,379.7h4.9v-1.1h-3.7v-3.4h3.5v-1.1h-3.5v-2.8h3.7v-1.1h-4.9V379.7z M401.8,408.7h1.2
					v-9.4h-1.2V408.7z M386.4,394.5h1.2v-8.4h2.9V385h-7v1.1h2.9V394.5z M363.2,379.8h0.3l1.9-3.6l2,3.6h0.3l5.6-9.5h-1.4l-4.3,7.5
					l-1.5-2.8l2.6-4.8h-1.4l-1.9,3.5l-1.8-3.5h-1.4l2.6,4.8l-1.5,2.8l-4.3-7.5h-1.4L363.2,379.8z M395.1,409c1.3,0,2.4-0.4,3.2-1.2
					v-1.4h-0.1c-0.6,0.9-1.6,1.5-3.1,1.5c-2.1,0-3.7-1.7-3.7-4c0-2.2,1.6-3.9,3.7-3.9c1.3,0,2.5,0.6,3.1,1.5h0.1v-1.4
					c-0.8-0.7-1.9-1.1-3.2-1.1c-2.8,0-4.9,2.1-4.9,4.9C390.2,406.8,392.3,409,395.1,409z M378.5,394.7c1.6,0,3.1-0.9,3.1-2.7
					c0-1.6-0.8-2.4-2.8-3.2c-1-0.4-1.5-1.1-1.5-1.7s0.5-1.2,1.3-1.2c0.5,0,1.2,0.2,1.6,1.1l1-0.6c-0.7-1.1-1.6-1.6-2.5-1.6
					c-1.5,0-2.7,0.8-2.7,2.3c0,0.9,0.6,1.9,2.4,2.7c1.6,0.7,1.9,1.2,1.9,2.2s-0.7,1.6-1.8,1.6c-0.7,0-1.6-0.5-2.2-1.6l-1,0.5
					C375.9,393.9,377.2,394.7,378.5,394.7z M384.9,408.9c1.6,0,3.1-0.9,3.1-2.7c0-1.6-0.7-2.4-2.8-3.2c-1-0.4-1.5-1.1-1.5-1.7
					s0.5-1.1,1.3-1.1c0.5,0,1.2,0.2,1.6,1l1-0.6c-0.7-1.1-1.6-1.5-2.5-1.5c-1.5,0-2.6,0.8-2.6,2.3c0,1,0.6,1.9,2.3,2.7
					c1.6,0.7,1.9,1.2,1.9,2.2c0,0.9-0.7,1.6-1.8,1.6c-0.7,0-1.6-0.5-2.2-1.6l-1,0.5C382.2,408.1,383.5,408.9,384.9,408.9z
					 M372.1,394.6h0.3V385h-1.2v6.8l-6.4-6.9h-0.3v9.6h1.2v-6.8L372.1,394.6z M359.4,394.5h1.2V385h-1.2V394.5z M371.4,408.7h1.2
					v-4.5h3.3v-1.1h-3.3v-2.8h3.7v-1.1h-4.9L371.4,408.7L371.4,408.7z M363.8,407.9c-2.2,0-3.9-1.7-3.9-4c0-2.2,1.7-3.9,3.9-3.9
					c2.2,0,3.8,1.7,3.8,3.9C367.7,406.1,366,407.9,363.8,407.9z M363.8,409c2.9,0,5.1-2.2,5.1-5.1c0-2.8-2.2-4.9-5.1-4.9
					s-5.1,2.1-5.1,4.9C358.7,406.8,360.9,409,363.8,409z"/>
			</g>
			<g>
				<path class="st7" d="M474.5,417.6H349.1v-56.3h125.4V417.6z M349.9,416.8h123.8v-54.7H349.9L349.9,416.8L349.9,416.8z"/>
			</g>
		</g>
		<g>
			<g>
				<path class="st7" d="M304.7,388.2l-0.2,7.2l2,1.7h0.3l-1.3-8.7c0-0.2,0-0.6,0.4-1l1.5-1.7l-2.7-2.3H304l-1.1,1.3l2.3,2
					c0.3,0.2,0.3,0.6,0.1,0.9L304.7,388.2z M327.3,380.8h12.4l1.4-2.4v-6.3c0-1-0.8-1.8-2.1-1.8h-4.1l-1.2,1.4
					c-0.4,0.5-1.1,0.4-1.6,0.1l-2.5-2.1H329l-1.1,1.3l3.1,2.6c0.4,0.3,0.4,0.8,0,1.2l-0.8,0.9l0.4,0.3l2.8-3.3
					c0.3-0.3,0.7-0.6,1.4-0.6h3.2c0.7,0,1.1,0.3,1.2,0.9l0.8,4.4c0.1,0.5,0,0.9-0.2,1.1c-0.4,0.5-1.3,0.6-2.4,0.6h-9.6l-0.7,1.4v0.3
					H327.3z M338.7,395h0.4l1.7-0.8l-1.2-5.7c-0.1-0.2,0.1-0.6,0.4-1l1.5-1.7l-2.8-2.3h-0.6l-1.1,1.3l2.4,2c0.3,0.2,0.3,0.6,0.1,0.9
					l-0.5,0.6L338.7,395z M333,389.3l3.1-3.6l-2.6-2.3H333l-1.2,1.3l2,1.7c0.4,0.3,0.4,0.8,0,1.2l-1.2,1.3L333,389.3z M313.1,380.8
					h12.2l1.2-2.4v-6.7c0-0.8-0.7-1.3-1.7-1.3h-8.4c-0.3,0-0.6-0.2-0.8-0.4l-0.3-0.2h-0.5l-1.1,1.3l1.4,1.2h8.8
					c0.5,0,0.7,0.2,0.8,0.6l0.7,4.6c0.1,0.5,0,0.8-0.2,1.1c-0.4,0.5-1.3,0.6-2.3,0.6h-9.1L313.1,380.8L313.1,380.8z M320.4,394.8
					h9.1l0.7-1.5c0.2-0.4,0.1-0.7-0.3-1l-2-1.6c-0.4-0.3-0.5-0.9-0.2-1.2l3.2-3.7l-2.7-2.3h-0.6l-1.1,1.3l2.1,1.7
					c0.4,0.3,0.4,0.8,0,1.2l-1.8,2.1l-2.3-1.7c-0.3-0.2-0.3-0.6-0.1-0.8l1.3-1.5l-2.7-2.3h-0.6l-1.1,1.3l2.3,1.9
					c0.3,0.3,0.3,0.6,0,0.9l-0.5,0.7l4.7,4.3c0.2,0.1,0.1,0.4-0.2,0.4h-6.5l-0.7,1.4L320.4,394.8L320.4,394.8z M309.8,381.1h0.4
					l1.7-0.8l-1.2-5.7c-0.1-0.3,0.2-0.7,0.4-1l1.5-1.7l-2.8-2.3h-0.6l-1.1,1.3l2.4,2c0.3,0.3,0.3,0.6,0.1,0.9l-0.5,0.6L309.8,381.1z
					 M306.4,383.1h0.3l-1.3-8.5c0-0.2,0-0.6,0.4-1l1.5-1.7l-2.8-2.3H304l-1.1,1.3l2.4,2c0.3,0.2,0.3,0.6,0.1,0.9l-0.6,0.6l-0.2,7
					L306.4,383.1z M307.5,394.8h10.9l1.2-2.4V386c0-1-0.8-1.8-2.1-1.8h-2.3l-1.3,1.5c-0.4,0.4-1.1,0.5-1.5,0.1l-2.5-2.1h-0.7
					l-1.1,1.2l3.1,2.6c0.4,0.3,0.5,0.8,0.1,1.2l-0.8,0.9l0.4,0.3l2.8-3.3c0.2-0.3,0.7-0.6,1.5-0.6h1.7c0.7,0,0.9,0.4,1.1,1.1
					l0.7,4.4c0.1,0.5,0,0.8-0.1,1c-0.4,0.6-1.3,0.7-2.1,0.7h-8.2l-0.7,1.4v0.2H307.5z M319.4,408.7h11.5l1.2-2.4v-6.4
					c0-1-0.8-1.8-2.1-1.8h-2l-1.3,1.5c-0.4,0.4-1.1,0.5-1.5,0.1l-2.5-2.1h-0.6l-1.1,1.3l2.9,2.5c0.4,0.3,0.5,0.8,0.1,1.3l-0.8,0.9
					l0.4,0.3l2.8-3.2c0.2-0.3,0.8-0.6,1.5-0.6h1.3c0.7,0,1,0.2,1.1,0.8l0.8,4.6c0.1,0.5,0,0.8-0.2,1.1c-0.4,0.5-1.3,0.6-2.4,0.6
					h-8.4l-0.7,1.4L319.4,408.7L319.4,408.7z M316,409h0.4l1.7-0.8l-1.1-5c-0.2-0.9,0-1.3,0.9-2.2c0.4-0.4,0.9-0.8,1.8-1.4v-0.7
					c0-0.6-0.2-0.9-0.9-0.9h-7.7c-0.4,0-0.6-0.1-0.9-0.3l-0.3-0.2h-0.5l-1.1,1.3l1.3,1.1h7.5c0.5,0,0.7,0.2,0.7,0.5
					c0,0.2-0.1,0.3-0.2,0.4l-1.4,1.4L316,409z M303.1,409.2c3.1-0.8,6-2,7.8-4.4c0.3-0.7,0.6-1.8,0.8-3.2l-0.3-0.3
					c-0.4,1.2-1.5,2.8-2.3,3.3c-0.3,0.2-0.6,0.2-0.9-0.1l-2-2.1c-0.2-0.2-0.3-0.4-0.3-0.6s0.1-0.4,0.3-0.6l1.2-1.4l-2.8-2.4H304
					l-1.1,1.3l2.4,2c0.3,0.2,0.3,0.6,0.1,0.9l-0.6,0.6l2.2,3.6c-0.7,0.4-2.1,0.9-3.1,1.1l-1,2L303.1,409.2z M332.9,409
					c4-1,7-2.8,8.1-5v-5c0-0.5-0.6-1-1.3-1h-3.9c-0.8,0-1.1-0.2-1.2-0.6l-0.3-1.5c-0.1-0.2,0.1-0.6,0.4-1l1.5-1.7l-2.4-2.1h-0.5
					l-1.2,1.3l2,1.7c0.2,0.1,0.2,0.3,0.2,0.5c0,0.1-0.1,0.3-0.2,0.4l-0.5,0.6v3.6c0.3,0.3,0.6,0.5,1.2,0.5h3.9
					c0.3,0,0.6,0.2,0.6,0.5l0.5,2.8c0.1,0.5,0,0.7-0.2,0.9c-1.3,1.2-3.4,2-6.1,2.7l-1,2L332.9,409z"/>
			</g>
			<g>
				<path class="st7" d="M349.9,417.6h-55.4v-56.3h55.4V417.6z M295.2,416.8H349v-54.7h-53.8V416.8z"/>
			</g>
		</g>
	</g>
	<rect x="204.7" y="282" class="st8" width="28.4" height="89.7"/>
</g>
</svg>
