<?xml version="1.0" encoding="utf-8"?>
<!-- Generator: Adobe Illustrator 25.0.1, SVG Export Plug-In . SVG Version: 6.00 Build 0)  -->
<svg version="1.1"
	 id="svg927" inkscape:version="1.1.2 (b8e25be8, 2022-02-05)" sodipodi:docname="logo.svg" xmlns:inkscape="http://www.inkscape.org/namespaces/inkscape" xmlns:sodipodi="http://sodipodi.sourceforge.net/DTD/sodipodi-0.dtd" xmlns:svg="http://www.w3.org/2000/svg"
	 xmlns="http://www.w3.org/2000/svg" xmlns:xlink="http://www.w3.org/1999/xlink" x="0px" y="0px" viewBox="0 0 700 700"
	 style="enable-background:new 0 0 700 700;" xml:space="preserve">
<style type="text/css">
	.st0{opacity:0.53;enable-background:new    ;}
	.st1{fill:none;stroke:#696969;stroke-miterlimit:10;}
	.st2{opacity:0.5;enable-background:new    ;}
	.st3{fill:#E9F0FF;}
	.st4{enable-background:new    ;}
	.st5{fill:#6D6F76;}
	.st6{fill:#4A555F;}
	.st7{fill:#E0E0E0;}
	.st8{fill:none;}
	.st9{fill:#E79D82;}
	.st10{opacity:0.31;fill:none;stroke:#005537;stroke-width:1.5;stroke-miterlimit:10;enable-background:new    ;}
	.st11{fill:none;stroke:#0069AA;stroke-miterlimit:10;}
	.st12{fill:none;stroke:#0069AA;stroke-width:2;stroke-linecap:round;stroke-miterlimit:10;}
</style>
<sodipodi:namedview  bordercolor="#666666" borderopacity="1.0" id="namedview929" inkscape:current-layer="g2932" inkscape:cx="182.5" inkscape:cy="723" inkscape:document-units="pt" inkscape:pagecheckerboard="0" inkscape:pageopacity="0.0" inkscape:pageshadow="2" inkscape:window-height="1312" inkscape:window-maximized="0" inkscape:window-width="2560" inkscape:window-x="0" inkscape:window-y="25" inkscape:zoom="1" pagecolor="#ffffff" showgrid="false">
	</sodipodi:namedview>
<defs>
	
		<inkscape:path-effect  apply_no_weight="true" apply_with_weight="true" effect="bspline" helper_size="0" id="path-effect115563" is_visible="true" lpeversion="1" only_selected="false" steps="2" weight="33.333333">
		</inkscape:path-effect>
	
		<inkscape:path-effect  apply_no_weight="true" apply_with_weight="true" effect="bspline" helper_size="0" id="path-effect44124" is_visible="true" lpeversion="1" only_selected="false" steps="2" weight="33.333333">
		</inkscape:path-effect>
	<inkscape:path-effect  effect="spiro" id="path-effect7052" is_visible="true" lpeversion="1"></inkscape:path-effect>
</defs>
<g id="g191976" inkscape:export-filename="/Users/dong/Desktop/logo2.png" inkscape:export-xdpi="600" inkscape:export-ydpi="600">
	<g id="g191947">
	</g>
</g>
<g>
	<g>
		<g>
			<g class="st0">
				
					<image style="overflow:visible;enable-background:new    ;" width="228" height="176" xlink:href="3B127C4CBA502C0E.png"  transform="matrix(1 0 0 1 196 75.5)">
				</image>
			</g>
			<g>
				<g>
					<g>
						<line class="st1" x1="330.3" y1="123" x2="382.4" y2="97.3"/>
					</g>
					<g class="st2">
						<path class="st3" d="M205.3,127.4c0-2.8,1.9-6.1,4.3-7.5l53.7-31c2.4-1.4,6.3-1.4,8.7,0l53.8,31c2.4,1.4,4.3,4.7,4.3,7.5v62.1
							c0,2.8-1.9,6.1-4.3,7.5L272,228.1c-2.4,1.4-6.3,1.4-8.7,0L209.6,197c-2.4-1.4-4.3-4.8-4.3-7.5L205.3,127.4L205.3,127.4z"/>
					</g>
					<g class="st4">
						<g>
							<path class="st5" d="M392.9,93.7c0,0.7-0.1,1.4-0.3,1.9c-0.2,0.6-0.5,1-0.9,1.4s-0.8,0.7-1.4,0.8c-0.5,0.2-1.1,0.3-1.7,0.3
								s-1.2-0.1-1.7-0.3c-0.5-0.2-1-0.5-1.4-0.8c-0.4-0.4-0.7-0.8-0.9-1.4c-0.2-0.6-0.3-1.2-0.3-1.9s0.1-1.3,0.3-1.9
								c0.2-0.5,0.5-1,0.9-1.4s0.8-0.7,1.4-0.8c0.5-0.2,1.1-0.3,1.7-0.3s1.2,0.1,1.7,0.3c0.5,0.2,1,0.5,1.4,0.8
								c0.4,0.4,0.7,0.8,0.9,1.4S392.9,93,392.9,93.7z M390.6,93.7c0-0.9-0.2-1.5-0.6-2c-0.4-0.4-0.9-0.7-1.5-0.7s-1.1,0.2-1.5,0.7
								c-0.4,0.4-0.6,1.1-0.6,2s0.2,1.6,0.6,2s0.9,0.7,1.5,0.7s1.1-0.2,1.5-0.7C390.5,95.2,390.6,94.6,390.6,93.7z"/>
							<path class="st5" d="M396.1,97.9c-0.2,0-0.4,0-0.6,0c-0.4,0-0.7-0.1-0.9-0.2c-0.2-0.1-0.2-0.1-0.2-0.1c0-0.4-0.1-2.3-0.1-4.4
								s0.1-3.7,0.2-3.8c0,0,0,0,0.2,0s0.4,0,0.6,0c0.4,0,0.7,0.1,0.9,0.2c0.2,0.1,0.2,0.1,0.2,0.1c0.1,0.4,0.1,1.2,0.1,1.9
								s0.7,1.2,1.5,1.2s1.5-0.8,1.5-1.7s0.1-1.7,0.2-1.7c0,0,0,0,0.2,0s0.4,0,0.6,0c0.4,0,0.7,0.1,0.9,0.2c0.2,0.1,0.2,0.1,0.2,0.1
								c0.1,0.4,0.1,2.4,0.1,4.4s-0.1,3.7-0.2,3.8c0,0,0,0-0.2,0s-0.4,0-0.6,0c-0.4,0-0.7-0.1-0.9-0.2c-0.2-0.1-0.2-0.1-0.2-0.1
								c0-0.4-0.1-1.2-0.1-1.9s-0.7-1.2-1.5-1.2s-1.5,0.7-1.5,1.7s-0.1,1.7-0.2,1.7C396.3,97.9,396.3,97.9,396.1,97.9z"/>
						</g>
					</g>
					<g>
						<line class="st1" x1="209.4" y1="126.5" x2="209.4" y2="190.5"/>
					</g>
					<g>
						<path class="st1" d="M205.5,127.4c0-2.8,1.9-6.1,4.3-7.5l53.8-31c2.4-1.4,6.3-1.4,8.7,0l53.7,31c2.4,1.4,4.3,4.7,4.3,7.5v62.1
							c0,2.8-1.9,6.1-4.3,7.5l-53.7,31.1c-2.4,1.4-6.3,1.4-8.7,0L209.8,197c-2.4-1.4-4.3-4.8-4.3-7.5V127.4z"/>
					</g>
					<g>
						<line class="st1" x1="269.7" y1="224.8" x2="325.2" y2="192.7"/>
					</g>
					<g>
						<line class="st1" x1="268.9" y1="90.6" x2="324.4" y2="122.7"/>
					</g>
				</g>
			</g>
		</g>
	</g>
	<g>
		<path id="path142763" class="st6" d="M277.2,200.2h-20.6v-27h20.6V200.2z M257.1,199.7h19.8v-26.2h-19.8V199.7L257.1,199.7z"/>
		<path id="path142765" class="st6" d="M281.6,196.2h-4.8v-22.7H261v-4.4h20.6L281.6,196.2L281.6,196.2z M277.2,195.7h3.9v-26.2
			h-19.7v3.6h15.8L277.2,195.7L277.2,195.7z"/>
		<path id="path142767" class="st7" d="M277.8,195.2v-22.7H262v-2.6h18.8v25.3H277.8L277.8,195.2z"/>
		<path id="path142769" class="st7" d="M259.5,177.3h7v7.7h-7V177.3z"/>
		<path id="path142771" class="st6" d="M268.6,177.1h5.9v0.5h-5.9V177.1z M268.6,179.5h5.9v0.5h-5.9V179.5z M268.6,182h5.9v0.5h-5.9
			V182z M268.6,184.5h5.9v0.5h-5.9V184.5z M259.5,187h14.8v0.5h-14.8V187z M259.5,193.4h14.8v0.5h-14.8V193.4z M259.5,195.6h14.8
			v0.5h-14.8V195.6z"/>
	</g>
	<rect x="173.3" y="116.3" class="st8" width="9.4" height="80.5"/>
	<g>
		<g>
			<g>
				<g class="st4">
					<path class="st9" d="M356.3,138.4c-0.1-1.2-0.1-2.7-0.1-4.2l0,0c-0.3,1.3-0.7,2.7-1.2,3.9l-1.2,3.9h-1.7l-1.1-3.9
						c-0.3-1.2-0.7-2.7-0.9-4l0,0c-0.1,1.4-0.1,2.9-0.2,4.2l-0.2,3.8h-2.1l0.7-10.1h3.1l1,3.4c0.3,1.2,0.7,2.4,0.8,3.6h0.1
						c0.2-1.2,0.6-2.5,1-3.7l1.1-3.3h3l0.6,10.1h-2.5L356.3,138.4z"/>
				</g>
			</g>
			<g class="st4">
				<path class="st5" d="M364.8,141c-0.7,1.1-1.7,1.3-2.2,1.3c-1.7,0-2.7-1.2-2.7-2.7c0-0.8,0.4-1.7,0.9-2.2
					c0.6-0.6,1.2-0.9,1.9-0.9c1.2,0,2.1,1,2.1,2c0,0.2,0,0.4-0.2,0.5s-2,0.2-3.2,0.2c0.1,1.3,0.7,2,1.7,2c0.5,0,1-0.2,1.4-0.6
					L364.8,141z M362.5,137.1c-0.5,0-0.9,0.6-1,1.6c0.5,0,1,0,1.5,0c0.2,0,0.2,0,0.2-0.2C363.3,137.8,363,137.1,362.5,137.1z"/>
				<path class="st5" d="M368.3,142.2c-0.2,0.1-0.4,0.2-0.5,0.2c-1,0-1.5-0.4-1.5-1.6v-3.5h-0.8l-0.1-0.2l0.3-0.5h0.5v-1
					c0.4-0.3,1-0.7,1.5-1l0.2,0.1c0,0.3,0,1,0,1.9h1.2c0.1,0.1,0.1,0.5-0.1,0.7h-1.2v3.1c0,1,0.4,1.1,0.7,1.1c0.2,0,0.4,0,0.6-0.1
					l0.2,0.4L368.3,142.2z"/>
				<path class="st5" d="M373.9,142.4c-0.3,0-0.6-0.1-0.7-0.2c-0.2-0.2-0.2-0.3-0.3-0.5c-0.5,0.3-1.1,0.7-1.3,0.7
					c-1.1,0-1.7-0.8-1.7-1.6c0-0.7,0.3-1,1-1.2s1.7-0.6,2-0.8v-0.6c0-0.7-0.2-1-0.7-1c-0.2,0-0.4,0.1-0.5,0.2
					c-0.2,0.2-0.2,0.4-0.3,0.8c-0.1,0.3-0.2,0.4-0.5,0.4s-0.7-0.3-0.7-0.7c0-0.2,0.2-0.4,0.4-0.6c0.6-0.3,1.3-0.7,2-0.9
					c0.5,0,0.9,0.1,1.2,0.3c0.5,0.4,0.7,0.9,0.7,1.5v2.2c0,0.6,0.2,0.7,0.4,0.7c0.2,0,0.2,0,0.4-0.1l0.2,0.4L373.9,142.4z
					 M372.7,139.2c-0.2,0.2-0.4,0.2-0.7,0.4c-0.4,0.2-0.6,0.4-0.6,0.8c0,0.7,0.5,0.9,0.7,0.9s0.3,0,0.6-0.2
					C372.7,140.7,372.7,139.8,372.7,139.2z"/>
				<path class="st5" d="M378.2,136.8c0.3-0.2,0.7-0.2,0.9-0.2c1.5,0,2.5,1.2,2.5,2.7c0,1.7-1.5,3.2-3.2,3.2c-0.7,0-1.3-0.2-2.2-0.4
					c0-0.3,0-0.7,0-1v-5.7c0-0.7-0.1-0.8-0.7-0.8v-0.4c0.7-0.1,1.7-0.2,2.4-0.4c0,0.4,0,0.9,0,1.3v2.2L378.2,136.8z M377.7,140.8
					c0,0.2,0,0.3,0.1,0.4c0.1,0.2,0.4,0.6,0.9,0.6c0.7,0,1.2-0.7,1.2-2.2c0-1.6-0.7-2.2-1.5-2.2c-0.2,0-0.4,0-0.6,0.1L377.7,140.8
					L377.7,140.8z"/>
				<path class="st5" d="M385.4,136.6c1.7,0,2.8,1.3,2.8,2.8c0,2-1.4,3-2.9,3c-1.9,0-3-1.4-3-2.9C382.4,137.6,384,136.6,385.4,136.6
					z M385.3,137.1c-0.5,0-1.1,0.6-1.1,2.1c0,1.6,0.5,2.7,1.3,2.7c0.5,0,1-0.3,1-2.2C386.4,138,386,137.1,385.3,137.1z"/>
				<path class="st5" d="M388.9,142.2v-0.4c0.7-0.1,0.7-0.2,0.7-1v-5.6c0-0.7-0.1-0.7-0.7-0.8V134c0.8-0.1,1.7-0.2,2.3-0.4
					c0,0.6,0,1.2,0,1.7v5.6c0,0.8,0,0.9,0.7,1v0.4h-3V142.2z"/>
				<path class="st5" d="M392.6,142.2v-0.4c0.7-0.1,0.7-0.2,0.7-1v-2.4c0-0.8-0.1-0.9-0.7-1V137c0.7-0.1,1.6-0.2,2.2-0.4
					c0,0.5,0,1,0,1.6v2.7c0,0.8,0.1,0.9,0.7,1v0.4L392.6,142.2L392.6,142.2z M394,135.8c-0.5,0-0.9-0.4-0.9-0.9s0.4-0.9,0.9-0.9
					s0.9,0.3,0.9,0.9C394.9,135.3,394.5,135.8,394,135.8z"/>
				<path class="st5" d="M401.1,141c-0.6,0.8-1.4,1.3-2.2,1.3c-1.7,0-2.7-1.3-2.7-2.7c0-0.9,0.5-1.8,1.2-2.4
					c0.8-0.6,1.6-0.7,2.2-0.7c0.5,0,0.8,0.2,1.1,0.3c0.2,0.2,0.2,0.2,0.2,0.5s-0.3,0.7-0.6,0.7c-0.1,0-0.2,0-0.2-0.2
					c-0.5-0.4-1-0.7-1.3-0.7c-0.5,0-1.1,0.5-1.1,1.8c0,1.7,1.2,2.2,1.7,2.2s0.9-0.2,1.3-0.5L401.1,141z"/>
				<path class="st5" d="M408,134.1c1,0,1.7,0.2,2.2,0.5c0.7,0.4,1,1,1,1.8c0,1.8-1.5,2.6-2.8,2.6c-0.2,0-0.2,0-0.4,0l-0.7-0.2v1.7
					c0,1.1,0.1,1.1,1.2,1.2v0.5h-4v-0.5c0.9-0.1,1.1-0.2,1.1-1.2v-4.7c0-1.1-0.2-1.2-1.1-1.2v-0.5L408,134.1L408,134.1z
					 M407.3,138.3c0.2,0.1,0.4,0.2,0.7,0.2c0.6,0,1.5-0.3,1.5-2c0-1.4-0.7-1.8-1.6-1.8c-0.2,0-0.4,0.1-0.5,0.1
					c-0.1,0.1-0.1,0.2-0.1,0.4V138.3L407.3,138.3z"/>
				<path class="st5" d="M415.3,142.2H412v-0.4c0.7-0.1,0.7-0.2,0.7-0.9v-2.7c0-0.7-0.1-0.7-0.7-0.8V137c0.7-0.1,1.5-0.2,2.2-0.5
					c0,0.4,0,0.9,0,1.3c0.6-0.8,1-1.3,1.5-1.3s0.8,0.3,0.8,0.7c0,0.6-0.4,1-0.7,1.1c-0.2,0.1-0.3,0-0.4-0.1
					c-0.2-0.2-0.4-0.4-0.6-0.4s-0.5,0.2-0.7,0.7v2.4c0,0.7,0.1,0.7,1,0.9L415.3,142.2L415.3,142.2z"/>
				<path class="st5" d="M420.1,136.6c1.7,0,2.8,1.3,2.8,2.8c0,2-1.4,3-2.9,3c-1.9,0-3-1.4-3-2.9
					C417.1,137.6,418.7,136.6,420.1,136.6z M419.9,137.1c-0.5,0-1.1,0.6-1.1,2.1c0,1.6,0.5,2.7,1.3,2.7c0.5,0,1-0.3,1-2.2
					C421.2,138,420.7,137.1,419.9,137.1z"/>
				<path class="st5" d="M427.4,142.2v-0.4c0.6-0.1,0.7-0.2,0.7-0.9v-2.7c0-0.7,0-0.8-0.7-0.8h-1.3v3.6c0,0.7,0.2,0.7,0.7,0.9v0.4
					h-3.1v-0.4c0.7-0.1,0.7-0.2,0.7-0.9v-3.6h-0.8l-0.1-0.2l0.3-0.5h0.6c0-1,0.5-1.9,1.2-2.5c0.6-0.4,1.3-0.7,1.9-0.7
					c0.8,0,1.3,0.2,1.7,0.6c0.2,0.2,0.2,0.3,0.2,0.5s-0.2,0.6-0.5,0.7c-0.2,0.2-0.5,0.1-0.7-0.1c-0.2-0.2-0.7-0.9-1.5-0.9
					c-0.3,0-0.5,0.2-0.7,0.6c-0.1,0.3-0.2,1.1-0.2,1.6v0.2h1.2c0.6,0,1.7,0,2.3-0.2v4.3c0,0.7,0.1,0.8,0.8,0.9v0.4L427.4,142.2
					L427.4,142.2z"/>
				<path class="st5" d="M430.9,142.2v-0.4c0.7-0.1,0.7-0.2,0.7-1v-5.6c0-0.7-0.1-0.7-0.7-0.8V134c0.8-0.1,1.7-0.2,2.3-0.4
					c0,0.6,0,1.2,0,1.7v5.6c0,0.8,0,0.9,0.7,1v0.4h-3V142.2z"/>
				<path class="st5" d="M434.5,142.2v-0.4c0.7-0.1,0.7-0.2,0.7-1v-2.4c0-0.8-0.1-0.9-0.7-1V137c0.7-0.1,1.6-0.2,2.2-0.4
					c0,0.5,0,1,0,1.6v2.7c0,0.8,0.1,0.9,0.7,1v0.4L434.5,142.2L434.5,142.2z M436,135.8c-0.5,0-0.9-0.4-0.9-0.9s0.4-0.9,0.9-0.9
					s0.9,0.3,0.9,0.9C436.9,135.3,436.4,135.8,436,135.8z"/>
				<path class="st5" d="M441.8,142.2v-0.4c0.5-0.1,0.6-0.2,0.6-1v-2.2c0-0.9-0.4-1.2-0.8-1.2c-0.3,0-0.6,0.1-0.9,0.4v3
					c0,0.7,0.1,0.8,0.6,0.9v0.4h-2.9v-0.4c0.7-0.1,0.7-0.2,0.7-0.9v-2.6c0-0.7-0.1-0.7-0.7-0.9v-0.4c0.7-0.1,1.6-0.2,2.2-0.5
					c0,0.2,0,0.6,0,0.9c0.2-0.2,0.5-0.3,0.8-0.5c0.4-0.2,0.6-0.3,1-0.3c1,0,1.7,0.7,1.7,2v2.3c0,0.7,0.1,0.8,0.7,0.9v0.4h-3
					L441.8,142.2L441.8,142.2z"/>
				<path class="st5" d="M447.2,140.3c-0.2,0.2-0.2,0.3-0.2,0.4c0,0.2,0.2,0.5,0.7,0.5c0.4,0,1,0,1.4,0c0.7,0,1.8,0.3,1.8,1.5
					c0,1.4-1.7,2.5-3.4,2.5s-2.4-0.8-2.4-1.5c0-0.3,0.1-0.5,0.4-0.7s0.7-0.4,0.9-0.7c-0.5-0.2-0.7-0.4-0.9-0.7
					c-0.2-0.2-0.2-0.5-0.2-0.7c0.6-0.2,1.1-0.6,1.3-0.9L447.2,140.3z M447.9,140.4c-1.4,0-2.3-0.7-2.3-1.9c0-1.3,1.3-2,2.4-2
					c0.5,0,0.9,0.1,1.4,0.3c0.5,0,1.4-0.1,1.7-0.2l0.1,0.1c-0.1,0.2-0.2,0.7-0.5,0.7c-0.2,0-0.6-0.1-0.7-0.1c0.2,0.2,0.3,0.6,0.3,1
					C450.2,139.7,449.1,140.4,447.9,140.4z M448,142.5c-0.7,0-0.9,0.1-1.2,0.2c-0.2,0.2-0.3,0.4-0.3,0.7c0,0.7,0.7,1.2,1.7,1.2
					s1.6-0.4,1.6-1.2c0-0.5-0.3-0.7-0.7-0.8C448.7,142.5,448.5,142.5,448,142.5z M447.9,137c-0.4,0-0.7,0.5-0.7,1.3s0.2,1.6,0.8,1.6
					c0.5,0,0.7-0.5,0.7-1.4C448.7,137.8,448.5,137,447.9,137z"/>
				<path class="st5" d="M462.8,134.6c-0.8,0.1-1,0.3-1.1,0.7c0,0.4-0.1,0.8-0.1,1.7v1.7c0,1.1-0.2,2.2-0.9,2.9
					c-0.6,0.6-1.5,0.8-2.3,0.8s-1.7-0.2-2.2-0.7c-0.7-0.6-1.1-1.3-1.1-2.7v-3.2c0-1.2-0.1-1.2-1.1-1.3V134h3.8v0.5
					c-0.9,0.1-1.1,0.2-1.1,1.3v3.3c0,1.4,0.7,2.3,2,2.3c1.5,0,2.2-1.1,2.2-3v-1.6c0-0.8,0-1.3-0.1-1.7c-0.1-0.6-0.4-0.7-1.2-0.7
					v-0.5h3.1v0.6L462.8,134.6L462.8,134.6z"/>
				<path class="st5" d="M466.8,142.2v-0.4c0.5-0.1,0.6-0.2,0.6-1v-2.2c0-0.9-0.4-1.2-0.8-1.2c-0.3,0-0.6,0.1-0.9,0.4v3
					c0,0.7,0.1,0.8,0.6,0.9v0.4h-2.9v-0.4c0.7-0.1,0.7-0.2,0.7-0.9v-2.6c0-0.7-0.1-0.7-0.7-0.9v-0.4c0.7-0.1,1.6-0.2,2.2-0.5
					c0,0.2,0,0.6,0,0.9c0.2-0.2,0.5-0.3,0.8-0.5c0.4-0.2,0.6-0.3,1-0.3c1,0,1.7,0.7,1.7,2v2.3c0,0.7,0.1,0.8,0.7,0.9v0.4h-3
					L466.8,142.2L466.8,142.2z"/>
				<path class="st5" d="M470.3,142.2v-0.4c0.7-0.1,0.7-0.2,0.7-1v-2.4c0-0.8-0.1-0.9-0.7-1V137c0.7-0.1,1.6-0.2,2.2-0.4
					c0,0.5,0,1,0,1.6v2.7c0,0.8,0.1,0.9,0.7,1v0.4L470.3,142.2L470.3,142.2z M471.8,135.8c-0.5,0-0.9-0.4-0.9-0.9s0.4-0.9,0.9-0.9
					s0.9,0.3,0.9,0.9C472.6,135.3,472.3,135.8,471.8,135.8z"/>
				<path class="st5" d="M476.7,142.2c-0.2,0.1-0.4,0.2-0.5,0.2c-1,0-1.5-0.4-1.5-1.6v-3.5h-0.8l-0.1-0.2l0.3-0.5h0.5v-1
					c0.4-0.3,1-0.7,1.5-1l0.2,0.1c0,0.3,0,1,0,1.9h1.2c0.1,0.1,0.1,0.5-0.1,0.7h-1.2v3.1c0,1,0.4,1.1,0.7,1.1c0.2,0,0.4,0,0.6-0.1
					l0.2,0.4L476.7,142.2z"/>
			</g>
		</g>
		<line class="st10" x1="347.6" y1="148.6" x2="479.2" y2="148.6"/>
		<g>
			<g>
				<path class="st5" d="M373.9,162.3l-0.9,1.5l0.2,0.2l1.5-0.8c0.2-0.1,0.3-0.2,0.3-0.4l0.1-0.8h-0.7
					C374.2,162,374,162.1,373.9,162.3z"/>
			</g>
			<g>
				<path class="st5" d="M374,160.9c0.2-0.2,0.2-0.4,0.1-0.6l-0.2-0.5l-0.7,0.3c-0.2,0.1-0.3,0.3-0.3,0.4l-0.3,1.6l0.2,0.1
					L374,160.9z"/>
			</g>
			<g>
				<path class="st5" d="M369.7,161.3c0.2-0.1,0.3-0.3,0.3-0.5l0.2-0.9h-0.8c-0.2,0-0.4,0.1-0.5,0.3l0,0l-0.9,1.5l0.2,0.3
					L369.7,161.3z"/>
			</g>
			<g>
				<path class="st5" d="M376.1,160.9c0.3-0.1,0.3-0.1,0.4-0.4l0.3-0.8h-0.9c-0.2,0-0.3,0.1-0.5,0.3l-0.8,1.3l0.2,0.2L376.1,160.9z"
					/>
			</g>
			<g>
				<path class="st5" d="M380,162.1c-0.2,0-0.4,0.2-0.5,0.3l-0.7,1.5l0.2,0.2l1.5-0.8c0.2-0.1,0.3-0.3,0.3-0.5l-0.1-0.7H380z"/>
			</g>
			<g>
				<path class="st5" d="M376.3,162.2l2.2-1.4c0.2-0.1,0.3-0.3,0.2-0.5l-0.1-0.7l-1,0.3c-0.2,0-0.3,0.2-0.4,0.3L376,162L376.3,162.2
					z"/>
			</g>
			<g>
				<path class="st5" d="M372.2,161.2c0.1-0.2,0.1-0.3,0.1-0.5l-0.5-1l-0.8,0.5c-0.1,0.1-0.1,0.4-0.2,0.5l0,0l-0.2,1.8l0.3,0.1
					L372.2,161.2z"/>
			</g>
			<g>
				<path class="st5" d="M361,161.9l-0.8-0.4v1c0,0.2,0.1,0.4,0.3,0.6l1,1l0.3-0.2l-0.3-1.6C361.3,162.1,361.2,162,361,161.9z"/>
			</g>
			<g>
				<path class="st5" d="M369.1,162.9l-0.1-0.7l-0.9,0.3c-0.3,0.1-0.3,0.3-0.4,0.6l-0.5,1.1l0.2,0.2l1.4-0.7
					C369,163.6,369.1,163.5,369.1,162.9z"/>
			</g>
			<g>
				<path class="st5" d="M364.9,163.4h0.2l0.1-1c0-0.2-0.1-0.4-0.3-0.6l-0.5-0.3l-0.2,0.5c0,0.1,0,0.3,0,0.4L364.9,163.4z"/>
			</g>
			<g>
				<path class="st5" d="M360.3,160.8l1.4,0.9l0.2-0.2l-0.4-1.2c-0.1-0.2-0.2-0.3-0.4-0.4l-1-0.2l-0.1,0.5
					C360.1,160.4,360.1,160.6,360.3,160.8z"/>
			</g>
			<g>
				<path class="st5" d="M362.4,162.8l1,0.9l0.2-0.2l-0.3-1.3c0-0.2-0.2-0.3-0.3-0.3l-0.7-0.2l-0.1,0.6
					C362.1,162.5,362.2,162.7,362.4,162.8z"/>
			</g>
			<g>
				<path class="st5" d="M365.5,161.7l0.2-0.1l0.2-1.2c0-0.2-0.1-0.3-0.2-0.4l-0.5-0.4l-0.4,0.6c-0.1,0.2-0.1,0.3,0,0.5L365.5,161.7
					z"/>
			</g>
			<g>
				<path class="st5" d="M367.8,160.9c0.2-0.1,0.3-0.2,0.3-0.3v-0.8l-0.9,0.1c-0.1,0-0.3,0.1-0.3,0.3l-0.5,1.3l0.2,0.2L367.8,160.9z
					"/>
			</g>
			<g>
				<path class="st5" d="M365.7,163.8l1.2-0.6c0.2-0.1,0.3-0.3,0.3-0.5l-0.1-0.8l-0.8,0.3c-0.1,0.1-0.3,0.2-0.3,0.3l-0.5,1.1
					L365.7,163.8z"/>
			</g>
			<g>
				<path class="st5" d="M362.5,160.6l1.1,1l0.3-0.1l-0.1-1.3c0-0.2-0.2-0.4-0.4-0.4l-0.5-0.2l-0.4,0.4
					C362.3,160.3,362.4,160.5,362.5,160.6z"/>
			</g>
			<g>
				<path class="st5" d="M375.2,163.3L375.2,163.3l-0.8,1.4l0.2,0.2l1.4-0.8c0.2-0.1,0.3-0.3,0.3-0.4l0.1-0.8l-0.7,0.1
					C375.4,163,375.3,163.2,375.2,163.3z"/>
			</g>
			<g>
				<path class="st5" d="M378.6,162.6l-1,0.2c-0.1,0-0.3,0.1-0.4,0.4l-0.8,1.4l0.2,0.2l1.5-0.6c0.3-0.1,0.4-0.4,0.4-0.7L378.6,162.6
					z"/>
			</g>
			<g>
				<path class="st5" d="M378.7,161.9l1.9-0.9c0.2-0.1,0.3-0.3,0.3-0.5v-0.8l-1,0.1c-0.1,0-0.2,0.1-0.3,0.3l-1.1,1.7L378.7,161.9z"
					/>
			</g>
			<g>
				<path class="st5" d="M382.5,161.4c0.3-0.2,0.7-0.3,0.7-0.6s0-1,0-1.1l-0.9,0.1c-0.3,0-0.4,0.2-0.5,0.4l-0.6,1.5l0.2,0.2
					L382.5,161.4z"/>
			</g>
			<g>
				<path class="st5" d="M382.1,162.6l-1.2,1l0.1,0.3l1,0.1c0.1,0,0.1,0,0.2,0c0.3,0,0.6,0.1,0.8-0.2c0-0.1,0.1-0.1,0.1-0.2l0.2-0.8
					l-0.5-0.3C382.5,162.5,382.3,162.5,382.1,162.6z"/>
			</g>
			<g>
				<path class="st5" d="M356.1,161.1L356.1,161.1l1.7,0.9l0.2-0.2l-1-1.8c-0.1-0.2-0.2-0.2-0.5-0.2h-0.1l-0.9-0.1l0.3,1.2
					C355.9,161,356,161,356.1,161.1z"/>
			</g>
			<g>
				<path class="st5" d="M358.2,161l1,1.1l0.2-0.1l-0.3-1.8c-0.1-0.3-0.3-0.4-0.5-0.4H358v0.9C358.1,160.8,358.1,160.9,358.2,161z"
					/>
			</g>
			<g>
				<path class="st5" d="M356.5,162.2l-0.8,0.2l0.2,0.6c0.1,0.2,0.2,0.4,0.4,0.4l1.8,0.4l0.1-0.2l-1.1-1.2
					C356.9,162.2,356.7,162.1,356.5,162.2z"/>
			</g>
			<g>
				<path class="st5" d="M353.2,161.3l2,0.4l0.1-0.2l-1.4-1.6c-0.2-0.2-0.4-0.2-0.6-0.1l-0.7,0.4l0.3,0.8
					C352.9,161.1,353.1,161.3,353.2,161.3z"/>
			</g>
			<g>
				<path class="st5" d="M358.8,162.8l0.1,1c0,0.2,0.2,0.4,0.4,0.5l1.4,0.6l0.2-0.2l-1.2-1.7c-0.1-0.2-0.3-0.3-0.5-0.3L358.8,162.8
					L358.8,162.8z"/>
			</g>
			<g>
				<path class="st5" d="M353.6,164h2.1l0.1-0.3l-1.6-1.2c-0.2-0.1-0.4-0.2-0.6,0l-1,0.6l0.6,0.6C353.3,163.9,353.4,164,353.6,164z"
					/>
			</g>
			<g>
				<g>
					<path class="st5" d="M380.8,169.1l-0.9-0.6c-0.2-0.2-0.5-0.2-0.8-0.1l-1.3,0.4v0.3l1.6,0.6c0.3,0.1,0.6,0,0.9-0.2L380.8,169.1z
						"/>
				</g>
				<g>
					<path class="st5" d="M370,166.4c-0.1,0.1-0.2,0.3-0.1,0.4l0.1,1.1h0.2l0.7-0.9c0.1-0.2,0.2-0.4,0.1-0.6l-0.3-0.7L370,166.4z"/>
				</g>
				<g>
					<path class="st5" d="M369.5,163.6c-0.1,0.1-0.1,0.3,0,0.4l0.5,1.3h0.2l0.4-1.3c0.1-0.2,0-0.3-0.1-0.5l-0.5-0.8L369.5,163.6z"/>
				</g>
				<g>
					<path class="st5" d="M381,165.4l0.2-0.8l-0.9-0.3c-0.2-0.1-0.3,0-0.5,0.1l-1.4,1.2l0.1,0.3l2-0.1
						C380.7,165.8,380.9,165.6,381,165.4z"/>
				</g>
				<g>
					<path class="st5" d="M366.8,165.3c-0.1,0-0.1,0.1-0.2,0.2l-0.5,0.5v0.2h0.9c0.2,0,0.3-0.1,0.4-0.3l0.3-0.6l-0.6-0.1
						C367,165.3,366.9,165.3,366.8,165.3z"/>
				</g>
				<g>
					<path class="st5" d="M375.8,167.3l1.7-0.8c0.2-0.1,0.3-0.3,0.3-0.4l0.1-0.6l-1,0.1c-0.2,0-0.3,0.1-0.4,0.3l-0.9,1.3
						L375.8,167.3z"/>
				</g>
				<g>
					<path class="st5" d="M379.2,167.7l0.6-0.7l-1-0.4c-0.2-0.1-0.4-0.1-0.6,0.1l-1.4,1.1l0.1,0.2l1.9-0.1
						C378.9,167.9,379.1,167.8,379.2,167.7z"/>
				</g>
				<g>
					<path class="st5" d="M375.7,168.8c-0.1,0-0.2,0.1-0.3,0.2l-0.7,1.3l0.2,0.2l1.7-0.7c0.2-0.1,0.4-0.3,0.3-0.6l-0.1-0.8
						L375.7,168.8z"/>
				</g>
				<g>
					<path class="st5" d="M379.6,173.7c-0.1-0.1-0.3-0.2-0.5-0.1l-1.7,0.3v0.3l1.8,0.8c0.2,0.1,0.4,0.1,0.5,0l0.7-0.4L379.6,173.7z"
						/>
				</g>
				<g>
					<path class="st5" d="M372.7,163.8v-1l-0.8,0.3c-0.2,0.1-0.3,0.2-0.4,0.4l-0.5,1.7l0.2,0.1l1.2-1
						C372.6,164.2,372.7,164.1,372.7,163.8z"/>
				</g>
				<g>
					<path class="st5" d="M373.2,166.1c0.2-0.1,0.3-0.3,0.3-0.5l0.1-0.7l-0.8,0.1c-0.2,0-0.4,0.2-0.5,0.4l-0.4,1.2l0.2,0.2
						L373.2,166.1z"/>
				</g>
				<g>
					<path class="st5" d="M378.6,173.1c0.2,0.1,0.5,0,0.6-0.2l0.5-0.6l-1-0.4c-0.1-0.1-0.3-0.1-0.4,0l-1.4,0.5v0.3L378.6,173.1z"/>
				</g>
				<g>
					<path class="st5" d="M378.9,176.7l0.8-0.1l-0.3-0.6c-0.1-0.3-0.4-0.5-0.7-0.6l-1.7-0.3l-0.1,0.2l1.1,1.1
						C378.3,176.6,378.6,176.8,378.9,176.7z"/>
				</g>
				<g>
					<path class="st5" d="M378.7,178.8l1.1-0.1l-0.1-0.7c0-0.2-0.2-0.4-0.4-0.5l-2.1-0.5l-0.1,0.2l1.2,1.3
						C378.3,178.8,378.5,178.8,378.7,178.8z"/>
				</g>
				<g>
					<path class="st5" d="M373.3,166.9l0.1,0.2l1.5-0.3c0.2,0,0.3-0.2,0.4-0.3l0.4-1.1h-0.9c-0.2,0-0.3,0.1-0.4,0.2L373.3,166.9z"/>
				</g>
				<g>
					<path class="st5" d="M378.3,171.1l0.6-0.9l-1.1-0.2c-0.2,0-0.3,0-0.4,0.1l-1.4,0.8l0.1,0.2l1.7,0.2
						C378,171.4,378.2,171.3,378.3,171.1z"/>
				</g>
				<g>
					<path class="st5" d="M374.6,168.7c0.2,0,0.3-0.1,0.5-0.3l0.6-0.6l-1-0.3c-0.4-0.1-0.5-0.1-0.7,0.1l-1,0.7l0.1,0.3L374.6,168.7z
						"/>
				</g>
				<g>
					<path class="st5" d="M375.9,174.7c0.2,0,0.4,0,0.5-0.2l0.4-0.6l-0.6-0.3c-0.1-0.1-0.3-0.1-0.4,0l-1.4,0.5v0.2L375.9,174.7z"/>
				</g>
				<g>
					<path class="st5" d="M373.4,171.2l-0.3,1.3l0.2,0.2l1-0.9c0.2-0.3,0.3-0.3,0.3-0.6l-0.1-0.7c0,0-0.5,0.2-0.7,0.3
						C373.6,170.8,373.5,170.9,373.4,171.2z"/>
				</g>
				<g>
					<path class="st5" d="M375.6,172.9c0.3-0.1,0.4-0.3,0.4-0.5l-0.1-0.6l-0.8,0.1c-0.1,0-0.2,0.1-0.3,0.2l-1.1,1.2l0.1,0.2
						L375.6,172.9z"/>
				</g>
				<g>
					<path class="st5" d="M381.9,167.4l-1.5,0.6v0.3l1.7,0.6c0.2,0.1,0.5,0,0.6-0.2l0.5-0.6l-0.8-0.6
						C382.3,167.3,382.1,167.3,381.9,167.4z"/>
				</g>
				<g>
					<path class="st5" d="M372.7,174.2l-0.7,0.7l0.1,0.3l1.1-0.1c0.3,0,0.5-0.2,0.6-0.4l0.2-0.6l-0.9-0.1
						C372.9,174,372.8,174.1,372.7,174.2z"/>
				</g>
				<g>
					<path class="st5" d="M375.8,176.4l0.9-0.3l-0.5-0.6c-0.1-0.1-0.3-0.2-0.5-0.2h-1.5l-0.1,0.2l1.1,0.8
						C375.4,176.5,375.6,176.5,375.8,176.4z"/>
				</g>
				<g>
					<path class="st5" d="M372.8,175.7h-1.3l-0.1,0.2l1,0.7c0.2,0.1,0.3,0.2,0.6,0.1l0.8-0.2l-0.4-0.6
						C373.2,175.7,373,175.7,372.8,175.7z"/>
				</g>
				<g>
					<path class="st5" d="M353.1,181c-0.1,0.1-0.2,0.2-0.2,0.3l-0.3,0.9l1.6-0.4c0.2,0,0.3-0.2,0.4-0.4l0.5-1.5l-0.3-0.1L353.1,181z
						"/>
				</g>
				<g>
					<path class="st5" d="M376.4,177.7c-0.1-0.2-0.2-0.3-0.4-0.4l-1.7-0.4l-0.1,0.2l1.2,1.4c0.1,0.2,0.3,0.3,0.5,0.2l0.9-0.2
						L376.4,177.7z"/>
				</g>
				<g>
					<path class="st5" d="M372.7,173.2v-0.4l-0.6,0.1c-0.3,0-0.4,0.1-0.5,0.4l-0.2,1.1l-0.7,0.7H368c-0.3,0-0.4-0.3-0.3-0.6l1.3-1.5
						l-0.2-0.2l-3.7,4.1l-0.2-0.2l0.5-0.6c0.1-0.1,0.1-0.2,0.1-0.2l-0.3-0.8l1.7-3.9c0.1-0.3,0.4-0.5,0.8-0.5h1.2l0.6-0.6
						c0.5-0.5,0.7-0.6,1.2-0.6h0.9l0.8,0.6c0.2,0.1,0.3,0.1,0.6,0.1l0.7-0.2l-0.6-0.5c-0.3-0.2-0.3-0.2-0.5-0.2h-1.2l0,0l0,0h-1
						l0.5-0.6l1-0.1c0.2,0,0.3-0.2,0.4-0.3l0.4-0.7h-0.8c-0.2,0-0.4,0-0.5,0.2l-1.6,1.8c-0.2,0.2-0.4,0.2-0.6,0.2H367l-0.7,0.7
						l-0.2-0.2l0.5-0.6c0.1-0.1,0.1-0.3,0.1-0.4l-0.2-2c0,0-0.7-0.4-0.7-0.8c0-0.3,0.1-0.6,0.3-0.8l0.3-0.3c0.2-0.2,0.3-0.3,0.3-0.7
						v-0.6l-1,0.4c-0.1,0.1-0.3,0.3-0.3,0.4v0.8l-0.3,0.5l-0.4-0.4v-0.3l0.2-0.7c0.1-0.2-0.1-0.4-0.3-0.5l-0.6-0.5l-0.3,0.6
						c0,0.2,0,0.3,0.1,0.5l0.5,0.6v3.1l-1.5-1c-0.2-0.1-0.4-0.3-0.4-0.6v-0.6v-1c0-0.3,0-0.4-0.2-0.6l-0.4-0.3l-0.3,0.5
						c-0.1,0.2-0.1,0.3,0,0.5l0.6,0.8l0,0l-0.1,0.6l-1.4-1.3c-0.1-0.1-0.3-0.2-0.5-0.1l-0.7,0.3l0.3,0.5c0.1,0.2,0.2,0.2,0.4,0.3
						l1.1,0.1l2.2,2.9c0.3,0.3,0.3,0.8,0.2,1.1l-0.5,1.1l-0.2,0.3l-3.3-2.1c-0.3-0.2-0.3-0.2-0.5-0.2l-0.6,0.1l0.2,0.6
						c0.1,0.2,0.3,0.4,0.5,0.4h1.1l0.8,0.5v0.1h-1.2l0,0h-1c-0.2,0-0.4,0.1-0.5,0.3l-0.4,0.9h0.7c0.2,0,0.3,0,0.4-0.1l0.9-0.8h0.4
						c0.3,0,0.4,0,0.6,0.2l0.7,1c0.3,0.4,0.3,0.6,0.3,0.9l-0.4,1l-0.8,1.6l-0.1,4.3l-1.1,1.1v0.4h8.4l0.3-0.3l-1.2-2.8l0.8-2.6
						c0.1-0.3,0.3-0.5,0.7-0.5h1.9l2.1-2.3C372.7,173.5,372.7,173.4,372.7,173.2z"/>
				</g>
				<g>
					<path class="st5" d="M356.9,172.8l-1.5,0.8c-0.2,0.1-0.3,0.3-0.3,0.4v0.9l1.1-0.4c0.1,0,0.3-0.2,0.3-0.3l0.6-1.3L356.9,172.8z"
						/>
				</g>
				<g>
					<path class="st5" d="M356.2,175.6h-0.3l-0.7,2c-0.1,0.2,0,0.4,0.1,0.5l0.4,0.9l0.8-1.1c0.2-0.2,0.2-0.4,0.1-0.6L356.2,175.6z"
						/>
				</g>
				<g>
					<path class="st5" d="M357.9,173.4l-1,1.4c-0.1,0.2-0.2,0.3-0.1,0.5l0.2,0.6l1-0.6c0.2-0.1,0.3-0.3,0.3-0.5v-1.3L357.9,173.4z"
						/>
				</g>
				<g>
					<path class="st5" d="M376.4,179.3l-0.2,0.1l0.2,1.8c0,0.2,0.1,0.3,0.3,0.4l1.1,0.6l0.2-1.1c0-0.2,0-0.3-0.2-0.4L376.4,179.3z"
						/>
				</g>
				<g>
					<path class="st5" d="M382.3,171.6l-2.3-0.1l-0.1,0.3l1.8,1.2c0.2,0.2,0.5,0.2,0.7,0l0.9-0.5l-0.6-0.6
						C382.6,171.7,382.4,171.6,382.3,171.6z"/>
				</g>
				<g>
					<path class="st5" d="M382,165.2l-1.4,1.4l0.1,0.3l2-0.2c0.3,0,0.5-0.3,0.5-0.6v-0.9l-0.8-0.2C382.3,165,382.1,165.1,382,165.2z
						"/>
				</g>
				<g>
					<path class="st5" d="M381.6,169.7L381.6,169.7l-1.8,0.8v0.3l2.2,0.3h0.1c0.2,0,0.3,0.1,0.7-0.3l0.3-0.3l-0.7-0.4
						C382,169.5,381.9,169.5,381.6,169.7z"/>
				</g>
				<g>
					<path class="st5" d="M383,180.6L383,180.6l-2.1-1.3l-0.2,0.2l0.7,2.1c0.1,0.2,0.2,0.3,0.4,0.3l1.4,0.3v-1.1
						C383.2,180.9,383.2,180.7,383,180.6z"/>
				</g>
				<g>
					<path class="st5" d="M380.2,180.8L380.2,180.8l-1.8-1.5l-0.2,0.2l0.8,2.2c0.1,0.2,0.3,0.3,0.4,0.3l1.1,0.2l-0.1-1
						C380.4,181.1,380.3,180.9,380.2,180.8z"/>
				</g>
				<g>
					<path class="st5" d="M382.6,177.9l-2.1-0.7l-0.2,0.2l1.5,1.7c0.1,0.1,0.3,0.2,0.5,0.2l0.9-0.1l-0.3-1
						C382.9,178.1,382.8,178,382.6,177.9z"/>
				</g>
				<g>
					<path class="st5" d="M382.3,173.6h-1.7l-0.1,0.3l1.4,1.1c0.1,0.1,0.3,0.1,0.4,0.1l1-0.3l-0.6-1.1
						C382.6,173.6,382.5,173.6,382.3,173.6z"/>
				</g>
				<g>
					<path class="st5" d="M382.9,176.3c-0.1-0.3-0.1-0.3-0.3-0.4l-2.3-0.4l-0.1,0.2l1.5,1.4c0.1,0.1,0.2,0.1,0.3,0.2l1.3,0.1
						l-0.3-0.9C382.9,176.4,382.9,176.4,382.9,176.3z"/>
				</g>
				<g>
					<path class="st5" d="M357.3,164.2l-0.9,0.3l0.6,0.8c0.1,0.2,0.3,0.2,0.5,0.2l1.4-0.1l0.1-0.3l-1.2-0.9
						C357.6,164.1,357.4,164.1,357.3,164.2z"/>
				</g>
				<g>
					<path class="st5" d="M352.6,179.4l0.1,0.9l1.3-0.7c0.2-0.1,0.3-0.2,0.3-0.4l0.3-1.4l-0.3-0.2l-1.6,1.2
						C352.6,179,352.5,179.2,352.6,179.4z"/>
				</g>
				<g>
					<path class="st5" d="M358.8,168.3l-1.3-0.8c-0.2-0.1-0.3-0.1-0.5,0l-0.8,0.5l0.7,0.6c0.1,0.1,0.2,0.1,0.4,0.1l1.5-0.1
						L358.8,168.3z"/>
				</g>
				<g>
					<path class="st5" d="M359,166.4l-1.6-0.6c-0.2-0.1-0.3,0-0.6,0.1l-0.5,0.3l0.5,0.6c0.1,0.2,0.3,0.3,0.5,0.2l1.6-0.3L359,166.4z
						"/>
				</g>
				<g>
					<path class="st5" d="M360,168.7h-0.7l0.2,0.5c0,0.1,0.1,0.2,0.3,0.3l1,0.6l0.1-0.2l-0.4-1.1C360.3,168.7,360.1,168.7,360,168.7
						z"/>
				</g>
				<g>
					<path class="st5" d="M355.8,171.3l-0.6,0.8l0.9,0.3c0.2,0.1,0.4,0,0.6-0.1l1.2-1.1l-0.1-0.3l-1.6,0.1
						C356.1,171.1,355.9,171.2,355.8,171.3z"/>
				</g>
				<g>
					<path class="st5" d="M361,167.1l-1-0.2c-0.2,0-0.4,0.1-0.5,0.3l-0.3,0.6l0.8,0.2c0.2,0,0.3,0,0.4-0.1l0.9-0.6L361,167.1z"/>
				</g>
				<g>
					<path class="st5" d="M358.1,169.3l-1.5-0.2c-0.2,0-0.3,0.1-0.5,0.2l-0.6,0.7l0.9,0.4c0.2,0.1,0.4,0.1,0.5-0.1l1.1-0.8v-0.2
						L358.1,169.3L358.1,169.3z"/>
				</g>
				<g>
					<path class="st5" d="M353.7,172.5l1.4-1.6l-0.2-0.2l-1.5,0.4c-0.2,0-0.3,0.2-0.3,0.3l-0.4,1.1l0.6,0.2
						C353.4,172.8,353.6,172.7,353.7,172.5z"/>
				</g>
				<g>
					<path class="st5" d="M354,174.7l0.7-1.5l-0.2-0.2l-1.6,0.9c-0.2,0.1-0.3,0.3-0.3,0.5l-0.1,1l1.1-0.3
						C353.8,175,354,174.8,354,174.7z"/>
				</g>
				<g>
					<path class="st5" d="M354,170.3l1.6-1.6l-0.2-0.3l-1.9,0.4c-0.2,0-0.3,0.1-0.3,0.2l-0.6,0.9l0.7,0.4
						C353.5,170.5,353.8,170.5,354,170.3z"/>
				</g>
				<g>
					<path class="st5" d="M353.9,177.2l1-1.7l-0.2-0.2l-1.6,0.7c-0.2,0.1-0.3,0.3-0.3,0.4l-0.1,0.9l0.7,0.2
						C353.5,177.6,353.8,177.5,353.9,177.2z"/>
				</g>
				<g>
					<path class="st5" d="M354.3,166.2l1.8-0.7v-0.3l-2.1-0.7c-0.2-0.1-0.4,0-0.5,0.1l-0.9,0.8l1.2,0.8
						C353.9,166.3,354.1,166.3,354.3,166.2z"/>
				</g>
				<g>
					<path class="st5" d="M354,168l1.6-0.9v-0.3l-2.1-0.2c-0.2,0-0.4,0.1-0.5,0.3l-0.5,0.7l1,0.4C353.7,168.1,353.9,168.1,354,168z"
						/>
				</g>
				<path class="st5" d="M387.8,186.8H348v-31.7h39.8V186.8z M348.5,186.3h38.9v-30.8h-38.9V186.3z"/>
				<g>
					<path class="st5" d="M468.8,165.5h0.2v-5.4h-0.7v3.8l-3.6-3.9h-0.2v5.4h0.7v-3.8L468.8,165.5z M462.1,165.5h0.2v-5.4h-0.7v3.8
						L458,160h-0.2v5.4h0.7v-3.8L462.1,165.5z M461.7,173.8h2.8v-0.6h-2.1v-1.9h1.9v-0.6h-1.9v-1.6h2.1v-0.6h-2.8V173.8L461.7,173.8
						z M453.5,163.3l0.8-1.9l0.8,1.9H453.5z M451.8,165.5h0.7l0.7-1.6h2.1l0.7,1.6h0.7l-2.4-5.4h-0.2L451.8,165.5z M468.2,181.8h2.8
						v-0.6h-2.1v-1.9h1.9v-0.6h-1.9v-1.6h2.1v-0.6h-2.8V181.8z M458.1,173.8h0.7v-4.7h1.6v-0.6h-3.9v0.6h1.6L458.1,173.8
						L458.1,173.8z M445,165.5h0.7v-3.8l2.1,2.2l2.1-2.2v3.8h0.7v-5.4h-0.2l-2.6,2.8l-2.6-2.8H445V165.5z M464.5,181.9
						c0.7,0,1.3-0.2,1.8-0.6v-0.8h-0.1c-0.3,0.5-0.9,0.9-1.7,0.9c-1.2,0-2.1-1-2.1-2.2s0.9-2.2,2.1-2.2c0.8,0,1.4,0.3,1.7,0.8h0.1
						v-0.7c-0.4-0.4-1-0.6-1.8-0.6c-1.6,0-2.8,1.2-2.8,2.8C461.7,180.7,462.9,181.9,464.5,181.9z M452.9,173.8
						c1.2,0,2.3-0.6,2.3-2.3v-3h-0.7v3.2c0,1-0.8,1.6-1.6,1.6c-0.8,0-1.6-0.5-1.6-1.6v-3.2h-0.7v3
						C450.5,173.2,451.7,173.8,452.9,173.8z M459.8,181.8h0.2v-5.3h-0.7v3.8l-3.6-3.9h-0.2v5.4h0.7V178L459.8,181.8z M439.3,165.5h4
						v-0.6h-2.8l3-4.7h-3.9v0.6h2.8L439.3,165.5z M447,173.8h0.7v-4.7h1.6v-0.6h-3.9v0.6h1.6L447,173.8L447,173.8z M437.2,165.5h0.7
						v-5.3h-0.7V165.5z M450.6,181.8h2.8v-0.6h-2.1v-1.9h2v-0.6h-2v-1.6h2.1v-0.6h-2.8V181.8z M443,173.8h0.7v-5.3H443V173.8z
						 M432.6,165.5h2.8v-0.6h-2.1V163h1.9v-0.6h-1.9v-1.6h2.1v-0.6h-2.8V165.5z M447.7,181.8h0.7v-5.3h-0.7V181.8z M439.1,173.8h0.7
						v-4.7h1.6v-0.6h-4v0.6h1.6L439.1,173.8L439.1,173.8z M426,165.5h0.2l1.1-2l1.1,2h0.2l3.1-5.4h-0.8l-2.4,4.2l-0.8-1.6l1.5-2.7
						h-0.8l-1,2l-1-2h-0.8l1.5,2.7l-0.8,1.6l-2.4-4.3h-0.8L426,165.5z M444,181.9c0.7,0,1.4-0.2,1.8-0.6v-0.8h-0.1
						c-0.3,0.5-0.9,0.9-1.7,0.9c-1.2,0-2.1-1-2.1-2.2s0.9-2.2,2.1-2.2c0.8,0,1.4,0.3,1.7,0.8h0.1v-0.7c-0.4-0.4-1.1-0.6-1.8-0.6
						c-1.6,0-2.8,1.2-2.8,2.8C441.2,180.7,442.4,181.9,444,181.9z M434.6,173.9c0.9,0,1.7-0.5,1.7-1.5c0-0.9-0.4-1.3-1.6-1.8
						c-0.6-0.3-0.8-0.6-0.8-1s0.3-0.7,0.7-0.7c0.3,0,0.6,0.1,0.9,0.6l0.6-0.3c-0.4-0.6-0.9-0.9-1.4-0.9c-0.9,0-1.5,0.4-1.5,1.3
						c0,0.5,0.3,1.1,1.3,1.5c0.9,0.4,1.1,0.7,1.1,1.2s-0.4,0.9-1,0.9c-0.4,0-0.9-0.3-1.2-0.9l-0.5,0.3
						C433.2,173.4,433.9,173.9,434.6,173.9z M438.2,181.9c0.9,0,1.7-0.5,1.7-1.5c0-0.9-0.4-1.4-1.6-1.8c-0.6-0.2-0.9-0.6-0.9-1
						c0-0.3,0.3-0.6,0.7-0.6c0.3,0,0.6,0.1,0.9,0.6l0.6-0.3c-0.4-0.6-0.9-0.9-1.4-0.9c-0.9,0-1.5,0.4-1.5,1.3c0,0.5,0.3,1.1,1.3,1.5
						c0.9,0.4,1.1,0.7,1.1,1.2s-0.4,0.9-1,0.9c-0.4,0-0.9-0.3-1.2-0.9l-0.5,0.3C436.7,181.5,437.4,181.9,438.2,181.9z M431,173.8
						h0.2v-5.3h-0.7v3.8l-3.6-3.9h-0.2v5.4h0.7V170L431,173.8z M423.9,173.8h0.7v-5.3h-0.7V173.8z M430.6,181.8h0.7v-2.5h1.9v-0.6
						h-1.9v-1.6h2.1v-0.6h-2.8L430.6,181.8L430.6,181.8z M426.4,181.3c-1.2,0-2.2-1-2.2-2.2s1-2.2,2.2-2.2s2.2,1,2.2,2.2
						C428.5,180.3,427.6,181.3,426.4,181.3z M426.4,181.9c1.6,0,2.9-1.2,2.9-2.9c0-1.6-1.3-2.8-2.9-2.8s-2.9,1.2-2.9,2.8
						C423.5,180.7,424.7,181.9,426.4,181.9z"/>
				</g>
				<g>
					<path class="st5" d="M478,186.8h-59.9v-31.7H478V186.8z M418.5,186.3h59.2v-30.8h-59.2V186.3L418.5,186.3z"/>
				</g>
				<g>
					<path class="st5" d="M393.1,170.3l-0.1,4.1l1.1,1h0.2l-0.7-4.9c0-0.1,0-0.3,0.2-0.6l0.8-1l-1.6-1.3h-0.3l-0.6,0.7l1.3,1.1
						c0.2,0.1,0.2,0.3,0,0.5L393.1,170.3z M405.8,166.1h7l0.8-1.4v-3.5c0-0.6-0.5-1-1.1-1h-2.3l-0.7,0.8c-0.2,0.3-0.6,0.3-0.9,0
						l-1.4-1.2h-0.3l-0.6,0.7l1.7,1.4c0.2,0.2,0.2,0.4,0,0.7l-0.4,0.5l0.2,0.2l1.6-1.8c0.2-0.2,0.4-0.3,0.8-0.3h1.8
						c0.4,0,0.6,0.2,0.7,0.5l0.4,2.4c0.1,0.3,0,0.5-0.1,0.6c-0.2,0.3-0.8,0.3-1.4,0.3h-5.4l-0.4,0.8L405.8,166.1L405.8,166.1z
						 M412.2,174h0.2l1-0.4l-0.7-3.2c0-0.1,0-0.3,0.3-0.5l0.8-1l-1.6-1.3H412l-0.6,0.7l1.3,1.1c0.2,0.1,0.2,0.3,0,0.5l-0.3,0.3
						L412.2,174z M409,170.9l1.8-2l-1.5-1.3H409l-0.6,0.8l1.1,0.9c0.2,0.2,0.2,0.4,0,0.7l-0.6,0.7L409,170.9z M397.8,166.1h6.9
						l0.7-1.4v-3.8c0-0.4-0.4-0.8-0.9-0.8h-4.7c-0.2,0-0.3-0.1-0.5-0.2l-0.2-0.1h-0.3l-0.6,0.7l0.8,0.6h5c0.3,0,0.4,0.1,0.4,0.3
						l0.4,2.6c0,0.3,0,0.4-0.1,0.6c-0.2,0.3-0.7,0.3-1.3,0.3h-5.1l-0.4,0.8L397.8,166.1L397.8,166.1z M402,173.9h5.1l0.4-0.8
						c0.1-0.2,0-0.4-0.2-0.6l-1.1-0.9c-0.2-0.2-0.3-0.5-0.1-0.7l1.8-2.1l-1.5-1.3h-0.3l-0.6,0.7l1.1,1c0.2,0.2,0.2,0.4,0,0.7l-1,1.2
						l-1.3-1c-0.2-0.1-0.2-0.3-0.1-0.5l0.7-0.9l-1.6-1.3H403l-0.6,0.7l1.3,1.1c0.2,0.2,0.2,0.3,0,0.5l-0.3,0.4l2.6,2.4
						c0.1,0.1,0.1,0.2-0.1,0.2h-3.6l-0.4,0.8L402,173.9L402,173.9z M396,166.3h0.2l1-0.4l-0.7-3.2c0-0.2,0.1-0.4,0.3-0.5l0.8-1
						l-1.6-1.3h-0.3l-0.6,0.7l1.3,1.1c0.2,0.2,0.2,0.3,0,0.5l-0.3,0.3L396,166.3z M394.1,167.4h0.2l-0.7-4.8c0-0.1,0-0.3,0.2-0.5
						l0.8-1l-1.6-1.3h-0.3l-0.6,0.7l1.3,1.1c0.2,0.1,0.2,0.3,0,0.5l-0.3,0.3l-0.1,4L394.1,167.4z M394.7,173.9h6.1l0.7-1.4v-3.6
						c0-0.6-0.5-1-1.1-1h-1.3l-0.7,0.8c-0.2,0.3-0.6,0.3-0.9,0l-1.4-1.2h-0.4l-0.6,0.7l1.7,1.5c0.2,0.2,0.3,0.4,0.1,0.7l-0.4,0.5
						l0.2,0.2l1.6-1.9c0.1-0.2,0.4-0.3,0.8-0.3h0.9c0.4,0,0.5,0.2,0.6,0.6l0.4,2.5c0.1,0.3,0,0.4-0.1,0.6c-0.2,0.3-0.8,0.4-1.2,0.4
						h-4.6L394.7,173.9L394.7,173.9L394.7,173.9z M401.4,181.8h6.4l0.7-1.4v-3.6c0-0.6-0.5-1-1.1-1h-1.1l-0.7,0.8
						c-0.2,0.3-0.6,0.3-0.9,0l-1.4-1.2H403l-0.6,0.7l1.6,1.4c0.2,0.2,0.3,0.5,0.1,0.7l-0.4,0.5l0.2,0.2l1.6-1.8
						c0.1-0.2,0.4-0.3,0.9-0.3h0.7c0.4,0,0.6,0.1,0.6,0.5l0.4,2.6c0.1,0.3,0,0.5-0.1,0.6c-0.3,0.3-0.8,0.3-1.4,0.3h-4.8l-0.4,0.8
						L401.4,181.8L401.4,181.8z M399.5,182h0.2l1-0.4l-0.6-2.8c-0.1-0.5,0-0.8,0.5-1.2c0.2-0.2,0.5-0.4,1-0.8v-0.4
						c0-0.3-0.1-0.5-0.5-0.5h-4.3c-0.2,0-0.3-0.1-0.5-0.2l-0.2-0.1h-0.3l-0.6,0.7l0.8,0.6h4.2c0.3,0,0.4,0.1,0.4,0.3
						c0,0.1,0,0.2-0.1,0.2l-0.8,0.8L399.5,182z M392.2,182.1c1.8-0.4,3.4-1.1,4.4-2.5c0.2-0.4,0.3-1,0.4-1.8l-0.2-0.2
						c-0.2,0.7-0.8,1.6-1.3,1.9c-0.2,0.1-0.3,0.1-0.5-0.1l-1.1-1.2c-0.1-0.1-0.2-0.2-0.2-0.3s0.1-0.2,0.2-0.3l0.7-0.8l-1.6-1.4h-0.3
						l-0.6,0.7l1.3,1.1c0.2,0.1,0.2,0.3,0,0.5l-0.3,0.3l1.3,2c-0.4,0.3-1.2,0.5-1.8,0.6l-0.5,1.1L392.2,182.1z M409,181.9
						c2.2-0.6,3.9-1.6,4.6-2.8v-2.8c0-0.3-0.3-0.6-0.7-0.6h-2.2c-0.4,0-0.6-0.1-0.6-0.3l-0.2-0.8c0-0.1,0-0.3,0.3-0.5l0.8-1
						l-1.4-1.1h-0.3l-0.6,0.7l1.1,1c0.1,0.1,0.1,0.2,0.1,0.3s0,0.2-0.1,0.2l-0.3,0.3v2c0.2,0.2,0.3,0.3,0.7,0.3h2.2
						c0.2,0,0.3,0.1,0.3,0.3l0.3,1.6c0.1,0.3,0,0.4-0.1,0.5c-0.7,0.7-1.9,1.1-3.4,1.6L409,181.9L409,181.9z"/>
				</g>
				<g>
					<path class="st5" d="M418.5,186.8h-31.2v-31.7h31.2V186.8z M387.8,186.3h30.3v-30.8h-30.3V186.3z"/>
				</g>
			</g>
		</g>
	</g>
	<g>
		<g class="st4">
			<path class="st9" d="M226.4,152v-0.6c1.3-0.1,1.4-0.3,1.4-1.8l0-6.6c-1.2,2.9-2.6,6.2-3.8,9h-0.6c-1.1-2.8-2.3-5.9-3.5-8.9
				c-0.2,5.3-0.2,6.4-0.2,7c0,0.9,0.4,1.2,1.6,1.3v0.6h-4.2v-0.6c1-0.1,1.4-0.3,1.5-1.3c0.1-0.5,0.1-1.5,0.5-7.1
				c0.1-0.8-0.1-1.3-1.5-1.4V141h3.7l3.3,7.5l3.3-7.5h3.6v0.6c-1.4,0.1-1.5,0.3-1.5,1.6l0.1,6.4c0,1.5,0.1,1.6,1.5,1.8v0.6H226.4z"
				/>
			<path class="st9" d="M239.4,150.4c-1,1.5-2.4,1.9-3.1,1.9c-2.3,0-3.6-1.7-3.6-3.7c0-1.2,0.6-2.4,1.3-3.1c0.8-0.8,1.7-1.2,2.7-1.2
				c1.7,0,2.8,1.4,2.8,2.8c0,0.3,0,0.6-0.2,0.6c-0.3,0.1-2.7,0.2-4.4,0.3c0.1,1.8,1.1,2.7,2.3,2.7c0.7,0,1.3-0.2,1.9-0.8
				L239.4,150.4z M236.3,145c-0.7,0-1.3,0.8-1.4,2.1c0.7,0,1.3,0,2.1-0.1c0.2,0,0.3-0.1,0.3-0.3C237.3,145.9,236.9,145,236.3,145z"
				/>
			<path class="st9" d="M244,152.1c-0.3,0.1-0.6,0.2-0.7,0.2c-1.3,0-2.1-0.6-2.1-2.2v-4.7h-1.1l-0.1-0.2l0.5-0.6h0.7v-1.4
				c0.6-0.4,1.4-1,2-1.4l0.2,0.1c0,0.5-0.1,1.4,0,2.6h1.7c0.2,0.2,0.1,0.7-0.1,0.8h-1.6v4.2c0,1.3,0.5,1.5,0.9,1.5
				c0.3,0,0.5-0.1,0.8-0.2l0.2,0.6L244,152.1z"/>
			<path class="st9" d="M251.7,152.2c-0.5,0-0.8-0.2-1.1-0.4c-0.2-0.2-0.4-0.4-0.4-0.6c-0.6,0.4-1.5,1-1.8,1c-1.5,0-2.3-1.1-2.3-2.2
				c0-0.9,0.4-1.3,1.3-1.7c1-0.4,2.3-0.8,2.7-1.1v-0.7c0-0.9-0.3-1.4-1.1-1.4c-0.3,0-0.5,0.1-0.7,0.3c-0.2,0.3-0.3,0.6-0.4,1.1
				c-0.1,0.5-0.4,0.6-0.7,0.6c-0.4,0-1-0.4-1-0.9c0-0.3,0.2-0.5,0.6-0.8c0.8-0.5,1.8-1,2.7-1.2c0.7,0,1.3,0.2,1.8,0.5
				c0.7,0.5,0.9,1.2,0.9,2.1v2.9c0,0.8,0.3,1,0.5,1c0.2,0,0.3-0.1,0.5-0.1l0.2,0.6L251.7,152.2z M250.2,148c-0.3,0.2-0.6,0.3-1,0.5
				c-0.5,0.3-0.8,0.6-0.8,1.2c0,1,0.7,1.3,1,1.3c0.2,0,0.5,0,0.7-0.3C250.2,149.9,250.2,148.8,250.2,148z"/>
			<path class="st9" d="M257.6,144.6c0.5-0.2,0.9-0.3,1.2-0.3c2.1,0,3.5,1.7,3.5,3.6c0,2.4-2,4.4-4.5,4.4c-1,0-1.9-0.2-3-0.6
				c0-0.4,0-0.9,0-1.3v-7.9c0-1-0.1-1.1-1.1-1.2v-0.6c0.9-0.1,2.3-0.3,3.2-0.6c0,0.6,0,1.2,0,1.8v3L257.6,144.6z M257,150.2
				c0,0.2,0.1,0.4,0.1,0.6c0.1,0.3,0.6,0.8,1.2,0.8c0.9,0,1.6-1,1.6-3.1c0-2.2-1.1-3-2.1-3c-0.4,0-0.5,0.1-0.8,0.1V150.2z"/>
			<path class="st9" d="M267.5,144.3c2.4,0,3.9,1.8,3.9,3.8c0,2.7-2,4.1-4,4.1c-2.6,0-4-1.9-4-3.9
				C263.4,145.7,265.5,144.3,267.5,144.3z M267.2,145c-0.7,0-1.4,0.8-1.4,2.9c0,2.1,0.7,3.7,1.8,3.7c0.6,0,1.3-0.4,1.3-2.9
				C268.9,146.3,268.3,145,267.2,145z"/>
			<path class="st9" d="M283.3,152.1c-0.1,0-0.3,0-0.5,0c-2.2-0.1-2.8-0.6-3.3-1.3c-0.7-0.9-1.2-2-1.8-3c-0.3-0.5-0.5-0.6-1-0.6
				l-0.3,0v2.5c0,1.4,0.2,1.5,1.4,1.6v0.6h-5.2v-0.6c1.3-0.1,1.4-0.3,1.4-1.6v-6.5c0-1.3-0.2-1.5-1.4-1.6V141h4.9
				c1.5,0,2.4,0.2,3.1,0.6c0.7,0.5,1.1,1.2,1.1,2.3c0,1.5-1,2.3-2.1,2.8c0.3,0.5,0.9,1.6,1.4,2.4c0.6,0.9,1,1.4,1.3,1.8
				c0.4,0.4,0.6,0.6,1.1,0.7L283.3,152.1z M276.8,146.6c0.7,0,1.3-0.1,1.7-0.4c0.6-0.5,0.8-1.1,0.8-2c0-1.8-1-2.4-2-2.4
				c-0.5,0-0.7,0.1-0.8,0.2c-0.1,0.1-0.2,0.3-0.2,0.6v4.1H276.8z"/>
			<path class="st9" d="M290.2,150.4c-1,1.5-2.4,1.9-3.1,1.9c-2.3,0-3.6-1.7-3.6-3.7c0-1.2,0.6-2.4,1.3-3.1c0.8-0.8,1.7-1.2,2.7-1.2
				c1.7,0,2.8,1.4,2.8,2.8c0,0.3,0,0.6-0.2,0.6c-0.3,0.1-2.7,0.2-4.4,0.3c0.1,1.8,1.1,2.7,2.3,2.7c0.7,0,1.3-0.2,1.9-0.8
				L290.2,150.4z M287.1,145c-0.7,0-1.3,0.8-1.4,2.1c0.7,0,1.3,0,2.1-0.1c0.2,0,0.3-0.1,0.3-0.3C288.1,145.9,287.7,145,287.1,145z"
				/>
			<path class="st9" d="M291,144.9c0.9-0.1,2-0.5,3.1-0.8c0,0.4,0,0.9,0,1.2c0,0,1.1-0.7,1.2-0.7c0.4-0.3,0.8-0.4,1.1-0.4
				c1.9,0,2.9,1.7,2.9,3.3c0,2.5-2,4.1-4.2,4.6c-0.4,0-0.8-0.1-1.1-0.2v2c0,1,0.1,1.1,1.3,1.2v0.6h-4.6v-0.6c1-0.1,1.1-0.3,1.1-1.2
				v-7.6c0-0.9-0.1-1-0.9-1.1V144.9z M294.2,150.8c0.3,0.3,1,0.6,1.4,0.6c0.9,0,1.6-1.1,1.6-2.9c0-2.1-1-2.9-1.9-2.9
				c-0.4,0-0.8,0.2-1.1,0.4V150.8z"/>
			<path class="st9" d="M304.6,144.3c2.4,0,3.9,1.8,3.9,3.8c0,2.7-2,4.1-4,4.1c-2.6,0-4-1.9-4-3.9
				C300.5,145.7,302.6,144.3,304.6,144.3z M304.4,145c-0.7,0-1.4,0.8-1.4,2.9c0,2.1,0.7,3.7,1.8,3.7c0.6,0,1.3-0.4,1.3-2.9
				C306,146.3,305.4,145,304.4,145z"/>
			<path class="st9" d="M314,152h-4.5v-0.6c0.9-0.1,1-0.2,1-1.2v-3.7c0-0.8-0.1-0.9-0.9-1.1v-0.5c1.1-0.1,2-0.3,3.1-0.6
				c0,0.6,0,1.3,0,1.8c0.8-1.2,1.4-1.8,2.1-1.8c0.6,0,1.1,0.4,1.1,1c0,0.8-0.6,1.3-0.9,1.4c-0.2,0.1-0.4,0-0.5-0.1
				c-0.3-0.2-0.5-0.5-0.8-0.5c-0.3,0-0.7,0.2-1,0.9v3.2c0,1,0.1,1.1,1.3,1.2V152z"/>
			<path class="st9" d="M320.1,152.1c-0.3,0.1-0.6,0.2-0.7,0.2c-1.3,0-2.1-0.6-2.1-2.2v-4.7h-1.1l-0.1-0.2l0.5-0.6h0.7v-1.4
				c0.6-0.4,1.4-1,2-1.4l0.2,0.1c0,0.5-0.1,1.4,0,2.6h1.7c0.2,0.2,0.1,0.7-0.1,0.8h-1.6v4.2c0,1.3,0.5,1.5,0.9,1.5
				c0.3,0,0.5-0.1,0.8-0.2l0.2,0.6L320.1,152.1z"/>
		</g>
	</g>
</g>
<path class="st11" d="M202.6,332.8"/>
<path class="st12" d="M223.6,269.1"/>
</svg>
