<?xml version="1.0" encoding="utf-8"?>
<!-- Generator: Adobe Illustrator 25.0.1, SVG Export Plug-In . SVG Version: 6.00 Build 0)  -->
<svg version="1.1"
	 id="svg927" inkscape:version="1.1.2 (b8e25be8, 2022-02-05)" sodipodi:docname="logo.svg" xmlns:inkscape="http://www.inkscape.org/namespaces/inkscape" xmlns:sodipodi="http://sodipodi.sourceforge.net/DTD/sodipodi-0.dtd" xmlns:svg="http://www.w3.org/2000/svg"
	 xmlns="http://www.w3.org/2000/svg" xmlns:xlink="http://www.w3.org/1999/xlink" x="0px" y="0px" viewBox="0 0 700 700"
	 style="enable-background:new 0 0 700 700;" xml:space="preserve">
<style type="text/css">
	.st0{opacity:0.8;}
	.st1{opacity:0.8;fill:#868686;}
	.st2{opacity:0.8;fill:#B5B5B5;}
	.st3{opacity:0.8;fill:#CCCCCC;}
	.st4{opacity:0.8;fill:#E5E5E5;}
	.st5{opacity:0.5;enable-background:new    ;}
	.st6{opacity:0.8;fill:#EDF3FF;}
	.st7{opacity:0.8;fill:#F4F8FF;}
	.st8{opacity:0.8;fill:#F8FAFF;}
	.st9{opacity:0.8;fill:#FBFCFF;}
	.st10{opacity:0.6;}
	.st11{fill:#4A555F;}
	.st12{fill:#E0E0E0;}
	.st13{fill:none;}
	.st14{enable-background:new    ;}
	.st15{fill:#E79D82;}
	.st16{fill:#6D6F76;}
	.st17{opacity:0.31;fill:none;stroke:#005537;stroke-width:1.5;stroke-miterlimit:10;enable-background:new    ;}
	.st18{opacity:0.41;fill:#150200;}
	.st19{font-family:'Herculanum';}
	.st20{font-size:18px;}
</style>
<sodipodi:namedview  bordercolor="#666666" borderopacity="1.0" id="namedview929" inkscape:current-layer="g2932" inkscape:cx="182.5" inkscape:cy="723" inkscape:document-units="pt" inkscape:pagecheckerboard="0" inkscape:pageopacity="0.0" inkscape:pageshadow="2" inkscape:window-height="1312" inkscape:window-maximized="0" inkscape:window-width="2560" inkscape:window-x="0" inkscape:window-y="25" inkscape:zoom="1" pagecolor="#ffffff" showgrid="false">
	</sodipodi:namedview>
<defs>
	
		<inkscape:path-effect  apply_no_weight="true" apply_with_weight="true" effect="bspline" helper_size="0" id="path-effect115563" is_visible="true" lpeversion="1" only_selected="false" steps="2" weight="33.333333">
		</inkscape:path-effect>
	
		<inkscape:path-effect  apply_no_weight="true" apply_with_weight="true" effect="bspline" helper_size="0" id="path-effect44124" is_visible="true" lpeversion="1" only_selected="false" steps="2" weight="33.333333">
		</inkscape:path-effect>
	<inkscape:path-effect  effect="spiro" id="path-effect7052" is_visible="true" lpeversion="1"></inkscape:path-effect>
</defs>
<g id="g191976" inkscape:export-filename="/Users/dong/Desktop/logo2.png" inkscape:export-xdpi="600" inkscape:export-ydpi="600">
	<g id="g191947">
	</g>
</g>
<g>
	
		<image style="overflow:visible;opacity:0.26;enable-background:new    ;" width="228" height="176" xlink:href="3B127C4CBA502C0E.png"  transform="matrix(0.9719 0 0 0.9811 180.4123 50.5826)">
	</image>
	<g>
		<g>
			<g>
				<g>
					<g>
						<g>
							<g>
								<g class="st0">
									<g class="st0">
										<path class="st1" d="M313.3,89c1.6-1.7,2.7-3.7,4.5-5c0.3-0.2,0.6-0.2,1-0.2c0.6,0.1,1.2,0.7,1.7,0.8
											c4,0,7.7-1.1,10.8-3.1c5.1-3,10.6-4.1,15.7-7.4c2.9-1.8,5.3-4.1,8-6.2c0.9-0.5,1.7-1,2.9-1c0.5,0.1,1.6,0.8,1.5,1.7
											c-0.1,0.9-0.4,1.7-0.7,2.4c-1.6,3-2.7,6-4.4,8.9c-1.8,3-5.1,2.1-7.8,3.1c-2.5,1.1-4.1,3.1-6.3,4.7c-0.7,0.3-1.6,0-2.3-0.6
											c-1.3-0.9-1.5-1.9-2.7-1.4c-1.4,0.9-2.2,2.5-3.7,3.3c-2.7,1.2-5.3,1.7-7.5,3.9c-1.7,1.8-3.3,3.6-5.8,3.4
											c-2-0.1-4-1.6-5.9-2.3c-1.4-0.5-2.5,0.1-3.8,0.3c-0.3,0-0.6-0.3-1-0.4c0.4-2.2,2-3.6,3.7-4c0.3,0,0.5,0.2,0.7,0.3
											C312.6,90,312.9,89.4,313.3,89z"/>
										<path class="st2" d="M313.3,89.9c1.6-1.7,2.7-3.7,4.5-5c0.3-0.2,0.6-0.2,1-0.2c0.6,0.1,1.2,0.7,1.7,0.8
											c4,0,7.7-1.1,10.8-3.1c5.1-3,10.4-4.3,15.4-7.5c2.9-1.8,5.3-4.1,8-6.2c0.9-0.5,1.7-1,2.9-1c0.5,0.1,1.9,0.1,1.8,0.9
											c-0.1,0.9-0.4,1.7-0.7,2.4c-1.6,3-2.7,6-4.4,8.9c-1.8,3-5.1,2.1-7.8,3.1c-2.5,1.1-4.1,3.1-6.3,4.7c-0.7,0.3-1.6,0-2.3-0.6
											c-1.3-0.9-1.5-1.9-2.6-1.4c-1.4,0.9-2.2,2.5-3.7,3.3c-2.7,1.2-5.3,1.7-7.5,3.9c-1.7,1.8-3.3,3.6-5.8,3.4
											c-2-0.1-4-1.6-5.9-2.3c-1.4-0.5-2.5,0.1-3.8,0.3c-0.2,0-0.6-0.3-1-0.4c0.4-2.2,1.9-2.7,3.7-3.1c0.3,0,0.5,0.2,0.7,0.3
											C312.6,91,312.9,90.3,313.3,89.9z"/>
										<path class="st3" d="M313.4,91.7c1.6-1.7,2.7-3.7,4.5-5c0.3-0.2,0.6-0.2,1-0.2c0.6,0.1,1.2,0.7,1.7,0.8
											c4,0,7.6-0.2,10.8-2.2c5.1-3,9.8-4.6,14.8-7.8c2.9-1.8,5.3-4.1,8-6.2c0.9-0.5,2-1.7,3.1-1.7c0.5,0.1,2.1-0.7,2,0.2
											c-0.1,0.9-0.4,1.7-0.7,2.4c-1.6,3-2.7,6-4.4,8.9c-1.8,3-5.1,2.1-7.8,3.1c-2.5,1.1-4.1,3.1-6.3,4.7c-0.7,0.3-1.6,0-2.3-0.6
											c-1.3-0.9-1.3-1.9-2.4-1.3c-1.4,0.9-2.2,2.5-3.7,3.3c-2.7,1.2-5.3,1.7-7.5,3.9c-1.7,1.8-3.3,3.6-5.8,3.4
											c-2-0.1-4-1.6-5.9-2.3c-1.4-0.5-2.5,0.1-3.8,0.3c-0.3,0-0.6-0.3-1-0.4c0.4-2.2,1.9-1.8,3.7-2.3c0.3,0,0.5,0.2,0.7,0.3
											C312.8,92.8,313.1,92.1,313.4,91.7z"/>
										<path class="st4" d="M314.7,94.4c1.2-1.4,0.9-3.3,3.1-4.9c0.3-0.2,0.6-0.2,1-0.2c0.6,0.1,1.2,0.7,1.7,0.8
											c4,0,7.6-0.2,10.8-2.2c5.1-3,8.7-3.5,13.7-6.7c2.9-1.8,5.1-3.3,7.7-5.5c0.9-0.5,2.4-3.3,3.6-3.3c0.5,0.1,2.8-3,2.7-2.1
											c-0.1,0.9-0.1,1.3-0.5,2c-1.6,3-2.5,5.6-4.3,8.5c-1.8,3-5.3,2.1-7.9,3.2c-2.5,1.1-4.1,3.1-6.3,4.7c-0.7,0.3-1.6,0-2.3-0.6
											c-1.3-0.9-0.7-0.2-1.8,0.4c-1.4,0.9-2.8,0.8-4.3,1.6c-2.7,1.2-5.3,1.7-7.5,3.9c-1.7,1.8-3.3,3.6-5.8,3.4
											c-2-0.1-4-1.6-5.9-2.3c-1.4-0.5-2.5,0.1-3.8,0.3c-0.2,0-0.6-0.3-1-0.4c0.4-2.2,1.9-1,3.7-1.4c0.3,0,0.9,0.7,1.1,0.8
											C310.9,94.4,314.7,94.4,314.7,94.4z"/>
									</g>
								</g>
							</g>
						</g>
					</g>
					<g class="st5">
						<g>
							<g>
								<g class="st0">
									<g class="st0">
										<path class="st6" d="M225.6,66.3c3.3-2.2,6.5-4.3,9.7-6.4c0.8-0.5,1.6-1.1,2.4-1.6c0.1-0.1,0.2-0.1,0.3-0.2l0.5-0.3
											c0.4-0.2,0.7-0.4,1.1-0.5c0.7-0.3,1.4-0.6,2.1-0.8c2.7-0.8,5.4-0.9,8.2-0.4c0.7,0.1,1.4,0.3,2.2,0.6
											c0.4,0.1,0.7,0.3,1.1,0.4l1,0.5l2.5,1.3c1.7,0.9,3.4,1.7,5.1,2.6c3.4,1.7,6.8,3.5,10.3,5.4c2,1.1,4,2.4,6,3.8
											c3,2.2,4.5,3.9,7,5.7c5.5,3.7,11.1,7.3,16.7,10.9l2.1,1.4l1.1,0.7l0.7,0.5c0.3,0.2,0.5,0.4,0.7,0.6c1.9,1.6,3.1,3.4,4,5.4
											c0.5,1,0.8,2,1.1,3.2c0.1,0.6,0.2,1.1,0.3,1.8c0,0.3,0,0.6,0,0.9c0,0.4,0,0.5,0,0.7c0,1.7-0.1,3.4-0.1,5.1
											c-0.3,13.6-0.4,27.3-0.2,41c0,2.7,0,5.4,0.1,8c0,1.3,0,2.7,0,4l0,1l0,0.5l0,0.7c-0.1,0.9-0.2,1.8-0.5,2.7
											c-0.5,1.7-1.2,3.2-2.2,4.5c-1,1.4-2.1,2.6-3.7,3.7c-0.2,0.1-0.4,0.3-0.6,0.4l-0.4,0.2l-0.9,0.5l-1.7,1l-3.4,2
											c-9.1,5.2-18.2,10.3-27.3,15.4c-4.5,2.6-9.1,5.1-13.6,7.7l-3.4,1.9l-0.9,0.5l-0.4,0.2l-0.2,0.1l-0.3,0.2
											c-0.8,0.4-1.6,0.7-2.4,0.9c-1.6,0.4-3.2,0.6-4.8,0.5c-1.6-0.1-3.2-0.4-4.8-1.2c-0.9-0.4-1.4-0.8-2-1.1l-1.7-1
											c-1.1-0.7-2.3-1.3-3.4-2c-2.3-1.3-4.6-2.7-6.9-4c-4.6-2.7-9.3-5.3-14.1-8c-5.4-3-10.7-5.9-16-8.8
											c-2.7-1.4-5.3-2.9-7.9-4.3l-1-0.5l-0.3-0.1l-0.4-0.2c-0.2-0.1-0.5-0.3-0.7-0.5c-0.9-0.6-1.6-1.3-2.3-2.1
											c-1.3-1.5-2.3-3.1-3-5c-0.4-0.9-0.6-1.9-0.8-3c0-0.3-0.1-0.5-0.1-0.8l0-0.7l0-1.1l-0.1-4.5c-0.1-3-0.2-6-0.3-9
											c-0.2-6-0.4-12-0.6-18.1c-0.1-7.6-0.1-14.6,0.4-22.3c0.3-3.2,1.5-8.1,2.2-4.6c0.7,3.5,1.4,8.1,1.8,12.5
											c1,10.1,2,19.3,3.1,28.7c0.5,4.7,1,9.3,1.5,14.1c0.1,1.2,0.2,2.4,0.4,3.6l0.1,0.9c0,0.2,0.1,0.2,0.1,0.4
											c0.1,0.3,0.2,0.6,0.4,0.9c0.3,0.6,0.8,1.3,1.3,1.9c0.5,0.6,1.1,1,1.5,1.1c0,0,0.1,0,0.1,0l0.5,0.2l0.9,0.4
											c0.6,0.3,1.2,0.6,1.8,0.9c1.2,0.6,2.3,1.2,3.5,1.8c2.3,1.2,4.6,2.4,6.8,3.7c4.4,2.5,8.7,5.1,13,7.8
											c4.2,2.7,8.4,5.4,12.7,8.1c2.1,1.3,4.3,2.7,6.4,4.1c1.1,0.7,2.2,1.3,3.3,2l1.6,1l0.8,0.5l0.4,0.2l0.2,0.1
											c0.9,0.5,2.8,0.7,4.2,0.4c0.3-0.1,0.7-0.2,0.9-0.3c0.1-0.1,0.2-0.1,0.3-0.2l0.1,0l0.2-0.1l0.4-0.2c1-0.6,2.1-1.2,3.1-1.8
											c4.1-2.5,8-4.9,12-7.4c7.9-4.9,15.6-9.8,23.9-14.8c4.5-2.5,9.4-4.6,12.3-5.3c0.1,0,0.2-0.1,0.3-0.1c0.1,0,0.2-0.1,0.2,0
											c0.1,0,0.2,0,0.2,0c0.2,0,0.3,0,0.5-0.1c0.3-0.1,0.6-0.2,0.9-0.2c0.6-0.2,1-0.4,1.5-0.7c0.5-0.3,0.9-0.8,1.4-1.6
											c0.2-0.4,0.4-0.9,0.6-1.6c0-0.1,0.1-0.3,0.1-0.5c0-0.2,0-0.3,0-0.6c0-0.5,0-1,0-1.6c-0.2-12-1.2-22.4-1.3-35
											c0.1-5.3,0.1-10.5,0.2-15.6c0-2.6,0.1-5.1,0.1-7.6c0.1-1.4-0.8-3.4-1.9-4.8c-0.3-0.3-0.6-0.7-0.9-0.9
											c-0.2-0.1-0.3-0.3-0.5-0.4l-0.2-0.1l-0.4-0.2c-1.1-0.6-2.2-1.3-3.3-1.9c-2.2-1.2-4.4-2.5-6.6-3.8c-4.5-2.5-9-5-13.8-7.4
											c-7.5-3.8-15-7.6-22.2-11.6c-1.8-1-3.6-2-5.4-3l-1.3-0.7c-0.2-0.1-0.3-0.2-0.6-0.3c-0.5-0.2-1.1-0.3-1.7-0.4
											c-1.3-0.1-2.6,0.1-3.3,0.4c-1.7,0.9-3.5,1.8-5.3,2.6C226.1,74.8,218,77,208,81c-3.5,1.4-7.2,3.3-11.1,5.3
											c-1.9,1-3.9,2.1-5.9,3.1l-3,1.6c-0.4,0.2-1.1,0.6-1.7,1c-0.5,0.4-1,0.8-1.5,1.3c-1.4,1.5-2.6,2.7-3.7,4.8
											c0.3-1.5,0.8-3.1,1.7-4.6c0.5-0.8,1-1.5,1.7-2.3c0.3-0.4,0.7-0.7,1.1-1.1c0.2-0.2,0.4-0.3,0.7-0.5l0.6-0.4
											c2.4-1.7,5.1-3.5,7.8-5.3c5.5-3.5,11.4-7,17.1-10.1c1.6-0.8,2.4-0.9,3.6-1.4C219.2,70.7,222.3,68.4,225.6,66.3z"/>
										<path class="st7" d="M223.4,68.5c3.3-2.2,6.5-4.3,9.7-6.4c1.6-1.1,3.2-2.1,4.7-3.2c0.3-0.2,1.1-0.7,1.7-1
											c0.7-0.3,1.3-0.6,2-0.8c1.3-0.4,2.6-0.6,3.9-0.7c1.3-0.1,2.6,0,4,0.2c1.4,0.2,2.8,0.6,4.2,1.4c1.7,0.9,3.4,1.7,5.1,2.6
											c3.4,1.7,6.8,3.5,10.3,5.4c2,1.1,4,2.4,6,3.8c3,2.2,4.5,3.9,7,5.7c5.5,3.7,11.1,7.3,16.7,10.9c1.4,0.9,2.8,1.8,4.3,2.7
											l1.1,0.7l0.6,0.3c0.2,0.2,0.5,0.3,0.7,0.5c0.9,0.7,1.7,1.5,2.3,2.3c1.3,1.7,2.2,3.5,2.8,5.5c0.3,1,0.4,2.1,0.4,3.3
											l-0.1,2.5c-0.3,13.6-0.4,27.3-0.2,41c0,5.4,0.1,10.7,0.1,16l0,0.5l0,0.6c0,0.4-0.1,0.9-0.2,1.3c-0.1,0.8-0.4,1.6-0.7,2.3
											c-0.6,1.5-1.3,2.8-2.3,4.1c-0.5,0.6-1,1.2-1.7,1.7c-0.3,0.3-0.7,0.5-1,0.8l-0.6,0.3l-0.4,0.3l-3.4,1.9
											c-9,5.1-18,10.2-26.9,15.3c-4.5,2.5-9,5.1-13.5,7.6c-2.2,1.3-4.5,2.6-6.8,3.9l-0.8,0.5c-0.3,0.2-0.5,0.3-0.9,0.5
											c-0.7,0.4-1.5,0.7-2.3,0.8c-1.5,0.4-3,0.5-4.6,0.4c-1.5-0.1-3-0.4-4.5-1.1c-0.8-0.4-1.3-0.7-1.9-1l-1.7-1
											c-2.3-1.3-4.6-2.6-6.9-3.9c-4.6-2.6-9.3-5.3-14-7.9c-5.4-3-10.7-6-16-8.8c-2.7-1.4-5.3-2.9-8-4.3l-4-2.1l-0.5-0.3
											l-0.2-0.1l-0.3-0.2c-0.5-0.3-0.9-0.6-1.3-0.9c-0.8-0.6-1.5-1.3-2.1-2c-1.2-1.5-2.1-3.1-2.8-4.9c-0.3-0.9-0.5-1.9-0.6-3
											l0-0.8l0-0.6l0-1.1c-0.1-3-0.2-6-0.3-9c-0.2-6-0.4-12-0.6-18.1c-0.1-7.6-0.1-14.6,0.4-22.3c0.3-3.2,0.9-12,1.6-8.6
											s1.4,8.1,1.8,12.5c1,10.1,2,19.3,3.1,28.7c0.5,4.7,1,9.3,1.5,14.1c0.1,1.2,0.2,2.4,0.4,3.6l0.1,0.9c0,0.1,0.1,0.2,0.1,0.4
											c0.1,0.3,0.2,0.6,0.4,0.9c0.3,0.6,0.8,1.3,1.3,1.8c0.5,0.5,1.1,1,1.5,1c18.7,8.6,34.8,20.6,51.9,30.8
											c0.9,0.5,2.8,0.7,4.1,0.3c0.3-0.1,0.6-0.2,0.9-0.3c0.1,0,0.2-0.1,0.3-0.2l0.7-0.4c1-0.6,2.1-1.2,3.1-1.8
											c4.1-2.5,8-4.9,12-7.4c7.9-4.9,15.6-9.8,23.9-14.8c4.5-2.5,9.4-4.6,12.3-5.3c0.4-0.2,0.5-0.1,0.7-0.1c0.2,0,0.3,0,0.5-0.1
											c0.3-0.1,0.6-0.1,0.9-0.2c0.6-0.2,1-0.4,1.5-0.7c0.5-0.3,0.9-0.8,1.4-1.6c0.2-0.4,0.4-0.9,0.6-1.5c0-0.1,0-0.3,0.1-0.5
											c0-0.2,0-0.3,0-0.5c0-0.5,0-1,0-1.6c-0.2-12-1.2-22.4-1.3-35c0.1-5.3,0.1-10.5,0.2-15.6c0-2.6,0.1-5.1,0.1-7.6
											c0.1-1.4-0.7-3.4-1.9-4.8c-0.3-0.3-0.6-0.7-0.9-0.9c-0.2-0.1-0.3-0.2-0.5-0.4l-0.2-0.1l-0.4-0.2c-1.1-0.6-2.2-1.3-3.3-1.9
											c-2.2-1.2-4.4-2.5-6.6-3.8c-4.5-2.5-9-5-13.8-7.4c-7.5-3.8-15-7.6-22.2-11.6c-1.8-1-3.6-2-5.4-3l-1.3-0.7
											c-0.1-0.1-0.3-0.2-0.6-0.3c-0.5-0.2-1.1-0.3-1.7-0.4c-1.2-0.1-2.6,0.1-3.3,0.4c-0.9,0.4-1.7,0.9-2.6,1.3
											c-0.9,0.4-1.8,0.9-2.7,1.3c-11.5,5.5-19.6,7.6-29.6,11.6c-3.5,1.4-7.2,3.3-11.1,5.3c-1.9,1-3.9,2.1-5.9,3.1l-3,1.6
											c-0.4,0.2-1.1,0.6-1.6,1c-0.5,0.4-1,0.8-1.5,1.3c-1.4,1.5-2.6,2.6-3.7,4.8c0.3-1.5,0.8-3,1.7-4.4c0.8-1.4,1.9-2.8,3.6-4
											c2.3-1.6,4.6-3.1,7.1-4.6c4.9-3,10.3-5.9,16-9c1.6-0.8,2.4-0.9,3.6-1.4C217.1,72.9,220.1,70.6,223.4,68.5z"/>
										<path class="st8" d="M220,72.4c3.3-2.2,6.5-4.3,9.7-6.4c1.6-1.1,3.2-2.1,4.7-3.2l2.3-1.6l1.2-0.8l0.6-0.4
											c0.2-0.1,0.4-0.3,0.7-0.4c2.4-1.3,4.8-1.8,7.2-1.8c1.2,0,2.5,0.1,3.7,0.4c0.6,0.2,1.3,0.4,1.9,0.6c0.3,0.1,0.7,0.3,1,0.5
											l0.6,0.3c3.4,1.7,6.8,3.5,10.3,5.4c2,1.1,4,2.4,6,3.8c3,2.2,4.5,3.9,7,5.7c5.5,3.6,10.9,7.2,16.3,10.8
											c2.7,1.8,5.4,3.5,8.1,5.3l2,1.3c0.7,0.4,1.4,1,2,1.7c1.2,1.3,2,2.7,2.6,4.3c0.3,0.8,0.5,1.6,0.6,2.4
											c0.1,0.8,0.1,1.7,0.1,2.5c-0.1,1.6-0.1,3.2-0.2,4.8c-0.1,3.2-0.2,6.5-0.2,9.8c-0.1,6.6-0.1,13.2,0,20.1
											c0,5.4,0.1,10.6,0.1,15.8c0,2.6,0,5.2,0,7.7c0.2,2.6-0.8,5.1-2.3,7.2c-0.8,1-1.7,2-2.7,2.6c-1.1,0.6-2.2,1.3-3.3,1.9
											c-2.2,1.3-4.3,2.5-6.5,3.7c-4.3,2.5-8.6,5-12.9,7.4c-8.6,5-17.2,9.9-26,15c-1.1,0.6-2.2,1.3-3.3,1.9
											c-1.1,0.7-2.4,1.1-3.6,1.3c-2.6,0.4-5.3,0.1-7.6-1.3c-4.6-2.6-9.2-5.2-13.9-7.8c-10.8-6-21.3-11.8-31.9-17.4l-4-2.1
											l-2-1.1l-0.5-0.3l-0.6-0.3c-0.4-0.2-0.7-0.5-1.1-0.8c-1.3-1.1-2.4-2.5-3.2-4c-0.8-1.5-1.4-3.2-1.5-5.1
											c-0.2-6-0.4-12.1-0.6-18.2c-0.1-7.6-0.7-18.5-0.2-26.3c0.3-3.2,0.3-16,1-12.5c0.7,3.5,1.4,8.1,1.8,12.5
											c1,10.1,2,19.3,3.1,28.7c0.5,4.7,1,9.3,1.5,14.1l0.1,0.9c0,0.3,0.1,0.7,0.1,0.7c0.1,0.2,0.2,0.4,0.3,0.7
											c0.3,0.6,0.7,1.2,1.1,1.7c0.5,0.5,1,1,1.4,1.2c0-0.1,1.6,0.7,2.7,1.2c9.7,4.5,18.3,9.6,26.8,15c4.2,2.7,8.4,5.4,12.7,8.1
											c2.1,1.3,4.3,2.7,6.4,4.1c1.1,0.7,2.2,1.3,3.3,2l0.2,0.1l0.1,0.1l0,0c0,0,0.1,0,0.1,0.1c0.1,0,0.2,0.1,0.3,0.1
											c0.2,0.1,0.5,0.2,0.9,0.2c0.7,0.1,1.4,0.1,2.1,0c0.3,0,0.6-0.1,0.9-0.2c0.1,0,0.2-0.1,0.3-0.1c0.1,0,0.1,0,0.1-0.1
											c0,0,0,0,0.2-0.1c2.1-1.3,4.2-2.5,6.2-3.7c4.1-2.5,8-4.9,12-7.4c7.9-4.9,15.6-9.8,23.9-14.8c2.3-1.3,4.6-2.4,6.8-3.3
											c0.5-0.2,1.1-0.4,1.6-0.6c0.3-0.1,0.5-0.2,0.7-0.3l0.4-0.1c0.1,0,0.3-0.1,0.3-0.1c0.2,0.1,0.7,0,1-0.1
											c0.8-0.3,1.3-0.7,1.8-0.9c0.5-0.2,0.8-0.4,1.1-0.7c0.3-0.3,0.6-0.6,0.8-1.3c0-0.2,0.1-0.3,0.1-0.5c0-0.1,0-0.1,0-0.3
											c0-0.2,0-0.4,0-0.6c0-0.8,0-1.8,0-2.9c-0.2-12-1.2-22.4-1.3-35c0.1-5.3,0.1-10.5,0.2-15.6c0-1.3,0-2.5,0.1-3.8l0-1.9
											c0-0.3,0-0.3,0-0.5c0-0.1,0-0.3-0.1-0.5c-0.3-1.4-1.3-3.2-2.3-4.1c-0.1-0.1-0.3-0.2-0.4-0.3l-0.2-0.1l-0.4-0.2l-1.6-0.9
											c-1.1-0.6-2.2-1.3-3.3-1.9c-2.2-1.2-4.4-2.5-6.6-3.8c-4.5-2.5-9-5-13.8-7.4c-7.5-3.8-15-7.6-22.2-11.6
											c-1.7-1-3.4-1.9-5.1-2.8c-0.5-0.3-1.8-0.5-2.8-0.4c-0.5,0-1.1,0.1-1.4,0.2c-0.1,0-0.2,0-0.2,0.1c-0.1,0-0.1,0-0.4,0.2
											l-1.3,0.7c-1.8,0.9-3.6,1.8-5.3,2.6c-11.5,5.5-19.6,7.6-29.6,11.6c-3.5,1.4-7.2,3.3-11.1,5.3c-1.9,1-3.9,2.1-5.9,3.1
											l-1.5,0.8c-0.5,0.3-1.1,0.6-1.5,1c-1,0.8-1.8,1.6-2.5,2.6c-0.6,0.8-1.1,1.5-1.5,2.3c-0.5,0.8-0.9,1.6-1.3,2.7
											c0-3.1,1.1-5.8,3.1-8.1c0.5-0.6,1.1-1.1,1.7-1.6c0.8-0.5,1.2-0.8,1.7-1.1c1-0.6,2.1-1.2,3.2-1.9c4.4-2.4,9.2-4.8,14.9-7.9
											c1.6-0.8,2.4-0.9,3.6-1.4C213.7,76.8,216.7,74.5,220,72.4z"/>
										<path class="st9" d="M221.2,75.1c5.2-3.4,8.4-6,12.5-9c1-0.8,2.1-1.5,3.2-2.4c0.6-0.4,1.2-0.8,1.8-1.3
											c0.3-0.2,0.6-0.4,1-0.7c0.3-0.2,0.8-0.5,1.2-0.7c1.8-0.9,3.8-1.3,6.1-1.2c1.2,0.1,2.4,0.2,3.7,0.7
											c0.6,0.2,1.4,0.6,1.8,0.8c0.5,0.3,1,0.6,1.6,0.9c2,1.1,4,2.4,6,3.8c3,2.2,4.5,3.9,7,5.7c11,7.3,21.6,14.4,32.4,21.2l2,1.3
											c0.3,0.2,0.7,0.4,0.9,0.6c0.2,0.2,0.5,0.4,0.7,0.6c0.9,0.9,1.7,2,2.2,3.3c0.3,0.6,0.5,1.2,0.6,1.9
											c0.1,0.3,0.1,0.6,0.1,0.9l0,0.4l0,0.6c0,1.6-0.1,3.3-0.1,4.9c-0.1,6.6-0.1,13.2,0,20.1c0.1,10.7,0.1,20.4,0.1,29.5
											c0,1.1,0,2.3,0,3.4c0,0.6,0,1.1,0,1.7c0,0.4,0,0.8-0.1,1.2c-0.4,1.6-1.3,3.3-2.5,4.5c-0.3,0.3-0.6,0.6-0.9,0.8
											c-0.2,0.1-0.3,0.2-0.5,0.3l-0.7,0.4c-0.9,0.5-1.9,1.1-2.8,1.6c-1.9,1.1-3.7,2.1-5.6,3.2c-7.5,4.2-15,8.5-22.9,13
											c-4,2.3-8.1,4.7-12.3,7.2c-2.1,1.3-4.3,2.5-6.5,3.8l-0.8,0.5l-0.4,0.2l-0.3,0.2c-0.4,0.2-0.8,0.4-1.3,0.5
											c-1,0.3-2.1,0.4-3.1,0.3c-1.3-0.1-2.4-0.4-3.3-0.9c-1.3-0.7-2.6-1.5-3.9-2.2c-2.6-1.4-5.1-2.8-7.6-4.2
											c-5-2.7-9.8-5.4-14.6-8.1c-4.8-2.6-9.6-5.3-14.6-8c-2.5-1.3-5-2.7-7.6-4.1c-1.3-0.7-2.6-1.4-3.9-2.1
											c-0.3-0.2-0.6-0.3-0.9-0.5c-0.3-0.2-0.5-0.4-0.8-0.6c-0.5-0.4-1-0.9-1.4-1.5c-1-1.4-2.4-3.5-2.4-6.3
											c-0.2-3-0.4-6.3-0.6-9.6c-0.4-6.6-0.7-13.3-0.4-17.1c0.3-3.2-1.4-27.9-0.7-24.4c0.7,3.5,1.1,5.3,1.6,9.7
											c1,10.1,1.9,18.8,2.9,27.6c0.5,4.4,0.9,8.8,1.4,13.4c0.1,0.5,0.1,1.3,0.2,1.3c0.1,0.2,0.2,0.4,0.3,0.7
											c0.3,0.5,0.7,1.1,1.1,1.7c0.4,0.5,1,0.9,1.4,1.1c0-0.1,1.6,0.7,2.7,1.2c9.7,4.5,18.6,9.8,27.3,15.2
											c4.3,2.8,8.7,5.5,13,8.3c2.2,1.4,4.3,2.7,6.5,4.1l2.8,1.7c0.3,0.2,1,0.4,1.7,0.4c0.7,0,1.4,0,2-0.2
											c0.7-0.2,0.5-0.1,1.9-0.9c2.1-1.3,4.2-2.5,6.2-3.7c4.1-2.5,8-4.9,12-7.4c7.9-4.9,15.6-9.8,23.9-14.8
											c2.3-1.3,4.6-2.4,6.8-3.3c0.5-0.2,1.1-0.4,1.6-0.6c0.1,0,0.3-0.1,0.3-0.1l0.1,0c0.1,0,0.1,0,0.2,0c0.4,0,0.8-0.3,1.2-0.4
											c0.8-0.4,1.2-0.9,1.5-1.3c0.3-0.4,0.4-0.7,0.5-1.1c0-0.2,0-0.4,0-0.5l0-0.1c0-0.1,0-0.2,0-0.2c0-0.3,0-0.5,0-0.8
											c-0.1-1.2-0.1-2.8-0.1-5.1c-0.2-12,0.5-20.9,0.4-33.5c0.1-5.3,0.1-10.5,0.2-15.6c0-1.3,0-2.5,0-3.8l0-1c0-0.2,0-0.3,0-0.4
											c0-0.3-0.1-0.7-0.2-1c-0.4-1.5-1.6-3.1-2.6-3.8l-0.2-0.1l-0.4-0.2l-0.8-0.5l-1.6-0.9c-1.1-0.6-2.2-1.3-3.3-1.9
											c-2.2-1.2-4.4-2.5-6.6-3.8c-4.5-2.5-9-5-13.8-7.4c-7.5-3.8-15-7.6-22.2-11.6c-0.9-0.5-1.8-1-2.7-1.5l-1.3-0.8l-0.2-0.1
											c-0.1,0-0.1-0.1-0.2-0.1c-0.7-0.3-2.1-0.4-3.1-0.2c-0.5,0.1-0.9,0.2-1.1,0.3c-0.8,0.4-1.7,0.9-2.5,1.3
											c-1.8,0.9-3.6,1.8-5.3,2.6c-11.5,5.5-19.6,7.6-29.6,11.6c-3.5,1.4-7.2,3.3-11.1,5.3c-1.9,1-3.9,2.1-5.9,3.1
											c-0.5,0.3-1,0.5-1.5,0.9c-0.5,0.3-1,0.7-1.4,1.1c-0.9,0.8-1.6,1.8-2.2,2.8c-0.9,1.6-1.9,2.9-2.3,5.3c-0.2-1.6,0-3,0.4-4.3
											c0.4-1.3,1-2.5,1.7-3.5c0.7-1,1.6-2,2.7-2.8c0.3-0.2,0.6-0.4,0.9-0.6l0.7-0.4c0.5-0.2,0.9-0.5,1.4-0.7
											c3.8-1.9,8.1-3.7,13.8-6.8c1.6-0.8,3.4-0.8,4.6-1.2C198.7,86.1,221.2,75.1,221.2,75.1z"/>
									</g>
								</g>
							</g>
						</g>
					</g>
					<g>
						<g>
							<g>
								<g class="st0">
									<g class="st0">
										<path class="st1" d="M195,108.3c0.9,2.4,2.1,4.5,2.5,6.9c0.1,0.3-0.1,0.7-0.3,1.1c-0.4,0.6-1.2,0.9-1.5,1.3
											c-1.7,4-2.4,8.1-2,12.2c0.4,6.5-1,12.5-0.3,19.1c0.3,3.7,1.3,7.2,2.1,10.9c0.1,1.1,0.1,2.2-0.4,3.4
											c-0.3,0.5-1.5,1.2-2.2,0.7c-0.7-0.5-1.4-1.2-1.8-1.9c-1.9-3-4.2-5.6-6-8.7c-1.9-3.2,0.4-6.1,0.7-9.2c0.1-3-1-5.6-1.4-8.6
											c0.1-0.8,0.7-1.6,1.5-2c1.4-0.9,2.4-0.6,2.4-2c-0.2-1.8-1.2-3.4-1.3-5.3c0.1-3.2,0.8-6.1-0.2-9.3
											c-0.9-2.5-1.7-5.1-0.5-7.4c1-1.9,3.2-3.1,4.7-4.7c1-1.1,1-2.5,1.4-3.8c0.1-0.3,0.5-0.5,0.8-0.8c1.8,1.5,2.4,3.7,2,5.6
											c-0.1,0.3-0.4,0.4-0.6,0.6C194.4,107.2,194.8,107.8,195,108.3z"/>
										<path class="st2" d="M194.2,107.9c0.9,2.4,2.1,4.5,2.5,6.9c0.1,0.3-0.1,0.7-0.3,1.1c-0.4,0.6-1.2,0.9-1.5,1.3
											c-1.7,4-2.4,8.1-2,12.2c0.4,6.5-0.8,12.4-0.1,18.9c0.3,3.7,1.3,7.2,2.1,10.9c0.1,1.1,0.1,2.2-0.4,3.4
											c-0.3,0.5-0.9,1.8-1.6,1.3c-0.7-0.5-1.4-1.2-1.8-1.9c-1.9-3-4.2-5.6-6-8.7c-1.9-3.2,0.4-6.1,0.7-9.2c0.1-3-1-5.6-1.4-8.6
											c0.1-0.8,0.7-1.6,1.5-2c1.4-0.9,2.4-0.5,2.4-1.9c-0.2-1.8-1.2-3.4-1.3-5.3c0.1-3.2,0.8-6.1-0.2-9.3
											c-0.9-2.5-1.7-5.1-0.5-7.4c1-1.9,3.2-3.1,4.7-4.7c1-1.1,1-2.5,1.4-3.8c0.1-0.3,0.5-0.5,0.8-0.8c1.8,1.5,1.6,3.2,1.2,5.2
											c-0.1,0.3-0.4,0.4-0.6,0.6C193.5,106.7,194,107.3,194.2,107.9z"/>
										<path class="st3" d="M192.5,107.2c0.9,2.4,2.1,4.5,2.5,6.9c0.1,0.3-0.1,0.7-0.3,1.1c-0.4,0.6-1.2,0.9-1.5,1.3
											c-1.7,4-3.2,7.6-2.8,11.8c0.4,6.5-0.2,11.9,0.4,18.5c0.4,3.7,1.3,7.2,2.1,10.9c0.1,1.1,0.7,2.8,0.2,4
											c-0.3,0.5-0.3,2.4-1,1.9c-0.7-0.5-1.4-1.2-1.8-1.9c-1.9-3-4.2-5.6-6-8.7c-1.9-3.2,0.4-6.1,0.7-9.2c0.1-3-1-5.6-1.4-8.6
											c0.1-0.8,0.7-1.6,1.5-2c1.4-0.9,2.3-0.4,2.3-1.8c-0.2-1.8-1.2-3.4-1.3-5.3c0.1-3.2,0.8-6.1-0.2-9.3
											c-0.9-2.5-1.7-5.1-0.5-7.4c1-1.9,3.2-3.1,4.7-4.7c1-1.1,1-2.5,1.4-3.8c0.1-0.3,0.5-0.5,0.8-0.8c1.8,1.5,0.8,2.8,0.4,4.7
											c-0.1,0.3-0.4,0.4-0.6,0.6C191.8,106,192.3,106.6,192.5,107.2z"/>
										<path class="st4" d="M189.5,107.1c0.7,1.9,2.6,2.5,3,5.4c0.1,0.3-0.1,0.7-0.3,1.1c-0.4,0.6-1.2,0.9-1.5,1.3
											c-1.8,4-3.2,7.6-2.8,11.8c0.4,6.5-0.7,10.3-0.1,16.8c0.4,3.7,0.8,6.6,1.5,10.3c0.1,1.1,1.8,4,1.3,5.1
											c-0.3,0.5,1.4,4.2,0.7,3.7c-0.7-0.5-1.1-0.8-1.6-1.5c-1.9-3-3.9-5.2-5.7-8.3c-1.9-3.2,0.4-6.2,0.6-9.3
											c0.1-3-1-5.6-1.4-8.6c0.1-0.8,0.7-1.6,1.5-2c1.4-0.9,0.5-0.6,0.5-2c-0.2-1.8,0.5-3.1,0.4-5c0.1-3.2,0.8-6.1-0.2-9.3
											c-0.9-2.5-1.7-5.1-0.5-7.4c1-1.9,3.2-3.1,4.7-4.7c1-1.1,1-2.5,1.4-3.8c0.1-0.3,0.5-0.5,0.8-0.8c1.8,1.5,0,2.3-0.4,4.3
											c-0.1,0.3-1,0.5-1.2,0.7C191.3,103.4,189.5,107.1,189.5,107.1z"/>
									</g>
								</g>
							</g>
						</g>
					</g>
					<g>
						<g>
							<g>
								<g class="st0">
									<g class="st0">
										<path class="st1" d="M225.8,66.3c3.3-2.2,6.5-4.3,9.7-6.4c0.8-0.5,1.6-1.1,2.4-1.6l0.3-0.2l0.5-0.3
											c0.4-0.2,0.7-0.4,1.1-0.5c0.7-0.3,1.4-0.6,2.1-0.8c2.7-0.8,5.4-0.9,8.2-0.5c1.4,0.2,2.9,0.7,4.4,1.5l2.5,1.3
											c1.7,0.9,3.4,1.7,5.1,2.6c3.4,1.7,6.8,3.5,10.3,5.5c2,1.1,4,2.4,6,3.8c3,2.2,4.5,3.9,7,5.7c5.5,3.7,11.1,7.3,16.7,10.9
											l2.1,1.4l1.1,0.7l0.7,0.5c0.3,0.2,0.5,0.4,0.7,0.6c1.9,1.6,3.1,3.4,4,5.4c0.5,1,0.8,2,1.1,3.2c0.1,0.6,0.2,1.1,0.3,1.8
											c0,0.3,0,0.6,0,0.9c0,0.4,0,0.5,0,0.7c0,1.7-0.1,3.4-0.1,5.1c-0.3,13.6-0.4,27.3-0.2,41c0,2.7,0,5.4,0.1,8
											c0,1.3,0,2.7,0,4l0,1l0,0.5l0,0.7c-0.1,0.9-0.2,1.8-0.5,2.7c-0.5,1.7-1.2,3.2-2.2,4.5c-1,1.4-2.1,2.6-3.7,3.7l-0.6,0.4
											l-0.4,0.2l-0.9,0.5l-1.7,1l-3.4,2c-9.1,5.2-18.2,10.3-27.3,15.4c-4.5,2.6-9.1,5.1-13.6,7.7l-3.4,1.9l-0.9,0.5
											c-0.3,0.2-0.5,0.3-1,0.5c-0.8,0.4-1.6,0.7-2.4,0.9c-1.6,0.4-3.2,0.5-4.8,0.4c-1.6-0.1-3.2-0.4-4.8-1.2
											c-4.6-2.7-9.3-5.3-14-8c-4.6-2.7-9.3-5.3-14.1-7.9c-5.4-3-10.7-5.9-16-8.8c-2.7-1.4-5.3-2.9-8-4.3l-1-0.5l-0.3-0.1
											l-0.4-0.2c-0.2-0.1-0.5-0.3-0.7-0.5c-0.9-0.6-1.6-1.3-2.3-2.1c-1.3-1.5-2.3-3.1-3-5c-0.4-0.9-0.6-1.9-0.8-3
											c0-0.3-0.1-0.5-0.1-0.8l0-0.7l0-1.1l-0.1-4.5c-0.1-3-0.2-6-0.3-9c-0.2-6-0.4-12-0.6-18.1c-0.1-7.6-0.1-14.6,0.4-22.3
											c0.3-3.2,1.5-8.1,2.2-4.6c0.7,3.5,1.4,8.1,1.8,12.5c1,10.1,2,19.3,3.1,28.7c0.5,4.7,1,9.3,1.5,14.1
											c0.1,1.2,0.2,2.4,0.4,3.6l0.1,0.9c0,0.2,0.1,0.2,0.1,0.4c0.1,0.3,0.2,0.6,0.4,0.9c0.3,0.6,0.8,1.3,1.3,1.9
											c0.5,0.6,1.1,1,1.5,1.1c0,0,0.1,0,0.1,0l0.5,0.2l0.9,0.4c0.6,0.3,1.2,0.6,1.8,0.9c1.2,0.6,2.3,1.2,3.5,1.8
											c2.3,1.2,4.6,2.4,6.8,3.7c4.4,2.5,8.7,5.1,13,7.8c4.2,2.7,8.4,5.4,12.7,8.1c2.1,1.3,4.3,2.7,6.4,4c1.1,0.7,2.2,1.3,3.3,2
											l1.6,1l0.8,0.5c0.3,0.2,0.6,0.4,0.6,0.4c0.4,0.2,1.1,0.4,1.9,0.5c0.8,0.1,1.6,0,2.3-0.1c0.4-0.1,0.7-0.2,0.9-0.3
											c0.1-0.1,0.2-0.1,0.3-0.2c0,0,0.4-0.2,0.6-0.4c1-0.6,2.1-1.2,3.1-1.9c4.1-2.5,8-4.9,11.9-7.4c7.9-4.9,15.6-9.8,23.9-14.9
											c4.5-2.5,9.4-4.6,12.2-5.3c0.1,0,0.2-0.1,0.3-0.1c0.1,0,0.2-0.1,0.2,0c0.1,0,0.2,0,0.2,0c0.2,0,0.3,0,0.5-0.1
											c0.3-0.1,0.6-0.2,0.9-0.2c0.6-0.2,1-0.4,1.5-0.7c0.5-0.3,0.9-0.8,1.4-1.7c0.2-0.4,0.4-0.9,0.6-1.6c0-0.1,0.1-0.3,0.1-0.5
											c0-0.2,0-0.3,0-0.6c0-0.5,0-1,0-1.6c-0.2-12-1.2-22.4-1.3-35c0.1-5.3,0.1-10.5,0.2-15.6c0-2.6,0.1-5.1,0.1-7.6
											c0.1-1.4-0.8-3.4-1.9-4.8c-0.3-0.3-0.6-0.7-0.9-0.9c-0.2-0.1-0.3-0.3-0.5-0.4l-0.2-0.1l-0.4-0.2c-1.1-0.6-2.2-1.3-3.3-1.9
											c-2.2-1.2-4.4-2.5-6.6-3.8c-4.5-2.5-9-5-13.8-7.4c-7.5-3.8-15-7.6-22.2-11.6c-1.8-1-3.6-2-5.4-3l-0.7-0.4l-0.3-0.2
											l-0.1-0.1l-0.1,0c-0.1-0.1-0.4-0.2-0.6-0.3c-0.5-0.2-1.1-0.3-1.7-0.3c-1.3-0.1-2.6,0.1-3.3,0.4c-1.8,0.9-3.6,1.8-5.3,2.6
											c-11.5,5.4-19.6,7.6-29.6,11.6c-3.5,1.4-7.2,3.3-11.1,5.3c-1.9,1-3.9,2.1-5.9,3.1l-3,1.6c-0.4,0.2-1.1,0.6-1.7,1
											c-0.5,0.4-1,0.8-1.5,1.3c-1.4,1.5-2.6,2.7-3.7,4.8c0.3-1.5,0.8-3.1,1.7-4.6c0.5-0.8,1-1.5,1.7-2.2
											c0.3-0.4,0.7-0.7,1.1-1.1c0.2-0.2,0.4-0.3,0.7-0.5l0.6-0.4c2.4-1.7,5.1-3.5,7.8-5.3c5.5-3.5,11.4-7,17.1-10.1
											c1.6-0.8,2.4-0.9,3.6-1.4C219.4,70.7,222.5,68.4,225.8,66.3z"/>
										<path class="st2" d="M223.6,68.5c3.3-2.2,6.5-4.3,9.7-6.4c1.6-1.1,3.2-2.1,4.7-3.1l0.3-0.2l0.1-0.1l0.2-0.1
											c0.3-0.2,0.7-0.4,1-0.5c0.7-0.3,1.3-0.6,2-0.8c1.3-0.4,2.6-0.6,3.9-0.7c1.3-0.1,2.6,0,4,0.2c1.4,0.2,2.8,0.6,4.2,1.4
											c1.7,0.9,3.4,1.7,5.1,2.6c3.4,1.7,6.8,3.5,10.3,5.5c2,1.1,4,2.4,6,3.8c3,2.2,4.5,3.9,7,5.7c5.5,3.7,11.1,7.3,16.7,10.9
											c1.4,0.9,2.8,1.8,4.3,2.7l1.1,0.7l0.6,0.3c0.2,0.2,0.5,0.3,0.7,0.5c0.9,0.7,1.7,1.5,2.3,2.3c1.3,1.7,2.2,3.5,2.8,5.5
											c0.3,1,0.4,2.1,0.4,3.3l-0.1,2.5c-0.3,13.6-0.4,27.3-0.2,41c0,5.4,0.1,10.7,0.1,16l0,0.5l0,0.6c0,0.4-0.1,0.9-0.2,1.3
											c-0.1,0.8-0.4,1.6-0.7,2.3c-0.6,1.5-1.3,2.8-2.3,4.1c-0.5,0.6-1,1.2-1.7,1.7c-0.3,0.3-0.7,0.5-1,0.8l-0.6,0.3l-0.4,0.3
											l-3.4,1.9c-9,5.1-18,10.2-26.9,15.3c-4.5,2.5-9,5.1-13.5,7.7c-2.2,1.3-4.5,2.6-6.8,3.9l-0.8,0.5l-0.4,0.2l-0.5,0.3
											c-0.7,0.4-1.5,0.6-2.3,0.8c-1.5,0.4-3,0.5-4.6,0.4c-1.5-0.1-3-0.4-4.5-1.1l-0.6-0.3l-0.4-0.3l-0.9-0.5l-1.7-1
											c-2.3-1.3-4.6-2.6-6.9-3.9c-4.6-2.6-9.3-5.2-14-7.9c-5.4-3-10.7-5.9-16-8.8c-2.7-1.4-5.3-2.9-8-4.3l-4-2.1l-0.5-0.3
											l-0.2-0.1l-0.3-0.2c-0.5-0.3-0.9-0.6-1.3-0.9c-0.8-0.6-1.5-1.3-2.1-2c-1.2-1.5-2.1-3.1-2.8-4.9c-0.3-0.9-0.5-1.9-0.6-3
											l0-0.8l0-0.6l0-1.1c-0.1-3-0.2-6-0.3-9c-0.2-6-0.4-12-0.6-18.1c-0.1-7.6-0.1-14.6,0.4-22.3c0.3-3.2,0.9-12,1.6-8.6
											s1.4,8.1,1.8,12.5c1,10.1,2,19.3,3.1,28.7c0.5,4.7,1,9.3,1.5,14.1c0.1,1.2,0.2,2.4,0.4,3.6l0.1,0.9c0,0.1,0.1,0.2,0.1,0.4
											c0.1,0.3,0.2,0.6,0.4,0.9c0.3,0.6,0.8,1.3,1.3,1.8c0.5,0.5,1.1,0.9,1.5,1c18.7,8.6,34.8,20.6,52,30.8
											c0.8,0.5,2.8,0.7,4.1,0.4c0.3-0.1,0.6-0.2,0.9-0.3c0.1-0.1,0.2-0.1,0.3-0.2l0.1,0l0.2-0.1l0.4-0.2c1-0.6,2.1-1.2,3.1-1.9
											c4.1-2.5,8-4.9,11.9-7.4c7.8-4.9,15.6-9.8,23.9-14.9c4.5-2.5,9.4-4.6,12.3-5.3c0.4-0.2,0.5-0.1,0.7-0.1
											c0.2,0,0.3,0,0.5-0.1c0.3-0.1,0.6-0.1,0.9-0.2c0.6-0.2,1-0.4,1.5-0.7c0.5-0.3,0.9-0.8,1.4-1.6c0.2-0.4,0.4-0.9,0.6-1.5
											c0-0.1,0-0.3,0.1-0.5c0-0.2,0-0.3,0-0.5c0-0.5,0-1,0-1.6c-0.2-12-1.2-22.4-1.3-35c0.1-5.3,0.1-10.5,0.2-15.6
											c0-2.6,0.1-5.1,0.1-7.6c0.1-1.4-0.7-3.4-1.9-4.8c-0.3-0.3-0.6-0.7-0.9-0.9c-0.2-0.1-0.3-0.2-0.5-0.4l-0.2-0.1l-0.4-0.2
											c-1.1-0.6-2.2-1.3-3.3-1.9c-2.2-1.2-4.4-2.5-6.6-3.8c-4.5-2.5-9-5-13.8-7.4c-7.5-3.8-15-7.6-22.2-11.6c-1.8-1-3.6-2-5.4-3
											l-1.2-0.7c-0.1-0.1-0.3-0.2-0.6-0.3c-0.5-0.2-1.1-0.3-1.7-0.3c-1.2-0.1-2.6,0.1-3.3,0.4c-1.7,0.9-3.5,1.8-5.3,2.6
											c-11.5,5.5-19.6,7.6-29.6,11.6c-3.5,1.4-7.2,3.3-11.1,5.3c-1.9,1-3.9,2.1-5.9,3.1l-3,1.6c-0.4,0.2-1.1,0.6-1.6,1
											c-0.5,0.4-1,0.8-1.5,1.3c-1.4,1.5-2.6,2.6-3.7,4.8c0.3-1.5,0.8-3,1.7-4.4c0.8-1.4,1.9-2.8,3.6-4c2.3-1.6,4.6-3.1,7.1-4.6
											c4.9-3,10.3-5.9,16-9c1.6-0.8,2.4-0.9,3.6-1.4C217.3,72.9,220.4,70.7,223.6,68.5z"/>
										<path class="st3" d="M220.2,72.4c3.3-2.2,6.5-4.3,9.7-6.4c3.2-2.1,6.3-4.2,9.5-6.3c2.4-1.4,4.8-1.8,7.2-1.9
											c1.2,0,2.5,0.1,3.7,0.4c0.6,0.1,1.3,0.4,1.9,0.6c0.3,0.1,0.7,0.3,1,0.5l0.6,0.3c3.4,1.7,6.8,3.5,10.3,5.5
											c2,1.1,4,2.4,6,3.8c3,2.2,4.5,3.9,7,5.7c5.5,3.7,10.9,7.2,16.3,10.8c2.7,1.8,5.4,3.5,8.1,5.3l2,1.3c0.7,0.4,1.4,1,2,1.7
											c1.2,1.3,2,2.7,2.6,4.3c0.3,0.8,0.5,1.6,0.6,2.4c0.1,0.8,0.1,1.7,0.1,2.5c-0.1,1.6-0.1,3.2-0.2,4.8
											c-0.1,3.2-0.2,6.5-0.2,9.8c-0.1,6.6-0.1,13.2,0,20.1c0,5.4,0.1,10.6,0.1,15.8c0,2.6,0,5.2,0,7.7c0.2,2.6-0.8,5.1-2.3,7.2
											c-0.8,1-1.7,2-2.7,2.6c-1.1,0.7-2.2,1.3-3.3,1.9c-2.2,1.3-4.3,2.5-6.5,3.7c-4.3,2.5-8.6,5-12.9,7.4
											c-8.6,5-17.2,10-26,15.1c-1.1,0.6-2.2,1.3-3.3,1.9c-1.1,0.7-2.4,1.1-3.7,1.3c-2.6,0.4-5.3,0.1-7.6-1.3
											c-4.6-2.6-9.2-5.2-13.9-7.8c-10.8-6-21.3-11.7-31.9-17.4l-4-2.1l-2-1.1l-0.5-0.3l-0.6-0.3c-0.4-0.2-0.7-0.5-1.1-0.8
											c-1.3-1.1-2.4-2.5-3.2-4c-0.8-1.5-1.4-3.2-1.5-5.1c-0.2-6-0.4-12.1-0.6-18.2c-0.1-7.6-0.7-18.5-0.2-26.3
											c0.3-3.2,0.3-16,1-12.5c0.7,3.5,1.4,8.1,1.8,12.5c1,10.1,2,19.3,3.1,28.7c0.5,4.7,1,9.3,1.5,14.1l0.1,0.9
											c0,0.3,0.1,0.7,0.1,0.7c0.1,0.2,0.2,0.4,0.3,0.7c0.3,0.6,0.7,1.2,1.1,1.7c0.5,0.5,1,1,1.4,1.2c0-0.1,1.6,0.7,2.7,1.2
											c9.7,4.5,18.4,9.6,26.8,15c4.2,2.7,8.4,5.4,12.7,8.1c2.1,1.3,4.3,2.7,6.4,4c1.1,0.7,2.2,1.3,3.3,2l0.4,0.2
											c0,0,0.1,0,0.1,0.1c0.1,0,0.2,0.1,0.3,0.1c0.2,0.1,0.5,0.2,0.9,0.2c1.3,0.3,3-0.1,3.5-0.4c2.1-1.3,4.2-2.5,6.2-3.7
											c4.1-2.5,8-4.9,11.9-7.4c7.8-4.9,15.6-9.8,23.9-14.9c2.3-1.3,4.6-2.4,6.8-3.3c0.5-0.2,1.1-0.4,1.6-0.6
											c0.3-0.1,0.5-0.2,0.7-0.3l0.4-0.1c0.1,0,0.3-0.1,0.3-0.1c0.2,0.1,0.7,0,1-0.1c0.8-0.3,1.3-0.7,1.8-0.9
											c0.5-0.2,0.8-0.4,1.1-0.7c0.3-0.3,0.6-0.6,0.8-1.3c0-0.2,0.1-0.3,0.1-0.5c0-0.1,0-0.1,0-0.3c0-0.2,0-0.4,0-0.6
											c0-0.8,0-1.8,0-2.9c-0.2-12-1.2-22.4-1.3-35c0.1-5.3,0.1-10.5,0.2-15.6c0-1.3,0-2.5,0.1-3.8l0-1.9c0-0.3,0-0.3,0-0.5
											c0-0.1,0-0.3-0.1-0.5c-0.3-1.4-1.3-3.2-2.3-4.1c-0.1-0.1-0.3-0.2-0.4-0.3l-0.2-0.1l-0.4-0.2l-1.6-1
											c-1.1-0.6-2.2-1.3-3.3-1.9c-2.2-1.2-4.4-2.5-6.6-3.8c-4.5-2.5-9-5-13.8-7.4c-7.5-3.8-15-7.6-22.2-11.6
											c-1.7-0.9-3.4-1.9-5-2.8c-0.5-0.3-1.8-0.5-2.9-0.4c-0.5,0-1.1,0.1-1.4,0.2c-0.1,0-0.2,0-0.2,0.1c0,0-0.1,0-0.1,0l-0.3,0.2
											l-1.3,0.7c-1.8,0.9-3.6,1.8-5.3,2.6c-11.5,5.5-19.6,7.6-29.6,11.6c-3.5,1.4-7.2,3.3-11.1,5.3c-1.9,1-3.9,2.1-5.9,3.1
											l-1.5,0.8c-0.5,0.2-1.1,0.6-1.5,1c-1,0.8-1.8,1.6-2.5,2.6c-0.6,0.8-1.1,1.5-1.5,2.3c-0.5,0.8-0.9,1.6-1.3,2.7
											c0-3.1,1.1-5.8,3.1-8.1c0.5-0.6,1.1-1.1,1.7-1.6c0.8-0.5,1.2-0.8,1.7-1.1c1-0.6,2.1-1.2,3.2-1.8c4.4-2.4,9.2-4.8,14.9-7.9
											c1.6-0.8,2.4-0.9,3.6-1.4C213.9,76.8,217,74.6,220.2,72.4z"/>
										<path class="st4" d="M221.5,75.1c5.2-3.4,8.4-6,12.5-9c1-0.7,2.1-1.5,3.2-2.4c0.6-0.4,1.2-0.8,1.8-1.3
											c0.6-0.4,1.2-0.9,2.1-1.4c1.8-0.9,3.8-1.3,6.1-1.3c1.2,0,2.4,0.2,3.7,0.7c0.3,0.1,0.6,0.2,1,0.4l0.5,0.2l0.4,0.2
											c0.5,0.3,1,0.6,1.6,0.9c2,1.1,4,2.4,6,3.8c3,2.2,4.5,3.9,7,5.7c11,7.3,21.6,14.4,32.4,21.2l2,1.3c0.3,0.2,0.7,0.4,0.9,0.6
											c0.2,0.2,0.5,0.4,0.7,0.6c0.9,0.9,1.7,2,2.2,3.3c0.3,0.6,0.5,1.2,0.6,1.9c0.1,0.3,0.1,0.6,0.1,0.9l0,0.4l0,0.6
											c0,1.6-0.1,3.3-0.1,4.9c-0.1,6.6-0.1,13.2,0,20.1c0.1,10.7,0.1,20.4,0.1,29.5c0,1.1,0,2.3,0,3.4c0,0.6,0,1.1,0,1.7
											c0,0.4,0,0.8-0.1,1.2c-0.4,1.6-1.3,3.3-2.5,4.5c-0.3,0.3-0.6,0.6-0.9,0.8c-0.2,0.1-0.3,0.2-0.5,0.3l-0.7,0.4
											c-0.9,0.5-1.9,1.1-2.8,1.6c-1.9,1.1-3.7,2.1-5.6,3.2c-7.5,4.2-14.9,8.5-22.9,13.1c-4,2.3-8,4.7-12.3,7.2
											c-2.1,1.3-4.3,2.5-6.5,3.9l-0.8,0.5l-0.4,0.2l-0.3,0.2c-0.4,0.2-0.8,0.4-1.3,0.5c-1,0.3-2.1,0.4-3.2,0.3
											c-0.6,0-1.2-0.1-1.8-0.3c-0.3-0.1-0.5-0.2-0.8-0.3c-0.1,0-0.2-0.1-0.4-0.2l-0.2-0.1l-0.2-0.1c-1.3-0.7-2.6-1.5-3.9-2.2
											c-2.6-1.4-5.1-2.8-7.6-4.2c-5-2.7-9.8-5.4-14.6-8.1c-4.8-2.6-9.6-5.3-14.6-8c-2.5-1.3-5-2.7-7.6-4.1
											c-1.3-0.7-2.6-1.4-3.9-2.1c-0.3-0.2-0.6-0.3-0.9-0.5c-0.3-0.2-0.5-0.4-0.8-0.6c-0.5-0.4-1-0.9-1.4-1.5
											c-1-1.4-2.4-3.5-2.4-6.3c-0.2-3-0.4-6.3-0.6-9.6c-0.4-6.6-0.7-13.3-0.4-17.1c0.3-3.2-1.4-27.9-0.7-24.4
											c0.7,3.5,1.1,5.3,1.6,9.7c1,10.1,1.9,18.8,2.9,27.6c0.5,4.4,0.9,8.8,1.4,13.4c0.1,0.5,0.1,1.3,0.2,1.3
											c0.1,0.2,0.2,0.4,0.3,0.7c0.3,0.5,0.7,1.1,1.1,1.7c0.4,0.5,1,0.9,1.4,1.1c0-0.1,1.6,0.7,2.7,1.2
											c9.7,4.5,18.6,9.8,27.3,15.2c4.3,2.8,8.7,5.5,13,8.3c2.2,1.4,4.3,2.7,6.5,4.1l2.9,1.8c0.3,0.2,1,0.4,1.7,0.4
											c0.7,0.1,1.4,0,2-0.1c0.3-0.1,0.5-0.2,0.7-0.2l1.2-0.7c2.1-1.3,4.2-2.5,6.2-3.7c4.1-2.5,8-4.9,11.9-7.4
											c7.8-4.9,15.6-9.8,23.9-14.9c2.3-1.3,4.6-2.4,6.8-3.3c0.5-0.2,1.1-0.4,1.6-0.6c0.1,0,0.3-0.1,0.3-0.1l0.1,0
											c0.1,0,0.1,0,0.2,0c0.4-0.1,0.8-0.3,1.2-0.4c0.8-0.4,1.2-0.9,1.5-1.3c0.3-0.4,0.4-0.7,0.5-1.1c0-0.2,0-0.4,0-0.5l0-0.1
											c0-0.1,0-0.2,0-0.2c0-0.3,0-0.5,0-0.8c-0.1-1.2-0.1-2.8-0.1-5.1c-0.2-12,0.5-20.9,0.4-33.5c0.1-5.3,0.1-10.5,0.2-15.6
											c0-1.3,0-2.5,0-3.8l0-1c0-0.2,0-0.3,0-0.4c0-0.3-0.1-0.7-0.2-1c-0.4-1.5-1.6-3.1-2.6-3.8l-0.2-0.1l-0.4-0.2l-0.8-0.5
											l-1.6-1c-1.1-0.6-2.2-1.3-3.3-1.9c-2.2-1.2-4.4-2.5-6.6-3.8c-4.5-2.5-9-5-13.8-7.4c-7.5-3.8-15-7.6-22.2-11.6
											c-0.9-0.5-1.8-1-2.7-1.5l-1.3-0.7c-0.1,0-0.2-0.1-0.4-0.2c-0.7-0.3-2.1-0.4-3.1-0.2c-0.5,0.1-0.9,0.2-1.1,0.3
											c-0.9,0.4-1.7,0.9-2.6,1.3c-1.8,0.9-3.6,1.8-5.3,2.6c-11.5,5.4-19.6,7.6-29.6,11.6c-3.5,1.4-7.2,3.3-11.1,5.3
											c-1.9,1-3.9,2.1-5.9,3.1c-0.5,0.3-1,0.5-1.5,0.9c-0.5,0.3-1,0.7-1.4,1.1c-0.9,0.8-1.6,1.8-2.2,2.8
											c-0.9,1.6-1.9,2.9-2.3,5.3c-0.2-1.6,0-3,0.4-4.3c0.4-1.3,1-2.5,1.7-3.5c0.7-1,1.6-2,2.7-2.8c0.3-0.2,0.6-0.4,0.9-0.6
											l0.7-0.4c0.5-0.2,0.9-0.5,1.4-0.7c3.8-1.9,8.1-3.7,13.8-6.8c1.6-0.8,3.4-0.8,4.6-1.2C198.9,86.1,221.5,75.1,221.5,75.1z"
											/>
									</g>
								</g>
							</g>
						</g>
					</g>
					<g>
						<g>
							<g>
								<g class="st0">
									<g class="st0">
										<path class="st1" d="M251.9,187.1c1.6-1.9,2.8-4.1,4.7-5.6c0.3-0.2,0.7-0.2,1.1-0.3c0.7,0.1,1.3,0.6,1.9,0.6
											c4.3-0.5,8.2-2,11.6-4.4c5.4-3.6,11.3-5.4,16.7-9.3c3-2.2,5.6-4.8,8.4-7.2c0.9-0.7,1.9-1.2,3.1-1.3
											c0.6,0.1,1.8,0.7,1.7,1.5c-0.1,0.9-0.4,1.8-0.7,2.5c-1.7,3.2-2.7,6.5-4.5,9.6c-1.8,3.3-5.5,2.7-8.3,4
											c-2.7,1.4-4.4,3.7-6.7,5.5c-0.7,0.3-1.7,0.2-2.5-0.3c-1.5-0.8-1.7-1.8-2.9-1.1c-1.5,1-2.3,2.8-3.9,3.8
											c-2.8,1.5-5.7,2.3-8,4.8c-1.8,2-3.5,4-6.2,4.1c-2.2,0.1-4.3-1.2-6.5-1.7c-1.5-0.3-2.7,0.4-4,0.7c-0.3,0.1-0.7-0.2-1.1-0.3
											c0.4-2.3,2-3.9,3.9-4.5c0.3-0.1,0.5,0.2,0.8,0.3C251.2,188.2,251.5,187.5,251.9,187.1z"/>
										<path class="st2" d="M251.9,188c1.6-1.9,2.8-4.1,4.7-5.6c0.3-0.2,0.7-0.2,1.1-0.3c0.7,0.1,1.3,0.6,1.9,0.6
											c4.3-0.5,8.2-2,11.6-4.4c5.4-3.6,11.1-5.5,16.5-9.4c3-2.2,5.6-4.8,8.4-7.3c0.9-0.7,1.9-1.2,3.1-1.3c0.6,0.1,2-0.1,1.9,0.7
											c-0.1,0.9-0.4,1.8-0.7,2.5c-1.7,3.2-2.7,6.5-4.5,9.6c-1.8,3.3-5.5,2.7-8.3,4c-2.7,1.4-4.4,3.7-6.7,5.5
											c-0.7,0.3-1.7,0.2-2.5-0.3c-1.5-0.8-1.7-1.8-2.9-1.1c-1.5,1.1-2.3,2.8-3.9,3.8c-2.8,1.5-5.7,2.3-8,4.8
											c-1.8,2-3.5,4-6.2,4.1c-2.2,0.1-4.3-1.2-6.5-1.7c-1.5-0.3-2.7,0.4-4,0.7c-0.3,0.1-0.7-0.2-1.1-0.3c0.4-2.3,2-3,3.9-3.6
											c0.3-0.1,0.5,0.2,0.8,0.3C251.2,189.2,251.5,188.5,251.9,188z"/>
										<path class="st3" d="M252.1,189.9c1.6-1.9,2.8-4.1,4.7-5.6c0.3-0.2,0.7-0.2,1.1-0.3c0.7,0.1,1.3,0.6,1.9,0.6
											c4.3-0.5,8.2-1.1,11.6-3.5c5.4-3.6,10.4-5.8,15.8-9.6c3-2.2,5.6-4.8,8.4-7.3c0.9-0.7,2.1-2,3.3-2.1
											c0.6,0.1,2.2-0.9,2.1-0.1c-0.1,0.9-0.4,1.8-0.7,2.5c-1.7,3.2-2.7,6.5-4.5,9.6c-1.8,3.2-5.5,2.7-8.3,4
											c-2.7,1.4-4.4,3.7-6.7,5.5c-0.7,0.3-1.7,0.2-2.5-0.3c-1.5-0.8-1.5-1.8-2.7-1.1c-1.5,1-2.3,2.8-3.9,3.8
											c-2.8,1.5-5.7,2.3-8,4.8c-1.8,2-3.5,4-6.2,4.1c-2.2,0.1-4.3-1.2-6.5-1.7c-1.5-0.3-2.7,0.4-4,0.7c-0.3,0.1-0.7-0.2-1.1-0.3
											c0.4-2.3,2-2.1,3.9-2.7c0.3-0.1,0.5,0.2,0.8,0.3C251.4,191,251.7,190.3,252.1,189.9z"/>
										<path class="st4" d="M253.6,192.4c1.3-1.5,0.8-3.5,3.2-5.4c0.3-0.2,0.7-0.2,1.1-0.3c0.7,0.1,1.3,0.6,1.9,0.6
											c4.3-0.5,8.2-1.1,11.6-3.5c5.4-3.6,9.3-4.5,14.6-8.4c3-2.2,5.4-4,8.2-6.4c0.9-0.7,2.5-3.6,3.8-3.7
											c0.6,0.1,2.9-3.3,2.8-2.5c-0.1,0.9-0.1,1.4-0.5,2.1c-1.7,3.2-2.6,6-4.4,9.1c-1.8,3.2-5.6,2.8-8.4,4.1
											c-2.7,1.4-4.4,3.7-6.7,5.5c-0.7,0.3-1.7,0.2-2.5-0.3c-1.5-0.8-0.8-0.1-2,0.6c-1.5,1-3,1.2-4.6,2.2c-2.8,1.5-5.7,2.3-8,4.8
											c-1.8,2-3.5,4-6.2,4.1c-2.2,0.1-4.3-1.2-6.5-1.7c-1.5-0.3-2.7,0.4-4,0.7c-0.3,0.1-0.7-0.2-1.1-0.3c0.4-2.3,2-1.2,3.9-1.8
											c0.3-0.1,0.9,0.6,1.2,0.7C249.4,192.8,253.6,192.4,253.6,192.4z"/>
									</g>
								</g>
							</g>
						</g>
					</g>
					<g>
						<g>
							<g>
								<g class="st0">
									<g class="st0">
										<path class="st1" d="M255.6,67.3c2.5,0.5,5,0.4,7.2,1.3c0.3,0.1,0.5,0.5,0.8,0.8c0.3,0.6,0.2,1.5,0.4,1.9
											c2.6,3.5,5.8,6.1,9.6,7.9c5.8,2.9,10.4,7.1,16.4,9.8c3.4,1.6,6.9,2.5,10.5,3.7c1,0.5,2,1,2.7,2c0.2,0.5,0.3,1.9-0.5,2.2
											c-0.8,0.4-1.8,0.6-2.6,0.6c-3.6,0.2-7,0.9-10.5,0.9c-3.7,0-5-3.4-7.6-5.2c-2.6-1.6-5.4-2-8.1-3.1c-0.6-0.4-1-1.4-1-2.3
											c-0.1-1.6,0.7-2.4-0.5-3.1c-1.6-0.8-3.5-0.6-5.2-1.5c-2.7-1.7-4.8-3.8-8.1-4.5c-2.6-0.5-5.3-1-6.7-3.3
											c-1.1-1.8-1.1-4.3-1.7-6.5c-0.5-1.4-1.7-2.2-2.6-3.2c-0.2-0.2-0.2-0.7-0.2-1.1c2.2-0.8,4.4-0.2,5.9,1.1
											c0.2,0.2,0.1,0.5,0.2,0.8C254.3,67.3,255,67.2,255.6,67.3z"/>
										<path class="st2" d="M254.8,67.9c2.5,0.5,5,0.4,7.2,1.3c0.3,0.1,0.5,0.5,0.8,0.8c0.3,0.6,0.2,1.5,0.4,1.9
											c2.6,3.5,5.8,6.1,9.6,7.9c5.8,2.9,10.3,6.9,16.3,9.6c3.4,1.6,6.9,2.5,10.5,3.7c1,0.5,2,1,2.7,2c0.2,0.5,1.1,1.7,0.3,2
											c-0.8,0.4-1.8,0.6-2.6,0.6c-3.6,0.2-7,0.9-10.5,0.9c-3.7,0-5-3.4-7.6-5.2c-2.6-1.6-5.4-2-8.1-3.1c-0.6-0.4-1-1.4-1-2.3
											c-0.1-1.6,0.7-2.3-0.5-3.1c-1.7-0.8-3.5-0.6-5.2-1.5c-2.7-1.7-4.8-3.8-8.1-4.5c-2.6-0.5-5.3-1-6.7-3.3
											c-1.1-1.8-1.1-4.3-1.7-6.5c-0.5-1.4-1.7-2.2-2.6-3.2c-0.2-0.2-0.2-0.7-0.2-1.1c2.2-0.8,3.6,0.3,5.1,1.6
											c0.2,0.2,0.1,0.5,0.2,0.8C253.4,67.8,254.2,67.7,254.8,67.9z"/>
										<path class="st3" d="M253.3,68.9c2.5,0.5,5,0.4,7.2,1.3c0.3,0.1,0.5,0.5,0.8,0.8c0.3,0.6,0.2,1.5,0.4,1.9
											c2.6,3.5,5,6.6,8.8,8.3c5.8,2.9,10.2,6.2,16.2,8.9c3.4,1.6,6.9,2.5,10.5,3.7c1,0.5,2.8,0.8,3.5,1.8
											c0.2,0.5,1.9,1.5,1.1,1.8c-0.8,0.4-1.8,0.6-2.6,0.6c-3.6,0.2-7,0.9-10.5,0.9c-3.7,0-5-3.4-7.6-5.2c-2.6-1.6-5.4-2-8.1-3.1
											c-0.6-0.4-1-1.4-1-2.3c-0.1-1.6,0.8-2.1-0.4-2.9c-1.6-0.8-3.5-0.6-5.2-1.5c-2.7-1.7-4.8-3.8-8.1-4.5
											c-2.6-0.5-5.3-1-6.7-3.3c-1.2-1.8-1.1-4.3-1.7-6.5c-0.5-1.4-1.7-2.2-2.6-3.2c-0.2-0.2-0.2-0.7-0.2-1.1
											c2.2-0.8,2.8,0.7,4.3,2c0.2,0.2,0.1,0.5,0.2,0.8C252,68.9,252.7,68.8,253.3,68.9z"/>
										<path class="st4" d="M251.8,71.5c2,0.4,3.4-1,6.2,0.1c0.3,0.1,0.5,0.5,0.8,0.8c0.3,0.6,0.2,1.5,0.4,1.9
											c2.6,3.5,5,6.6,8.8,8.3c5.8,2.9,8.6,5.8,14.6,8.5c3.4,1.6,6.1,2.7,9.7,3.9c1,0.5,4.4,0.4,5.1,1.4c0.2,0.5,4.4,0.9,3.5,1.2
											c-0.8,0.4-1.3,0.6-2.1,0.6c-3.6,0.2-6.5,0.7-10.1,0.8c-3.7,0-5.2-3.5-7.8-5.2c-2.6-1.6-5.4-2-8.1-3.1
											c-0.6-0.4-1-1.4-1-2.3c-0.1-1.6-0.3-0.7-1.5-1.4c-1.7-0.8-2.5-2-4.2-2.9c-2.7-1.7-4.8-3.8-8.1-4.5c-2.6-0.5-5.3-1-6.7-3.3
											c-1.1-1.8-1.1-4.3-1.7-6.5c-0.5-1.4-1.7-2.2-2.6-3.2c-0.2-0.2-0.2-0.7-0.2-1.1c2.2-0.8,2,1.2,3.5,2.5
											c0.2,0.2-0.1,1.1,0,1.4C249.4,68.1,251.8,71.5,251.8,71.5z"/>
									</g>
								</g>
							</g>
						</g>
					</g>
				</g>
			</g>
		</g>
	</g>
	<g class="st10">
		<path id="path142763" class="st11" d="M252.9,181.3h-23.1V151h23.1V181.3z M230.3,180.8h22.1v-29.3h-22.1V180.8L230.3,180.8z"/>
		<path id="path142765" class="st11" d="M257.8,176.8h-5.4v-25.4h-17.7v-4.9h23.1L257.8,176.8L257.8,176.8z M252.9,176.3h4.4V147
			h-22.1v4h17.7V176.3L252.9,176.3z"/>
		<path id="path142767" class="st12" d="M253.5,175.8v-25.4h-17.7v-2.9h21.1v28.3H253.5L253.5,175.8z"/>
		<path id="path142769" class="st12" d="M233,155.6h7.9v8.6H233V155.6z"/>
		<path id="path142771" class="st11" d="M243.1,155.5h6.6v0.5h-6.6V155.5z M243.1,158.2h6.6v0.5h-6.6V158.2z M243.1,161h6.6v0.5
			h-6.6V161z M243.1,163.7h6.6v0.5h-6.6V163.7z M233,166.5h16.6v0.5H233V166.5z M233,173.8h16.6v0.5H233V173.8z M233,176.2h16.6v0.5
			H233V176.2z"/>
	</g>
	<rect x="151.9" y="91.8" class="st13" width="9.4" height="80.5"/>
	<g>
		<g>
			<g>
				<g class="st14">
					<path class="st15" d="M334.9,113.9c-0.1-1.2-0.1-2.7-0.1-4.2l0,0c-0.3,1.3-0.7,2.7-1.2,3.9l-1.2,3.9h-1.7l-1.1-3.9
						c-0.3-1.2-0.7-2.7-0.9-4l0,0c-0.1,1.4-0.1,2.9-0.2,4.2l-0.2,3.8h-2.1l0.7-10.1h3.1l1,3.4c0.3,1.2,0.7,2.4,0.8,3.6h0.1
						c0.2-1.2,0.6-2.5,1-3.7l1.1-3.3h3l0.6,10.1h-2.5L334.9,113.9z"/>
				</g>
			</g>
			<g class="st14">
				<path class="st16" d="M343.4,116.5c-0.7,1.1-1.7,1.3-2.2,1.3c-1.7,0-2.7-1.2-2.7-2.7c0-0.8,0.4-1.7,0.9-2.2
					c0.6-0.6,1.2-0.9,1.9-0.9c1.2,0,2.1,1,2.1,2c0,0.2,0,0.4-0.2,0.5s-2,0.2-3.2,0.2c0.1,1.3,0.7,2,1.7,2c0.5,0,1-0.2,1.4-0.6
					L343.4,116.5z M341.1,112.6c-0.5,0-0.9,0.6-1,1.6c0.5,0,1,0,1.5,0c0.2,0,0.2,0,0.2-0.2C341.9,113.3,341.6,112.6,341.1,112.6z"/>
				<path class="st16" d="M346.9,117.7c-0.2,0.1-0.4,0.2-0.5,0.2c-1,0-1.5-0.4-1.5-1.6v-3.5h-0.8l-0.1-0.2l0.3-0.5h0.5v-1
					c0.4-0.3,1-0.7,1.5-1l0.2,0.1c0,0.3,0,1,0,1.9h1.2c0.1,0.1,0.1,0.5-0.1,0.7h-1.2v3.1c0,1,0.4,1.1,0.7,1.1c0.2,0,0.4,0,0.6-0.1
					l0.2,0.4L346.9,117.7z"/>
				<path class="st16" d="M352.5,117.9c-0.3,0-0.6-0.1-0.7-0.2c-0.2-0.2-0.2-0.3-0.3-0.5c-0.5,0.3-1.1,0.7-1.3,0.7
					c-1.1,0-1.7-0.8-1.7-1.6c0-0.7,0.3-1,1-1.2s1.7-0.6,2-0.8v-0.6c0-0.7-0.2-1-0.7-1c-0.2,0-0.4,0.1-0.5,0.2
					c-0.2,0.2-0.2,0.4-0.3,0.8c-0.1,0.3-0.2,0.4-0.5,0.4s-0.7-0.3-0.7-0.7c0-0.2,0.2-0.4,0.4-0.6c0.6-0.3,1.3-0.7,2-0.9
					c0.5,0,0.9,0.1,1.2,0.3c0.5,0.4,0.7,0.9,0.7,1.5v2.2c0,0.6,0.2,0.7,0.4,0.7c0.2,0,0.2,0,0.4-0.1l0.2,0.4L352.5,117.9z
					 M351.3,114.7c-0.2,0.2-0.4,0.2-0.7,0.4c-0.4,0.2-0.6,0.4-0.6,0.8c0,0.7,0.5,0.9,0.7,0.9s0.3,0,0.6-0.2
					C351.3,116.2,351.3,115.3,351.3,114.7z"/>
				<path class="st16" d="M356.8,112.3c0.3-0.2,0.7-0.2,0.9-0.2c1.5,0,2.5,1.2,2.5,2.7c0,1.7-1.5,3.2-3.2,3.2
					c-0.7,0-1.3-0.2-2.2-0.4c0-0.3,0-0.7,0-1v-5.7c0-0.7-0.1-0.8-0.7-0.8v-0.4c0.7-0.1,1.7-0.2,2.4-0.4c0,0.4,0,0.9,0,1.3v2.2
					L356.8,112.3z M356.3,116.3c0,0.2,0,0.3,0.1,0.4c0.1,0.2,0.4,0.6,0.9,0.6c0.7,0,1.2-0.7,1.2-2.2c0-1.6-0.7-2.2-1.5-2.2
					c-0.2,0-0.4,0-0.6,0.1L356.3,116.3L356.3,116.3z"/>
				<path class="st16" d="M364,112.1c1.7,0,2.8,1.3,2.8,2.8c0,2-1.4,3-2.9,3c-1.9,0-3-1.4-3-2.9C361,113.1,362.6,112.1,364,112.1z
					 M363.9,112.6c-0.5,0-1.1,0.6-1.1,2.1c0,1.6,0.5,2.7,1.3,2.7c0.5,0,1-0.3,1-2.2C365,113.5,364.6,112.6,363.9,112.6z"/>
				<path class="st16" d="M367.5,117.7v-0.4c0.7-0.1,0.7-0.2,0.7-1v-5.6c0-0.7-0.1-0.7-0.7-0.8v-0.4c0.8-0.1,1.7-0.2,2.3-0.4
					c0,0.6,0,1.2,0,1.7v5.6c0,0.8,0,0.9,0.7,1v0.4h-3V117.7z"/>
				<path class="st16" d="M371.2,117.7v-0.4c0.7-0.1,0.7-0.2,0.7-1v-2.4c0-0.8-0.1-0.9-0.7-1v-0.4c0.7-0.1,1.6-0.2,2.2-0.4
					c0,0.5,0,1,0,1.6v2.7c0,0.8,0.1,0.9,0.7,1v0.4L371.2,117.7L371.2,117.7z M372.6,111.3c-0.5,0-0.9-0.4-0.9-0.9s0.4-0.9,0.9-0.9
					s0.9,0.3,0.9,0.9C373.5,110.8,373.1,111.3,372.6,111.3z"/>
				<path class="st16" d="M379.7,116.5c-0.6,0.8-1.4,1.3-2.2,1.3c-1.7,0-2.7-1.3-2.7-2.7c0-0.9,0.5-1.8,1.2-2.4
					c0.8-0.6,1.6-0.7,2.2-0.7c0.5,0,0.8,0.2,1.1,0.3c0.2,0.2,0.2,0.2,0.2,0.5s-0.3,0.7-0.6,0.7c-0.1,0-0.2,0-0.2-0.2
					c-0.5-0.4-1-0.7-1.3-0.7c-0.5,0-1.1,0.5-1.1,1.8c0,1.7,1.2,2.2,1.7,2.2s0.9-0.2,1.3-0.5L379.7,116.5z"/>
				<path class="st16" d="M386.6,109.6c1,0,1.7,0.2,2.2,0.5c0.7,0.4,1,1,1,1.8c0,1.8-1.5,2.6-2.8,2.6c-0.2,0-0.2,0-0.4,0l-0.7-0.2
					v1.7c0,1.1,0.1,1.1,1.2,1.2v0.5h-4v-0.5c0.9-0.1,1.1-0.2,1.1-1.2v-4.7c0-1.1-0.2-1.2-1.1-1.2v-0.5L386.6,109.6L386.6,109.6z
					 M385.9,113.8c0.2,0.1,0.4,0.2,0.7,0.2c0.6,0,1.5-0.3,1.5-2c0-1.4-0.7-1.8-1.6-1.8c-0.2,0-0.4,0.1-0.5,0.1
					c-0.1,0.1-0.1,0.2-0.1,0.4V113.8L385.9,113.8z"/>
				<path class="st16" d="M393.9,117.7h-3.3v-0.4c0.7-0.1,0.7-0.2,0.7-0.9v-2.7c0-0.7-0.1-0.7-0.7-0.8v-0.4c0.7-0.1,1.5-0.2,2.2-0.5
					c0,0.4,0,0.9,0,1.3c0.6-0.8,1-1.3,1.5-1.3s0.8,0.3,0.8,0.7c0,0.6-0.4,1-0.7,1.1c-0.2,0.1-0.3,0-0.4-0.1
					c-0.2-0.2-0.4-0.4-0.6-0.4s-0.5,0.2-0.7,0.7v2.4c0,0.7,0.1,0.7,1,0.9L393.9,117.7L393.9,117.7z"/>
				<path class="st16" d="M398.7,112.1c1.7,0,2.8,1.3,2.8,2.8c0,2-1.4,3-2.9,3c-1.9,0-3-1.4-3-2.9
					C395.7,113.1,397.3,112.1,398.7,112.1z M398.5,112.6c-0.5,0-1.1,0.6-1.1,2.1c0,1.6,0.5,2.7,1.3,2.7c0.5,0,1-0.3,1-2.2
					C399.8,113.5,399.3,112.6,398.5,112.6z"/>
				<path class="st16" d="M406,117.7v-0.4c0.6-0.1,0.7-0.2,0.7-0.9v-2.7c0-0.7,0-0.8-0.7-0.8h-1.3v3.6c0,0.7,0.2,0.7,0.7,0.9v0.4
					h-3.1v-0.4c0.7-0.1,0.7-0.2,0.7-0.9v-3.6h-0.8l-0.1-0.2l0.3-0.5h0.6c0-1,0.5-1.9,1.2-2.5c0.6-0.4,1.3-0.7,1.9-0.7
					c0.8,0,1.3,0.2,1.7,0.6c0.2,0.2,0.2,0.3,0.2,0.5s-0.2,0.6-0.5,0.7c-0.2,0.2-0.5,0.1-0.7-0.1c-0.2-0.2-0.7-0.9-1.5-0.9
					c-0.3,0-0.5,0.2-0.7,0.6c-0.1,0.3-0.2,1.1-0.2,1.6v0.2h1.2c0.6,0,1.7,0,2.3-0.2v4.3c0,0.7,0.1,0.8,0.8,0.9v0.4L406,117.7
					L406,117.7z"/>
				<path class="st16" d="M409.5,117.7v-0.4c0.7-0.1,0.7-0.2,0.7-1v-5.6c0-0.7-0.1-0.7-0.7-0.8v-0.4c0.8-0.1,1.7-0.2,2.3-0.4
					c0,0.6,0,1.2,0,1.7v5.6c0,0.8,0,0.9,0.7,1v0.4h-3V117.7z"/>
				<path class="st16" d="M413.1,117.7v-0.4c0.7-0.1,0.7-0.2,0.7-1v-2.4c0-0.8-0.1-0.9-0.7-1v-0.4c0.7-0.1,1.6-0.2,2.2-0.4
					c0,0.5,0,1,0,1.6v2.7c0,0.8,0.1,0.9,0.7,1v0.4L413.1,117.7L413.1,117.7z M414.6,111.3c-0.5,0-0.9-0.4-0.9-0.9s0.4-0.9,0.9-0.9
					s0.9,0.3,0.9,0.9C415.5,110.8,415,111.3,414.6,111.3z"/>
				<path class="st16" d="M420.4,117.7v-0.4c0.5-0.1,0.6-0.2,0.6-1v-2.2c0-0.9-0.4-1.2-0.8-1.2c-0.3,0-0.6,0.1-0.9,0.4v3
					c0,0.7,0.1,0.8,0.6,0.9v0.4H417v-0.4c0.7-0.1,0.7-0.2,0.7-0.9v-2.6c0-0.7-0.1-0.7-0.7-0.9v-0.4c0.7-0.1,1.6-0.2,2.2-0.5
					c0,0.2,0,0.6,0,0.9c0.2-0.2,0.5-0.3,0.8-0.5c0.4-0.2,0.6-0.3,1-0.3c1,0,1.7,0.7,1.7,2v2.3c0,0.7,0.1,0.8,0.7,0.9v0.4h-3V117.7z"
					/>
				<path class="st16" d="M425.8,115.8c-0.2,0.2-0.2,0.3-0.2,0.4c0,0.2,0.2,0.5,0.7,0.5c0.4,0,1,0,1.4,0c0.7,0,1.8,0.3,1.8,1.5
					c0,1.4-1.7,2.5-3.4,2.5s-2.4-0.8-2.4-1.5c0-0.3,0.1-0.5,0.4-0.7s0.7-0.4,0.9-0.7c-0.5-0.2-0.7-0.4-0.9-0.7
					c-0.2-0.2-0.2-0.5-0.2-0.7c0.6-0.2,1.1-0.6,1.3-0.9L425.8,115.8z M426.5,115.9c-1.4,0-2.3-0.7-2.3-1.9c0-1.3,1.3-2,2.4-2
					c0.5,0,0.9,0.1,1.4,0.3c0.5,0,1.4-0.1,1.7-0.2l0.1,0.1c-0.1,0.2-0.2,0.7-0.5,0.7c-0.2,0-0.6-0.1-0.7-0.1c0.2,0.2,0.3,0.6,0.3,1
					C428.8,115.2,427.7,115.9,426.5,115.9z M426.6,118c-0.7,0-0.9,0.1-1.2,0.2c-0.2,0.2-0.3,0.4-0.3,0.7c0,0.7,0.7,1.2,1.7,1.2
					s1.6-0.4,1.6-1.2c0-0.5-0.3-0.7-0.7-0.8C427.3,118,427.1,118,426.6,118z M426.5,112.5c-0.4,0-0.7,0.5-0.7,1.3s0.2,1.6,0.8,1.6
					c0.5,0,0.7-0.5,0.7-1.4C427.3,113.3,427.1,112.5,426.5,112.5z"/>
				<path class="st16" d="M441.4,110.1c-0.8,0.1-1,0.3-1.1,0.7c0,0.4-0.1,0.8-0.1,1.7v1.7c0,1.1-0.2,2.2-0.9,2.9
					c-0.6,0.6-1.5,0.8-2.3,0.8s-1.7-0.2-2.2-0.7c-0.7-0.6-1.1-1.3-1.1-2.7v-3.2c0-1.2-0.1-1.2-1.1-1.3v-0.5h3.8v0.5
					c-0.9,0.1-1.1,0.2-1.1,1.3v3.3c0,1.4,0.7,2.3,2,2.3c1.5,0,2.2-1.1,2.2-3v-1.6c0-0.8,0-1.3-0.1-1.7c-0.1-0.6-0.4-0.7-1.2-0.7
					v-0.5h3.1v0.6L441.4,110.1L441.4,110.1z"/>
				<path class="st16" d="M445.4,117.7v-0.4c0.5-0.1,0.6-0.2,0.6-1v-2.2c0-0.9-0.4-1.2-0.8-1.2c-0.3,0-0.6,0.1-0.9,0.4v3
					c0,0.7,0.1,0.8,0.6,0.9v0.4H442v-0.4c0.7-0.1,0.7-0.2,0.7-0.9v-2.6c0-0.7-0.1-0.7-0.7-0.9v-0.4c0.7-0.1,1.6-0.2,2.2-0.5
					c0,0.2,0,0.6,0,0.9c0.2-0.2,0.5-0.3,0.8-0.5c0.4-0.2,0.6-0.3,1-0.3c1,0,1.7,0.7,1.7,2v2.3c0,0.7,0.1,0.8,0.7,0.9v0.4h-3V117.7z"
					/>
				<path class="st16" d="M448.9,117.7v-0.4c0.7-0.1,0.7-0.2,0.7-1v-2.4c0-0.8-0.1-0.9-0.7-1v-0.4c0.7-0.1,1.6-0.2,2.2-0.4
					c0,0.5,0,1,0,1.6v2.7c0,0.8,0.1,0.9,0.7,1v0.4L448.9,117.7L448.9,117.7z M450.4,111.3c-0.5,0-0.9-0.4-0.9-0.9s0.4-0.9,0.9-0.9
					s0.9,0.3,0.9,0.9C451.2,110.8,450.9,111.3,450.4,111.3z"/>
				<path class="st16" d="M455.3,117.7c-0.2,0.1-0.4,0.2-0.5,0.2c-1,0-1.5-0.4-1.5-1.6v-3.5h-0.8l-0.1-0.2l0.3-0.5h0.5v-1
					c0.4-0.3,1-0.7,1.5-1l0.2,0.1c0,0.3,0,1,0,1.9h1.2c0.1,0.1,0.1,0.5-0.1,0.7h-1.2v3.1c0,1,0.4,1.1,0.7,1.1c0.2,0,0.4,0,0.6-0.1
					l0.2,0.4L455.3,117.7z"/>
			</g>
		</g>
		<line class="st17" x1="326.2" y1="124.1" x2="457.8" y2="124.1"/>
		<g>
			<g>
				<path class="st16" d="M352.5,137.8l-0.9,1.5l0.2,0.2l1.5-0.8c0.2-0.1,0.3-0.2,0.3-0.4l0.1-0.8H353
					C352.8,137.5,352.6,137.6,352.5,137.8z"/>
			</g>
			<g>
				<path class="st16" d="M352.6,136.4c0.2-0.2,0.2-0.4,0.1-0.6l-0.2-0.5l-0.7,0.3c-0.2,0.1-0.3,0.3-0.3,0.4l-0.3,1.6l0.2,0.1
					L352.6,136.4z"/>
			</g>
			<g>
				<path class="st16" d="M348.3,136.8c0.2-0.1,0.3-0.3,0.3-0.5l0.2-0.9H348c-0.2,0-0.4,0.1-0.5,0.3l0,0l-0.9,1.5l0.2,0.3
					L348.3,136.8z"/>
			</g>
			<g>
				<path class="st16" d="M354.7,136.4c0.3-0.1,0.3-0.1,0.4-0.4l0.3-0.8h-0.9c-0.2,0-0.3,0.1-0.5,0.3l-0.8,1.3l0.2,0.2L354.7,136.4z
					"/>
			</g>
			<g>
				<path class="st16" d="M358.6,137.6c-0.2,0-0.4,0.2-0.5,0.3l-0.7,1.5l0.2,0.2l1.5-0.8c0.2-0.1,0.3-0.3,0.3-0.5l-0.1-0.7H358.6z"
					/>
			</g>
			<g>
				<path class="st16" d="M354.9,137.7l2.2-1.4c0.2-0.1,0.3-0.3,0.2-0.5l-0.1-0.7l-1,0.3c-0.2,0-0.3,0.2-0.4,0.3l-1.2,1.8
					L354.9,137.7z"/>
			</g>
			<g>
				<path class="st16" d="M350.8,136.7c0.1-0.2,0.1-0.3,0.1-0.5l-0.5-1l-0.8,0.5c-0.1,0.1-0.1,0.4-0.2,0.5l0,0l-0.2,1.8l0.3,0.1
					L350.8,136.7z"/>
			</g>
			<g>
				<path class="st16" d="M339.6,137.4l-0.8-0.4v1c0,0.2,0.1,0.4,0.3,0.6l1,1l0.3-0.2l-0.3-1.6C339.9,137.6,339.8,137.5,339.6,137.4
					z"/>
			</g>
			<g>
				<path class="st16" d="M347.7,138.4l-0.1-0.7l-0.9,0.3c-0.3,0.1-0.3,0.3-0.4,0.6l-0.5,1.1l0.2,0.2l1.4-0.7
					C347.6,139.1,347.7,139,347.7,138.4z"/>
			</g>
			<g>
				<path class="st16" d="M343.5,138.9h0.2l0.1-1c0-0.2-0.1-0.4-0.3-0.6L343,137l-0.2,0.5c0,0.1,0,0.3,0,0.4L343.5,138.9z"/>
			</g>
			<g>
				<path class="st16" d="M338.9,136.3l1.4,0.9l0.2-0.2l-0.4-1.2c-0.1-0.2-0.2-0.3-0.4-0.4l-1-0.2l-0.1,0.5
					C338.7,135.9,338.7,136.1,338.9,136.3z"/>
			</g>
			<g>
				<path class="st16" d="M341,138.3l1,0.9l0.2-0.2l-0.3-1.3c0-0.2-0.2-0.3-0.3-0.3l-0.7-0.2l-0.1,0.6
					C340.7,138,340.8,138.2,341,138.3z"/>
			</g>
			<g>
				<path class="st16" d="M344.1,137.2l0.2-0.1l0.2-1.2c0-0.2-0.1-0.3-0.2-0.4l-0.5-0.4l-0.4,0.6c-0.1,0.2-0.1,0.3,0,0.5
					L344.1,137.2z"/>
			</g>
			<g>
				<path class="st16" d="M346.4,136.4c0.2-0.1,0.3-0.2,0.3-0.3v-0.8l-0.9,0.1c-0.1,0-0.3,0.1-0.3,0.3L345,137l0.2,0.2L346.4,136.4z
					"/>
			</g>
			<g>
				<path class="st16" d="M344.3,139.3l1.2-0.6c0.2-0.1,0.3-0.3,0.3-0.5l-0.1-0.8l-0.8,0.3c-0.1,0.1-0.3,0.2-0.3,0.3l-0.5,1.1
					L344.3,139.3z"/>
			</g>
			<g>
				<path class="st16" d="M341.1,136.1l1.1,1l0.3-0.1l-0.1-1.3c0-0.2-0.2-0.4-0.4-0.4l-0.5-0.2l-0.4,0.4
					C340.9,135.8,341,136,341.1,136.1z"/>
			</g>
			<g>
				<path class="st16" d="M353.8,138.8L353.8,138.8l-0.8,1.4l0.2,0.2l1.4-0.8c0.2-0.1,0.3-0.3,0.3-0.4l0.1-0.8l-0.7,0.1
					C354,138.5,353.9,138.7,353.8,138.8z"/>
			</g>
			<g>
				<path class="st16" d="M357.2,138.1l-1,0.2c-0.1,0-0.3,0.1-0.4,0.4l-0.8,1.4l0.2,0.2l1.5-0.6c0.3-0.1,0.4-0.4,0.4-0.7
					L357.2,138.1z"/>
			</g>
			<g>
				<path class="st16" d="M357.3,137.4l1.9-0.9c0.2-0.1,0.3-0.3,0.3-0.5v-0.8l-1,0.1c-0.1,0-0.2,0.1-0.3,0.3l-1.1,1.7L357.3,137.4z"
					/>
			</g>
			<g>
				<path class="st16" d="M361.1,136.9c0.3-0.2,0.7-0.3,0.7-0.6s0-1,0-1.1l-0.9,0.1c-0.3,0-0.4,0.2-0.5,0.4l-0.6,1.5l0.2,0.2
					L361.1,136.9z"/>
			</g>
			<g>
				<path class="st16" d="M360.7,138.1l-1.2,1l0.1,0.3l1,0.1c0.1,0,0.1,0,0.2,0c0.3,0,0.6,0.1,0.8-0.2c0-0.1,0.1-0.1,0.1-0.2
					l0.2-0.8l-0.5-0.3C361.1,138,360.9,138,360.7,138.1z"/>
			</g>
			<g>
				<path class="st16" d="M334.7,136.6L334.7,136.6l1.7,0.9l0.2-0.2l-1-1.8c-0.1-0.2-0.2-0.2-0.5-0.2H335l-0.9-0.1l0.3,1.2
					C334.5,136.5,334.6,136.5,334.7,136.6z"/>
			</g>
			<g>
				<path class="st16" d="M336.8,136.5l1,1.1l0.2-0.1l-0.3-1.8c-0.1-0.3-0.3-0.4-0.5-0.4h-0.6v0.9
					C336.7,136.3,336.7,136.4,336.8,136.5z"/>
			</g>
			<g>
				<path class="st16" d="M335.1,137.7l-0.8,0.2l0.2,0.6c0.1,0.2,0.2,0.4,0.4,0.4l1.8,0.4l0.1-0.2l-1.1-1.2
					C335.5,137.7,335.3,137.6,335.1,137.7z"/>
			</g>
			<g>
				<path class="st16" d="M331.8,136.8l2,0.4l0.1-0.2l-1.4-1.6c-0.2-0.2-0.4-0.2-0.6-0.1l-0.7,0.4l0.3,0.8
					C331.5,136.6,331.7,136.8,331.8,136.8z"/>
			</g>
			<g>
				<path class="st16" d="M337.4,138.3l0.1,1c0,0.2,0.2,0.4,0.4,0.5l1.4,0.6l0.2-0.2l-1.2-1.7c-0.1-0.2-0.3-0.3-0.5-0.3L337.4,138.3
					L337.4,138.3z"/>
			</g>
			<g>
				<path class="st16" d="M332.2,139.5h2.1l0.1-0.3l-1.6-1.2c-0.2-0.1-0.4-0.2-0.6,0l-1,0.6l0.6,0.6
					C331.9,139.4,332,139.5,332.2,139.5z"/>
			</g>
			<g>
				<g>
					<path class="st16" d="M359.4,144.6l-0.9-0.6c-0.2-0.2-0.5-0.2-0.8-0.1l-1.3,0.4v0.3l1.6,0.6c0.3,0.1,0.6,0,0.9-0.2L359.4,144.6
						z"/>
				</g>
				<g>
					<path class="st16" d="M348.6,141.9c-0.1,0.1-0.2,0.3-0.1,0.4l0.1,1.1h0.2l0.7-0.9c0.1-0.2,0.2-0.4,0.1-0.6l-0.3-0.7
						L348.6,141.9z"/>
				</g>
				<g>
					<path class="st16" d="M348.1,139.1c-0.1,0.1-0.1,0.3,0,0.4l0.5,1.3h0.2l0.4-1.3c0.1-0.2,0-0.3-0.1-0.5l-0.5-0.8L348.1,139.1z"
						/>
				</g>
				<g>
					<path class="st16" d="M359.6,140.9l0.2-0.8l-0.9-0.3c-0.2-0.1-0.3,0-0.5,0.1l-1.4,1.2l0.1,0.3l2-0.1
						C359.3,141.3,359.5,141.1,359.6,140.9z"/>
				</g>
				<g>
					<path class="st16" d="M345.4,140.8c-0.1,0-0.1,0.1-0.2,0.2l-0.5,0.5v0.2h0.9c0.2,0,0.3-0.1,0.4-0.3l0.3-0.6l-0.6-0.1
						C345.6,140.8,345.5,140.8,345.4,140.8z"/>
				</g>
				<g>
					<path class="st16" d="M354.4,142.8l1.7-0.8c0.2-0.1,0.3-0.3,0.3-0.4l0.1-0.6l-1,0.1c-0.2,0-0.3,0.1-0.4,0.3l-0.9,1.3
						L354.4,142.8z"/>
				</g>
				<g>
					<path class="st16" d="M357.8,143.2l0.6-0.7l-1-0.4c-0.2-0.1-0.4-0.1-0.6,0.1l-1.4,1.1l0.1,0.2l1.9-0.1
						C357.5,143.4,357.7,143.3,357.8,143.2z"/>
				</g>
				<g>
					<path class="st16" d="M354.3,144.3c-0.1,0-0.2,0.1-0.3,0.2l-0.7,1.3l0.2,0.2l1.7-0.7c0.2-0.1,0.4-0.3,0.3-0.6l-0.1-0.8
						L354.3,144.3z"/>
				</g>
				<g>
					<path class="st16" d="M358.2,149.2c-0.1-0.1-0.3-0.2-0.5-0.1l-1.7,0.3v0.3l1.8,0.8c0.2,0.1,0.4,0.1,0.5,0l0.7-0.4L358.2,149.2z
						"/>
				</g>
				<g>
					<path class="st16" d="M351.3,139.3v-1l-0.8,0.3c-0.2,0.1-0.3,0.2-0.4,0.4l-0.5,1.7l0.2,0.1l1.2-1
						C351.2,139.7,351.3,139.6,351.3,139.3z"/>
				</g>
				<g>
					<path class="st16" d="M351.8,141.6c0.2-0.1,0.3-0.3,0.3-0.5l0.1-0.7l-0.8,0.1c-0.2,0-0.4,0.2-0.5,0.4l-0.4,1.2l0.2,0.2
						L351.8,141.6z"/>
				</g>
				<g>
					<path class="st16" d="M357.2,148.6c0.2,0.1,0.5,0,0.6-0.2l0.5-0.6l-1-0.4c-0.1-0.1-0.3-0.1-0.4,0l-1.4,0.5v0.3L357.2,148.6z"/>
				</g>
				<g>
					<path class="st16" d="M357.5,152.2l0.8-0.1l-0.3-0.6c-0.1-0.3-0.4-0.5-0.7-0.6l-1.7-0.3l-0.1,0.2l1.1,1.1
						C356.9,152.1,357.2,152.3,357.5,152.2z"/>
				</g>
				<g>
					<path class="st16" d="M357.3,154.3l1.1-0.1l-0.1-0.7c0-0.2-0.2-0.4-0.4-0.5l-2.1-0.5l-0.1,0.2l1.2,1.3
						C356.9,154.3,357.1,154.3,357.3,154.3z"/>
				</g>
				<g>
					<path class="st16" d="M351.9,142.4l0.1,0.2l1.5-0.3c0.2,0,0.3-0.2,0.4-0.3l0.4-1.1h-0.9c-0.2,0-0.3,0.1-0.4,0.2L351.9,142.4z"
						/>
				</g>
				<g>
					<path class="st16" d="M356.9,146.6l0.6-0.9l-1.1-0.2c-0.2,0-0.3,0-0.4,0.1l-1.4,0.8l0.1,0.2l1.7,0.2
						C356.6,146.9,356.8,146.8,356.9,146.6z"/>
				</g>
				<g>
					<path class="st16" d="M353.2,144.2c0.2,0,0.3-0.1,0.5-0.3l0.6-0.6l-1-0.3c-0.4-0.1-0.5-0.1-0.7,0.1l-1,0.7l0.1,0.3L353.2,144.2
						z"/>
				</g>
				<g>
					<path class="st16" d="M354.5,150.2c0.2,0,0.4,0,0.5-0.2l0.4-0.6l-0.6-0.3c-0.1-0.1-0.3-0.1-0.4,0l-1.4,0.5v0.2L354.5,150.2z"/>
				</g>
				<g>
					<path class="st16" d="M352,146.7l-0.3,1.3l0.2,0.2l1-0.9c0.2-0.3,0.3-0.3,0.3-0.6l-0.1-0.7c0,0-0.5,0.2-0.7,0.3
						C352.2,146.3,352.1,146.4,352,146.7z"/>
				</g>
				<g>
					<path class="st16" d="M354.2,148.4c0.3-0.1,0.4-0.3,0.4-0.5l-0.1-0.6l-0.8,0.1c-0.1,0-0.2,0.1-0.3,0.2l-1.1,1.2l0.1,0.2
						L354.2,148.4z"/>
				</g>
				<g>
					<path class="st16" d="M360.5,142.9l-1.5,0.6v0.3l1.7,0.6c0.2,0.1,0.5,0,0.6-0.2l0.5-0.6L361,143
						C360.9,142.8,360.7,142.8,360.5,142.9z"/>
				</g>
				<g>
					<path class="st16" d="M351.3,149.7l-0.7,0.7l0.1,0.3l1.1-0.1c0.3,0,0.5-0.2,0.6-0.4l0.2-0.6l-0.9-0.1
						C351.5,149.5,351.4,149.6,351.3,149.7z"/>
				</g>
				<g>
					<path class="st16" d="M354.4,151.9l0.9-0.3l-0.5-0.6c-0.1-0.1-0.3-0.2-0.5-0.2h-1.5l-0.1,0.2l1.1,0.8
						C354,152,354.2,152,354.4,151.9z"/>
				</g>
				<g>
					<path class="st16" d="M351.4,151.2h-1.3l-0.1,0.2l1,0.7c0.2,0.1,0.3,0.2,0.6,0.1l0.8-0.2l-0.4-0.6
						C351.8,151.2,351.6,151.2,351.4,151.2z"/>
				</g>
				<g>
					<path class="st16" d="M331.7,156.5c-0.1,0.1-0.2,0.2-0.2,0.3l-0.3,0.9l1.6-0.4c0.2,0,0.3-0.2,0.4-0.4l0.5-1.5l-0.3-0.1
						L331.7,156.5z"/>
				</g>
				<g>
					<path class="st16" d="M355,153.2c-0.1-0.2-0.2-0.3-0.4-0.4l-1.7-0.4l-0.1,0.2l1.2,1.4c0.1,0.2,0.3,0.3,0.5,0.2l0.9-0.2
						L355,153.2z"/>
				</g>
				<g>
					<path class="st16" d="M351.3,148.7v-0.4l-0.6,0.1c-0.3,0-0.4,0.1-0.5,0.4l-0.2,1.1l-0.7,0.7h-2.7c-0.3,0-0.4-0.3-0.3-0.6
						l1.3-1.5l-0.2-0.2l-3.7,4.1l-0.2-0.2l0.5-0.6c0.1-0.1,0.1-0.2,0.1-0.2l-0.3-0.8l1.7-3.9c0.1-0.3,0.4-0.5,0.8-0.5h1.2l0.6-0.6
						c0.5-0.5,0.7-0.6,1.2-0.6h0.9l0.8,0.6c0.2,0.1,0.3,0.1,0.6,0.1l0.7-0.2l-0.6-0.5c-0.3-0.2-0.3-0.2-0.5-0.2H350l0,0l0,0h-1
						l0.5-0.6l1-0.1c0.2,0,0.3-0.2,0.4-0.3l0.4-0.7h-0.8c-0.2,0-0.4,0-0.5,0.2l-1.6,1.8c-0.2,0.2-0.4,0.2-0.6,0.2h-2.2l-0.7,0.7
						l-0.2-0.2l0.5-0.6c0.1-0.1,0.1-0.3,0.1-0.4l-0.2-2c0,0-0.7-0.4-0.7-0.8c0-0.3,0.1-0.6,0.3-0.8l0.3-0.3c0.2-0.2,0.3-0.3,0.3-0.7
						v-0.6l-1,0.4c-0.1,0.1-0.3,0.3-0.3,0.4v0.8l-0.3,0.5l-0.4-0.4V141l0.2-0.7c0.1-0.2-0.1-0.4-0.3-0.5l-0.6-0.5l-0.3,0.6
						c0,0.2,0,0.3,0.1,0.5l0.5,0.6v3.1l-1.5-1c-0.2-0.1-0.4-0.3-0.4-0.6v-0.6v-1c0-0.3,0-0.4-0.2-0.6l-0.4-0.3l-0.3,0.5
						c-0.1,0.2-0.1,0.3,0,0.5l0.6,0.8l0,0l-0.1,0.6l-1.4-1.3c-0.1-0.1-0.3-0.2-0.5-0.1l-0.7,0.3l0.3,0.5c0.1,0.2,0.2,0.2,0.4,0.3
						l1.1,0.1l2.2,2.9c0.3,0.3,0.3,0.8,0.2,1.1l-0.5,1.1l-0.2,0.3l-3.3-2.1c-0.3-0.2-0.3-0.2-0.5-0.2l-0.6,0.1l0.2,0.6
						c0.1,0.2,0.3,0.4,0.5,0.4h1.1l0.8,0.5v0.1h-1.2l0,0h-1c-0.2,0-0.4,0.1-0.5,0.3l-0.4,0.9h0.7c0.2,0,0.3,0,0.4-0.1l0.9-0.8h0.4
						c0.3,0,0.4,0,0.6,0.2l0.7,1c0.3,0.4,0.3,0.6,0.3,0.9l-0.4,1l-0.8,1.6l-0.1,4.3l-1.1,1.1v0.4h8.4l0.3-0.3l-1.2-2.8l0.8-2.6
						c0.1-0.3,0.3-0.5,0.7-0.5h1.9l2.1-2.3C351.3,149,351.3,148.9,351.3,148.7z"/>
				</g>
				<g>
					<path class="st16" d="M335.5,148.3l-1.5,0.8c-0.2,0.1-0.3,0.3-0.3,0.4v0.9l1.1-0.4c0.1,0,0.3-0.2,0.3-0.3l0.6-1.3L335.5,148.3z
						"/>
				</g>
				<g>
					<path class="st16" d="M334.8,151.1h-0.3l-0.7,2c-0.1,0.2,0,0.4,0.1,0.5l0.4,0.9l0.8-1.1c0.2-0.2,0.2-0.4,0.1-0.6L334.8,151.1z"
						/>
				</g>
				<g>
					<path class="st16" d="M336.5,148.9l-1,1.4c-0.1,0.2-0.2,0.3-0.1,0.5l0.2,0.6l1-0.6c0.2-0.1,0.3-0.3,0.3-0.5V149L336.5,148.9z"
						/>
				</g>
				<g>
					<path class="st16" d="M355,154.8l-0.2,0.1l0.2,1.8c0,0.2,0.1,0.3,0.3,0.4l1.1,0.6l0.2-1.1c0-0.2,0-0.3-0.2-0.4L355,154.8z"/>
				</g>
				<g>
					<path class="st16" d="M360.9,147.1l-2.3-0.1l-0.1,0.3l1.8,1.2c0.2,0.2,0.5,0.2,0.7,0l0.9-0.5l-0.6-0.6
						C361.2,147.2,361,147.1,360.9,147.1z"/>
				</g>
				<g>
					<path class="st16" d="M360.6,140.7l-1.4,1.4l0.1,0.3l2-0.2c0.3,0,0.5-0.3,0.5-0.6v-0.9l-0.8-0.2
						C360.9,140.5,360.7,140.6,360.6,140.7z"/>
				</g>
				<g>
					<path class="st16" d="M360.2,145.2L360.2,145.2l-1.8,0.8v0.3l2.2,0.3h0.1c0.2,0,0.3,0.1,0.7-0.3l0.3-0.3l-0.7-0.4
						C360.6,145,360.5,145,360.2,145.2z"/>
				</g>
				<g>
					<path class="st16" d="M361.6,156.1L361.6,156.1l-2.1-1.3l-0.2,0.2l0.7,2.1c0.1,0.2,0.2,0.3,0.4,0.3l1.4,0.3v-1.1
						C361.8,156.4,361.8,156.2,361.6,156.1z"/>
				</g>
				<g>
					<path class="st16" d="M358.8,156.3L358.8,156.3l-1.8-1.5l-0.2,0.2l0.8,2.2c0.1,0.2,0.3,0.3,0.4,0.3l1.1,0.2l-0.1-1
						C359,156.6,358.9,156.4,358.8,156.3z"/>
				</g>
				<g>
					<path class="st16" d="M361.2,153.4l-2.1-0.7l-0.2,0.2l1.5,1.7c0.1,0.1,0.3,0.2,0.5,0.2l0.9-0.1l-0.3-1
						C361.5,153.6,361.4,153.5,361.2,153.4z"/>
				</g>
				<g>
					<path class="st16" d="M360.9,149.1h-1.7l-0.1,0.3l1.4,1.1c0.1,0.1,0.3,0.1,0.4,0.1l1-0.3l-0.6-1.1
						C361.2,149.1,361.1,149.1,360.9,149.1z"/>
				</g>
				<g>
					<path class="st16" d="M361.5,151.8c-0.1-0.3-0.1-0.3-0.3-0.4l-2.3-0.4l-0.1,0.2l1.5,1.4c0.1,0.1,0.2,0.1,0.3,0.2l1.3,0.1
						l-0.3-0.9C361.5,151.9,361.5,151.9,361.5,151.8z"/>
				</g>
				<g>
					<path class="st16" d="M335.9,139.7L335,140l0.6,0.8c0.1,0.2,0.3,0.2,0.5,0.2l1.4-0.1l0.1-0.3l-1.2-0.9
						C336.2,139.6,336,139.6,335.9,139.7z"/>
				</g>
				<g>
					<path class="st16" d="M331.2,154.9l0.1,0.9l1.3-0.7c0.2-0.1,0.3-0.2,0.3-0.4l0.3-1.4l-0.3-0.2l-1.6,1.2
						C331.2,154.5,331.1,154.7,331.2,154.9z"/>
				</g>
				<g>
					<path class="st16" d="M337.4,143.8l-1.3-0.8c-0.2-0.1-0.3-0.1-0.5,0l-0.8,0.5l0.7,0.6c0.1,0.1,0.2,0.1,0.4,0.1l1.5-0.1
						L337.4,143.8z"/>
				</g>
				<g>
					<path class="st16" d="M337.6,141.9l-1.6-0.6c-0.2-0.1-0.3,0-0.6,0.1l-0.5,0.3l0.5,0.6c0.1,0.2,0.3,0.3,0.5,0.2l1.6-0.3
						L337.6,141.9z"/>
				</g>
				<g>
					<path class="st16" d="M338.6,144.2h-0.7l0.2,0.5c0,0.1,0.1,0.2,0.3,0.3l1,0.6l0.1-0.2l-0.4-1.1
						C338.9,144.2,338.7,144.2,338.6,144.2z"/>
				</g>
				<g>
					<path class="st16" d="M334.4,146.8l-0.6,0.8l0.9,0.3c0.2,0.1,0.4,0,0.6-0.1l1.2-1.1l-0.1-0.3l-1.6,0.1
						C334.7,146.6,334.5,146.7,334.4,146.8z"/>
				</g>
				<g>
					<path class="st16" d="M339.6,142.6l-1-0.2c-0.2,0-0.4,0.1-0.5,0.3l-0.3,0.6l0.8,0.2c0.2,0,0.3,0,0.4-0.1l0.9-0.6L339.6,142.6z"
						/>
				</g>
				<g>
					<path class="st16" d="M336.7,144.8l-1.5-0.2c-0.2,0-0.3,0.1-0.5,0.2l-0.6,0.7l0.9,0.4c0.2,0.1,0.4,0.1,0.5-0.1l1.1-0.8v-0.2
						H336.7z"/>
				</g>
				<g>
					<path class="st16" d="M332.3,148l1.4-1.6l-0.2-0.2l-1.5,0.4c-0.2,0-0.3,0.2-0.3,0.3l-0.4,1.1l0.6,0.2
						C332,148.3,332.2,148.2,332.3,148z"/>
				</g>
				<g>
					<path class="st16" d="M332.6,150.2l0.7-1.5l-0.2-0.2l-1.6,0.9c-0.2,0.1-0.3,0.3-0.3,0.5l-0.1,1l1.1-0.3
						C332.4,150.5,332.6,150.3,332.6,150.2z"/>
				</g>
				<g>
					<path class="st16" d="M332.6,145.8l1.6-1.6l-0.2-0.3l-1.9,0.4c-0.2,0-0.3,0.1-0.3,0.2l-0.6,0.9l0.7,0.4
						C332.1,146,332.4,146,332.6,145.8z"/>
				</g>
				<g>
					<path class="st16" d="M332.5,152.7l1-1.7l-0.2-0.2l-1.6,0.7c-0.2,0.1-0.3,0.3-0.3,0.4l-0.1,0.9l0.7,0.2
						C332.1,153.1,332.4,153,332.5,152.7z"/>
				</g>
				<g>
					<path class="st16" d="M332.9,141.7l1.8-0.7v-0.3l-2.1-0.7c-0.2-0.1-0.4,0-0.5,0.1l-0.9,0.8l1.2,0.8
						C332.5,141.8,332.7,141.8,332.9,141.7z"/>
				</g>
				<g>
					<path class="st16" d="M332.6,143.5l1.6-0.9v-0.3l-2.1-0.2c-0.2,0-0.4,0.1-0.5,0.3l-0.5,0.7l1,0.4
						C332.3,143.6,332.5,143.6,332.6,143.5z"/>
				</g>
				<path class="st16" d="M366.4,162.3h-39.8v-31.7h39.8V162.3z M327.1,161.8H366V131h-38.9V161.8z"/>
				<g>
					<path class="st16" d="M447.4,141h0.2v-5.4h-0.7v3.8l-3.6-3.9h-0.2v5.4h0.7v-3.8L447.4,141z M440.7,141h0.2v-5.4h-0.7v3.8
						l-3.6-3.9h-0.2v5.4h0.7v-3.8L440.7,141z M440.3,149.3h2.8v-0.6H441v-1.9h1.9v-0.6H441v-1.6h2.1V144h-2.8V149.3L440.3,149.3z
						 M432.1,138.8l0.8-1.9l0.8,1.9H432.1z M430.4,141h0.7l0.7-1.6h2.1l0.7,1.6h0.7l-2.4-5.4h-0.2L430.4,141z M446.8,157.3h2.8v-0.6
						h-2.1v-1.9h1.9v-0.6h-1.9v-1.6h2.1V152h-2.8V157.3z M436.7,149.3h0.7v-4.7h1.6V144h-3.9v0.6h1.6L436.7,149.3L436.7,149.3z
						 M423.6,141h0.7v-3.8l2.1,2.2l2.1-2.2v3.8h0.7v-5.4H429l-2.6,2.8l-2.6-2.8h-0.2V141z M443.1,157.4c0.7,0,1.3-0.2,1.8-0.6V156
						h-0.1c-0.3,0.5-0.9,0.9-1.7,0.9c-1.2,0-2.1-1-2.1-2.2s0.9-2.2,2.1-2.2c0.8,0,1.4,0.3,1.7,0.8h0.1v-0.7c-0.4-0.4-1-0.6-1.8-0.6
						c-1.6,0-2.8,1.2-2.8,2.8C440.3,156.2,441.5,157.4,443.1,157.4z M431.5,149.3c1.2,0,2.3-0.6,2.3-2.3v-3h-0.7v3.2
						c0,1-0.8,1.6-1.6,1.6c-0.8,0-1.6-0.5-1.6-1.6V144h-0.7v3C429.1,148.7,430.3,149.3,431.5,149.3z M438.4,157.3h0.2V152h-0.7v3.8
						l-3.6-3.9h-0.2v5.4h0.7v-3.8L438.4,157.3z M417.9,141h4v-0.6h-2.8l3-4.7h-3.9v0.6h2.8L417.9,141z M425.6,149.3h0.7v-4.7h1.6
						V144H424v0.6h1.6L425.6,149.3L425.6,149.3z M415.8,141h0.7v-5.3h-0.7V141z M429.2,157.3h2.8v-0.6h-2.1v-1.9h2v-0.6h-2v-1.6h2.1
						V152h-2.8V157.3z M421.6,149.3h0.7V144h-0.7V149.3z M411.2,141h2.8v-0.6h-2.1v-1.9h1.9v-0.6h-1.9v-1.6h2.1v-0.6h-2.8V141z
						 M426.3,157.3h0.7V152h-0.7V157.3z M417.7,149.3h0.7v-4.7h1.6V144h-4v0.6h1.6L417.7,149.3L417.7,149.3z M404.6,141h0.2l1.1-2
						l1.1,2h0.2l3.1-5.4h-0.8l-2.4,4.2l-0.8-1.6l1.5-2.7H407l-1,2l-1-2h-0.8l1.5,2.7l-0.8,1.6l-2.4-4.3h-0.8L404.6,141z
						 M422.6,157.4c0.7,0,1.4-0.2,1.8-0.6V156h-0.1c-0.3,0.5-0.9,0.9-1.7,0.9c-1.2,0-2.1-1-2.1-2.2s0.9-2.2,2.1-2.2
						c0.8,0,1.4,0.3,1.7,0.8h0.1v-0.7c-0.4-0.4-1.1-0.6-1.8-0.6c-1.6,0-2.8,1.2-2.8,2.8C419.8,156.2,421,157.4,422.6,157.4z
						 M413.2,149.4c0.9,0,1.7-0.5,1.7-1.5c0-0.9-0.4-1.3-1.6-1.8c-0.6-0.3-0.8-0.6-0.8-1s0.3-0.7,0.7-0.7c0.3,0,0.6,0.1,0.9,0.6
						l0.6-0.3c-0.4-0.6-0.9-0.9-1.4-0.9c-0.9,0-1.5,0.4-1.5,1.3c0,0.5,0.3,1.1,1.3,1.5c0.9,0.4,1.1,0.7,1.1,1.2s-0.4,0.9-1,0.9
						c-0.4,0-0.9-0.3-1.2-0.9l-0.5,0.3C411.8,148.9,412.5,149.4,413.2,149.4z M416.8,157.4c0.9,0,1.7-0.5,1.7-1.5
						c0-0.9-0.4-1.4-1.6-1.8c-0.6-0.2-0.9-0.6-0.9-1c0-0.3,0.3-0.6,0.7-0.6c0.3,0,0.6,0.1,0.9,0.6l0.6-0.3c-0.4-0.6-0.9-0.9-1.4-0.9
						c-0.9,0-1.5,0.4-1.5,1.3c0,0.5,0.3,1.1,1.3,1.5c0.9,0.4,1.1,0.7,1.1,1.2s-0.4,0.9-1,0.9c-0.4,0-0.9-0.3-1.2-0.9l-0.5,0.3
						C415.3,157,416,157.4,416.8,157.4z M409.6,149.3h0.2V144h-0.7v3.8l-3.6-3.9h-0.2v5.4h0.7v-3.8L409.6,149.3z M402.5,149.3h0.7
						V144h-0.7V149.3z M409.2,157.3h0.7v-2.5h1.9v-0.6h-1.9v-1.6h2.1V152h-2.8L409.2,157.3L409.2,157.3z M405,156.8
						c-1.2,0-2.2-1-2.2-2.2s1-2.2,2.2-2.2s2.2,1,2.2,2.2C407.1,155.8,406.2,156.8,405,156.8z M405,157.4c1.6,0,2.9-1.2,2.9-2.9
						c0-1.6-1.3-2.8-2.9-2.8s-2.9,1.2-2.9,2.8C402.1,156.2,403.3,157.4,405,157.4z"/>
				</g>
				<g>
					<path class="st16" d="M456.6,162.3h-59.9v-31.7h59.9V162.3z M397.1,161.8h59.2V131h-59.2V161.8L397.1,161.8z"/>
				</g>
				<g>
					<path class="st16" d="M371.7,145.8l-0.1,4.1l1.1,1h0.2l-0.7-4.9c0-0.1,0-0.3,0.2-0.6l0.8-1l-1.6-1.3h-0.3l-0.6,0.7l1.3,1.1
						c0.2,0.1,0.2,0.3,0,0.5L371.7,145.8z M384.4,141.6h7l0.8-1.4v-3.5c0-0.6-0.5-1-1.1-1h-2.3l-0.7,0.8c-0.2,0.3-0.6,0.3-0.9,0
						l-1.4-1.2h-0.3l-0.6,0.7l1.7,1.4c0.2,0.2,0.2,0.4,0,0.7l-0.4,0.5l0.2,0.2l1.6-1.8c0.2-0.2,0.4-0.3,0.8-0.3h1.8
						c0.4,0,0.6,0.2,0.7,0.5l0.4,2.4c0.1,0.3,0,0.5-0.1,0.6c-0.2,0.3-0.8,0.3-1.4,0.3h-5.4l-0.4,0.8L384.4,141.6L384.4,141.6z
						 M390.8,149.5h0.2l1-0.4l-0.7-3.2c0-0.1,0-0.3,0.3-0.5l0.8-1l-1.6-1.3h-0.2l-0.6,0.7l1.3,1.1c0.2,0.1,0.2,0.3,0,0.5l-0.3,0.3
						L390.8,149.5z M387.6,146.4l1.8-2l-1.5-1.3h-0.3l-0.6,0.8l1.1,0.9c0.2,0.2,0.2,0.4,0,0.7l-0.6,0.7L387.6,146.4z M376.4,141.6
						h6.9l0.7-1.4v-3.8c0-0.4-0.4-0.8-0.9-0.8h-4.7c-0.2,0-0.3-0.1-0.5-0.2l-0.2-0.1h-0.3l-0.6,0.7l0.8,0.6h5c0.3,0,0.4,0.1,0.4,0.3
						l0.4,2.6c0,0.3,0,0.4-0.1,0.6c-0.2,0.3-0.7,0.3-1.3,0.3h-5.1l-0.4,0.8L376.4,141.6L376.4,141.6z M380.6,149.4h5.1l0.4-0.8
						c0.1-0.2,0-0.4-0.2-0.6l-1.1-0.9c-0.2-0.2-0.3-0.5-0.1-0.7l1.8-2.1L385,143h-0.3l-0.6,0.7l1.1,1c0.2,0.2,0.2,0.4,0,0.7l-1,1.2
						l-1.3-1c-0.2-0.1-0.2-0.3-0.1-0.5l0.7-0.9l-1.6-1.3h-0.3l-0.6,0.7l1.3,1.1c0.2,0.2,0.2,0.3,0,0.5l-0.3,0.4l2.6,2.4
						c0.1,0.1,0.1,0.2-0.1,0.2h-3.6l-0.4,0.8L380.6,149.4L380.6,149.4z M374.6,141.8h0.2l1-0.4l-0.7-3.2c0-0.2,0.1-0.4,0.3-0.5
						l0.8-1l-1.6-1.3h-0.3l-0.6,0.7l1.3,1.1c0.2,0.2,0.2,0.3,0,0.5l-0.3,0.3L374.6,141.8z M372.7,142.9h0.2l-0.7-4.8
						c0-0.1,0-0.3,0.2-0.5l0.8-1l-1.6-1.3h-0.3l-0.6,0.7l1.3,1.1c0.2,0.1,0.2,0.3,0,0.5l-0.3,0.3l-0.1,4L372.7,142.9z M373.3,149.4
						h6.1l0.7-1.4v-3.6c0-0.6-0.5-1-1.1-1h-1.3l-0.7,0.8c-0.2,0.3-0.6,0.3-0.9,0l-1.4-1.2h-0.4l-0.6,0.7l1.7,1.5
						c0.2,0.2,0.3,0.4,0.1,0.7l-0.4,0.5l0.2,0.2l1.6-1.9c0.1-0.2,0.4-0.3,0.8-0.3h0.9c0.4,0,0.5,0.2,0.6,0.6l0.4,2.5
						c0.1,0.3,0,0.4-0.1,0.6c-0.2,0.3-0.8,0.4-1.2,0.4h-4.6L373.3,149.4L373.3,149.4L373.3,149.4z M380,157.3h6.4l0.7-1.4v-3.6
						c0-0.6-0.5-1-1.1-1h-1.1l-0.7,0.8c-0.2,0.3-0.6,0.3-0.9,0l-1.4-1.2h-0.3l-0.6,0.7l1.6,1.4c0.2,0.2,0.3,0.5,0.1,0.7l-0.4,0.5
						l0.2,0.2l1.6-1.8c0.1-0.2,0.4-0.3,0.9-0.3h0.7c0.4,0,0.6,0.1,0.6,0.5l0.4,2.6c0.1,0.3,0,0.5-0.1,0.6c-0.3,0.3-0.8,0.3-1.4,0.3
						h-4.8l-0.4,0.8L380,157.3L380,157.3z M378.1,157.5h0.2l1-0.4l-0.6-2.8c-0.1-0.5,0-0.8,0.5-1.2c0.2-0.2,0.5-0.4,1-0.8v-0.4
						c0-0.3-0.1-0.5-0.5-0.5h-4.3c-0.2,0-0.3-0.1-0.5-0.2l-0.2-0.1h-0.3l-0.6,0.7l0.8,0.6h4.2c0.3,0,0.4,0.1,0.4,0.3
						c0,0.1,0,0.2-0.1,0.2l-0.8,0.8L378.1,157.5z M370.8,157.6c1.8-0.4,3.4-1.1,4.4-2.5c0.2-0.4,0.3-1,0.4-1.8l-0.2-0.2
						c-0.2,0.7-0.8,1.6-1.3,1.9c-0.2,0.1-0.3,0.1-0.5-0.1l-1.1-1.2c-0.1-0.1-0.2-0.2-0.2-0.3s0.1-0.2,0.2-0.3l0.7-0.8l-1.6-1.4h-0.3
						l-0.6,0.7l1.3,1.1c0.2,0.1,0.2,0.3,0,0.5l-0.3,0.3l1.3,2c-0.4,0.3-1.2,0.5-1.8,0.6l-0.5,1.1L370.8,157.6z M387.6,157.4
						c2.2-0.6,3.9-1.6,4.6-2.8v-2.8c0-0.3-0.3-0.6-0.7-0.6h-2.2c-0.4,0-0.6-0.1-0.6-0.3l-0.2-0.8c0-0.1,0-0.3,0.3-0.5l0.8-1
						l-1.4-1.1h-0.3l-0.6,0.7l1.1,1c0.1,0.1,0.1,0.2,0.1,0.3s0,0.2-0.1,0.2l-0.3,0.3v2c0.2,0.2,0.3,0.3,0.7,0.3h2.2
						c0.2,0,0.3,0.1,0.3,0.3l0.3,1.6c0.1,0.3,0,0.4-0.1,0.5c-0.7,0.7-1.9,1.1-3.4,1.6L387.6,157.4L387.6,157.4z"/>
				</g>
				<g>
					<path class="st16" d="M397.1,162.3h-31.2v-31.7h31.2V162.3z M366.4,161.8h30.3V131h-30.3V161.8z"/>
				</g>
			</g>
		</g>
	</g>
	<g class="st14">
		<g>
			<path class="st15" d="M212.7,111.9c0,0.3-0.1,0.5-0.2,0.7c-0.2,0.4-0.3,0.6-0.3,0.6c-0.1,0.2-0.2,0.8-0.2,1.6
				c-0.3,4.1-0.5,8-0.5,11.8c0,2.2,0.3,3.4,0.8,3.8c0,0.3,0,0.5,0,0.8c-0.2,0.5-0.4,0.7-0.7,0.6c-0.7-0.1-1.2-1.1-1.5-2.8
				c-0.2-1.2-0.4-2.4-0.4-3.7c0-2.8,0.1-5.1,0.2-7c-0.4,2.2-0.8,4.4-1.2,6.5c-0.7,3.3-1.4,4.7-2.1,4.6c-0.8-0.1-1.4-1.1-2-2.8
				c-0.5-1.6-1.2-4.1-2-7.2c-0.1,1-0.1,2-0.1,3c0,2.1,0,3.7,0.1,4.6c0,0.2,0.1,0.5,0.2,0.9c0.1,0.4,0.2,0.7,0.2,0.9
				c0,0.5-0.4,0.7-1.1,0.5c-0.8-0.2-1.2-1.4-1.2-3.8c0-0.9,0.1-2.4,0.2-4.3c0.1-1.9,0.2-3.4,0.2-4.3c0-0.1-0.1-0.2-0.2-0.3
				c-0.1-0.1-0.2-0.2-0.2-0.3c0-0.7,0.6-1.4,1.9-2c0.3-0.1,0.6-0.1,1.1,0.2c0,0.5,0.1,1.1,0.2,2.1c0.1,1.3,0.4,3,0.9,5.3
				c0.6,2.9,1.2,4.5,1.6,4.5c0.1,0,0.2-0.2,0.4-0.8c0.3-1,0.6-2.5,0.9-4.4c0.2-1.5,0.5-3.1,0.7-4.7c0.1-0.8,0.3-1.9,0.6-3.3
				c0.3-1.1,0.8-1.9,1.7-2.2c0.3-0.1,0.7-0.1,1.1-0.1C212.5,111.3,212.7,111.5,212.7,111.9z"/>
			<path class="st15" d="M220.7,129.3c0,1.2-0.5,2-1.4,2.6c-0.7,0.4-1.4,0.6-2.2,0.5c-2-0.3-3-2.3-3-5.8c0-1.5,0.2-3.1,0.7-5
				c0.6-2.3,1.3-3.6,2.1-3.7c0.7-0.1,1.5,0.3,2.4,1.4c0.8,1,1.3,2.2,1.3,3.4c0,1.5-0.4,2.8-1.2,3.6c-0.7,0.8-1.5,1.1-2.5,1.1
				c-0.2,0-0.5-0.2-0.9-0.6c0.1,2,0.4,3.1,1.1,3.2c0.6,0.1,1.2-0.2,1.7-0.7c0.6-0.5,0.9-0.8,1.1-0.8
				C220.4,128.4,220.7,128.7,220.7,129.3z M218.6,122.8c0-0.6-0.1-1.1-0.3-1.6c-0.2-0.5-0.4-0.7-0.8-0.7c-0.4,0-0.8,0.4-1,1
				c-0.2,0.6-0.3,1.2-0.3,1.9c0,0.4,0.1,0.7,0.3,1c0.2,0.3,0.4,0.4,0.7,0.4C218.1,124.8,218.6,124.1,218.6,122.8z"/>
			<path class="st15" d="M226.8,119.5c0,0.7-0.6,1.2-1.7,1.5c0,0.5,0,1.8,0,3.7c0,0.8,0,1.6,0,2.4c0,0.5,0,1.2,0.1,2.2
				c0.1,1,0.1,1.7,0.1,2.2c0,0.4-0.1,0.7-0.3,1c-0.2,0.3-0.4,0.4-0.6,0.4c-0.3,0-0.6-0.6-0.8-1.7c-0.2-0.8-0.3-1.6-0.3-2.3
				c0-2.6,0-5.1,0-7.7c-0.6-0.1-1-0.2-1.1-0.3c-0.3-0.2-0.5-0.4-0.5-0.8c0-0.1,0-0.2,0-0.3c0.3-0.9,0.7-1.4,1.2-1.4c0,0,0.1,0,0.1,0
				c0.1,0,0.1,0,0.1,0c0.3,0,0.4-0.6,0.4-1.8c0-0.9,0-1.8,0-2.6c-0.1-0.3-0.1-0.5-0.1-0.7c0-0.3,0.1-0.6,0.3-0.9
				c0.2-0.3,0.4-0.4,0.6-0.5c0.3,0,0.5,0.1,0.8,0.6c0.3,0.4,0.4,0.9,0.4,1.5c0,0.6-0.1,1.2-0.2,1.8c-0.1,0.6-0.1,1.2-0.1,1.8
				c0,0,0,0.1,0,0.1C226.2,117.9,226.8,118.5,226.8,119.5z"/>
			<path class="st15" d="M235.1,126.7c0,3.5-0.1,6-0.2,7.4c-0.1,0.8-0.4,1.2-0.9,1.2c-0.8-0.1-1.1-0.8-1-2.3
				c-0.7,0.6-1.4,0.9-2.1,0.8c-0.7-0.1-1.4-0.5-2-1.2c-0.8-0.9-1.1-1.9-1.1-3.1c0-1.2,0.4-2.3,1.3-3.3c0.8-0.9,1.5-1.4,2.2-1.4
				c0.6,0,1.1,0,1.7,0c0-0.3,0-0.6,0-1c0-2.8-0.4-4.2-1.3-4.1c-1.1,0-1.6,1-1.6,2.9c0,0.6-0.2,1-0.6,1c-0.2,0-0.5-0.2-0.7-0.6
				c-0.2-0.4-0.4-0.8-0.4-1.2c0-1.4,0.3-2.6,0.8-3.6c0.5-1,1.2-1.5,1.9-1.5C233.8,116.4,235.1,119.8,235.1,126.7z M233.1,128.1
				c0-0.5-0.2-0.8-0.6-0.8c-1.7,0-2.5,0.7-2.5,2.2c0,0.8,0.4,1.3,1.1,1.3c0.5,0,0.9-0.2,1.3-0.7
				C232.8,129.6,233.1,128.9,233.1,128.1z"/>
			<path class="st15" d="M243.4,124.4c0,2.5-0.2,4.7-0.6,6.5c-0.5,2.3-1.4,3.4-2.5,3.3c-0.4,0-0.9-0.3-1.7-0.9c0,0.2,0,0.4,0,0.5
				c0,0.9-0.3,1.4-0.8,1.3c-0.4,0-0.7-0.3-0.9-0.9c-0.1-0.3-0.2-1.1-0.3-2.6c-0.1-1.2-0.1-2.2-0.1-2.8c0-0.1,0-0.1,0-0.2
				c0.1-7.7,0.2-15.5,0.3-23.3c0.2-0.7,0.5-1,0.8-1c0.1-0.1,0.1-0.1,0.2-0.1c0.2,0,0.5,0.2,0.7,0.8c0.2,0.6,0.3,1.1,0.3,1.7
				c0,1.2-0.1,2.8-0.2,4.8c-0.1,2.3-0.2,3.9-0.2,4.8c0.4-1,0.9-1.5,1.5-1.5c0.7,0,1.4,0.5,2,1.6c0.6,1.1,1,2.4,1.2,4
				C243.4,121.5,243.4,122.8,243.4,124.4z M241.5,124.1c0-3.8-0.4-5.7-1.2-5.7c-0.6,0-1.1,1-1.5,2.9c-0.3,1.4-0.4,3-0.4,4.6
				c0,3.5,0.5,5.3,1.5,5.3C241,131.2,241.5,128.9,241.5,124.1z"/>
			<path class="st15" d="M252.1,125.7c0,2.6-0.3,4.8-0.9,6.6c-0.7,2.1-1.7,3.1-2.8,3.1c-1.2,0-2.1-0.9-2.7-2.6
				c-0.6-1.5-0.8-3.6-0.8-6.2c0-2.6,0.3-5,0.9-7.3c0.7-2.7,1.6-4.1,2.8-4.1c0.4,0,0.8,0.3,1.3,1
				C251.3,118.2,252.1,121.3,252.1,125.7z M250.3,125.6c0-4.4-0.5-6.6-1.5-6.6c-0.7,0-1.3,0.9-1.6,2.8c-0.3,1.4-0.4,3-0.4,4.8
				c0,3.8,0.5,5.7,1.6,5.7c0.7,0,1.2-0.8,1.6-2.4C250.2,128.7,250.3,127.3,250.3,125.6z"/>
			<path class="st15" d="M264.9,133.1c0,0.1,0,0.1,0,0.2c-0.2,0.6-0.5,0.9-0.8,0.9c-0.2,0-0.4-0.2-0.6-0.6c-0.1-1-1-2.6-2.7-4.8
				c-1.7-2.2-2.8-3.4-3.3-3.4c-0.1,0-0.2,0-0.4,0c-0.2,0-0.3,0-0.4,0c0,0.6,0,1.1,0,1.7c0,0.6,0,1.3,0.1,2.3
				c0.1,1.1,0.1,1.8,0.2,2.1c0.2,0.7,0.4,1.1,0.4,1.3c0,0.5-0.1,0.9-0.3,1.3c-0.2,0.3-0.4,0.5-0.7,0.5c-0.5,0-0.9-0.4-1.2-1.1
				c-0.3-0.7-0.4-3.5-0.4-8.5c-0.3,0-0.6-0.2-0.9-0.6c-0.4-0.5-0.5-0.9-0.5-1.5c0-1.1,0.5-1.8,1.4-2.3c0.1-0.9,0.1-2.1,0.1-3.6
				c0-1.7,0.1-3,0.1-3.6c0.1-0.9,0.2-2.3,0.3-4.1c-0.1,0-0.1,0-0.2,0c-0.5,0-0.8-0.5-0.8-1.5c0-0.9,0.2-1.4,0.5-1.7
				c0.2-0.1,0.5-0.3,0.7-0.4c0.3-0.5,0.5-0.8,0.6-1c0.2-0.2,0.4-0.2,0.7-0.2c0.2,0,0.4,0.2,0.4,0.7c0,0.1,0.2,0.2,0.5,0.2
				c1.6,0.1,3,0.9,4.1,2.3c1.4,1.7,2.1,4,2.1,7c0,2.3-0.4,4.2-1.1,5.7c-0.5,1-1.3,2.2-2.5,3.5c1,1.3,1.9,2.5,2.9,3.8
				C264.3,129.2,264.9,131,264.9,133.1z M262.1,114.4c0-1.8-0.4-3.2-1.3-4.1c-0.7-0.8-1.5-1.2-2.5-1.3c-0.1,0-0.4,0-0.9,0.1
				c0,1-0.1,2.8-0.4,5.3c-0.2,1.5-0.3,3.7-0.3,6.6c0.8,0.6,1.3,0.9,1.5,0.9c0.2,0,0.4-0.1,0.7-0.3c0.9-0.6,1.6-1.4,2.2-2.5
				C261.8,117.7,262.1,116.2,262.1,114.4z"/>
			<path class="st15" d="M273,129.8c0,1.3-0.5,2.3-1.4,3.1c-0.7,0.6-1.5,1-2.3,1c-2.1,0.2-3.1-2.2-3.1-7c0-2,0.2-4.2,0.7-6.5
				c0.6-2.9,1.3-4.3,2.1-4.3c0.7,0,1.5,0.8,2.4,2.1c0.9,1.3,1.3,2.7,1.3,4c0,1.7-0.4,3.1-1.2,4.1c-0.7,0.9-1.5,1.4-2.5,1.4
				c-0.2,0-0.5-0.2-0.9-0.7c0.1,2.6,0.4,3.8,1.1,3.8c0.6,0,1.2-0.4,1.8-1.1c0.6-0.7,0.9-1,1.1-1C272.7,128.9,273,129.2,273,129.8z
				 M270.8,122.4c0-0.7-0.1-1.3-0.3-1.9c-0.2-0.6-0.5-0.9-0.8-0.9c-0.4,0-0.8,0.4-1,1.1c-0.2,0.7-0.3,1.5-0.3,2.4
				c0,0.5,0.1,0.9,0.3,1.3c0.2,0.3,0.4,0.5,0.7,0.5C270.3,124.8,270.8,124,270.8,122.4z"/>
			<path class="st15" d="M281,124c0,2.4-0.2,4.4-0.7,6.1c-0.6,2.2-1.5,3.5-2.7,3.6c-0.7,0.1-1.2-0.2-1.7-0.9c0,0.3,0,0.6,0,1.1
				c0,0.6,0,0.9,0,1.1c0,2.4,0.1,4.3,0.4,5.6c0.1,0.5,0.2,0.9,0.2,1c0,0.8-0.3,1.3-0.8,1.4c-0.4,0.1-0.7,0-0.9-0.2
				c-0.1-0.1-0.3-0.8-0.4-1.8c-0.1-0.9-0.2-1.7-0.2-2.2c0-3.1,0-6.2,0-9.2c0-0.8,0-2,0.1-3.4c0.1-1.6,0.1-2.8,0.1-3.4
				c0-0.6,0-1.5,0-2.5c0-1.3,0-2.2,0-2.6c0-2.2,0.4-3.2,1.1-3.1c0.2,0,0.4,0.2,0.5,0.4c0.2,0.3,0.2,0.5,0.2,0.9c0,0.5,0,1.5-0.1,3
				c0.5-1.3,1.2-2,1.9-1.9c1,0.1,1.8,0.9,2.3,2.4C280.7,120.7,281,122.2,281,124z M279.2,123.7c0-2.6-0.3-3.9-0.9-4
				c-0.3,0-0.6,0.4-1.1,1.4c-0.8,1.8-1.3,4.4-1.4,7.7c0.1,0.1,0.4,0.7,0.8,1.5c0.3,0.6,0.6,1,0.9,0.9
				C278.6,131.2,279.2,128.7,279.2,123.7z"/>
			<path class="st15" d="M289.3,125.4c0,1.8-0.3,3.4-0.9,4.7c-0.7,1.6-1.6,2.5-2.7,2.7c-1.2,0.2-2-0.3-2.6-1.6
				c-0.5-1.1-0.8-2.8-0.8-4.9c0-2.1,0.3-4,0.9-5.8c0.7-2.1,1.6-3,2.7-2.9c0.3,0,0.8,0.4,1.3,0.9
				C288.5,120.1,289.3,122.3,289.3,125.4z M287.5,125.3c0-3.2-0.5-4.8-1.5-4.9c-0.7-0.1-1.2,0.6-1.6,2c-0.3,1.1-0.4,2.3-0.4,3.7
				c0,3,0.5,4.4,1.6,4.3c0.7-0.1,1.2-0.7,1.5-1.9C287.4,127.6,287.5,126.6,287.5,125.3z"/>
			<path class="st15" d="M295.5,121.6c0,0.1,0,0.3,0,0.6c-0.3,0.5-0.6,0.7-0.9,0.7c-0.2,0-0.5-0.2-0.7-0.6c0-0.8-0.2-1.2-0.6-1.3
				c-0.2,0-0.5,0.8-0.9,2.5c-0.2,0.8-0.2,1.9-0.2,3.2c0,1.3,0,2.1,0.1,2.4c0.1,0.3,0.1,0.6,0.1,0.7c0,0.3-0.1,0.6-0.3,0.8
				c-0.2,0.2-0.4,0.4-0.7,0.4c-0.7,0.1-1-0.3-1-1.3c0-0.1,0-0.2,0-0.4c0-0.2,0-0.3,0-0.4c0-1,0-2.5-0.1-4.4c-0.1-2-0.1-3.4-0.1-4.4
				c0-0.9,0.4-1.3,1.1-1.2c0.4,0.1,0.7,0.3,0.9,0.7c0.4-0.5,0.8-0.7,1.2-0.7c0.3,0.1,0.6,0.2,0.9,0.5c0.2,0.2,0.4,0.5,0.7,1
				C295.4,120.9,295.5,121.3,295.5,121.6z"/>
			<path class="st15" d="M301.4,121.9c0,0.4-0.5,0.5-1.6,0.6c0,0.3,0,1,0,2.1c0,0.5,0,0.9,0,1.4c0,0.3,0,0.7,0.1,1.3
				c0.1,0.5,0.1,1,0.1,1.2c0,0.2-0.1,0.4-0.3,0.7c-0.2,0.2-0.4,0.4-0.6,0.4c-0.3,0.1-0.6-0.2-0.8-0.8c-0.2-0.5-0.2-1-0.2-1.4
				c0-1.6,0-3.3,0-4.9c-0.6-0.2-0.9-0.3-1-0.3c-0.3-0.2-0.5-0.4-0.5-0.6c0-0.1,0-0.1,0-0.2c0.3-0.6,0.7-0.8,1.1-0.7c0,0,0.1,0,0.1,0
				c0.1,0,0.1,0,0.1,0c0.3,0,0.4-0.3,0.4-1.1c0-0.6,0-1.1,0-1.7c-0.1-0.2-0.1-0.3-0.1-0.5c0-0.2,0.1-0.4,0.3-0.5
				c0.2-0.1,0.4-0.1,0.6-0.1c0.3,0.1,0.5,0.3,0.8,0.7c0.2,0.4,0.4,0.7,0.4,1c0,0.3,0,0.7-0.1,1c-0.1,0.3-0.1,0.7-0.1,1
				c0,0,0,0.1,0,0.1C300.9,121,301.4,121.4,301.4,121.9z"/>
		</g>
	</g>
	<text transform="matrix(1 0 0 1 362.332 71.1057)" class="st18 st19 st20">OH</text>
</g>
</svg>
