<?xml version="1.0" encoding="utf-8"?>
<!-- Generator: Adobe Illustrator 25.0.1, SVG Export Plug-In . SVG Version: 6.00 Build 0)  -->
<svg version="1.1"
	 id="svg927" inkscape:version="1.1.2 (b8e25be8, 2022-02-05)" sodipodi:docname="logo.svg" xmlns:inkscape="http://www.inkscape.org/namespaces/inkscape" xmlns:sodipodi="http://sodipodi.sourceforge.net/DTD/sodipodi-0.dtd" xmlns:svg="http://www.w3.org/2000/svg"
	 xmlns="http://www.w3.org/2000/svg" xmlns:xlink="http://www.w3.org/1999/xlink" x="0px" y="0px" viewBox="0 0 700 700"
	 style="enable-background:new 0 0 700 700;" xml:space="preserve">
<style type="text/css">
	.st0{fill:none;stroke:#696969;stroke-miterlimit:10;}
	.st1{opacity:0.5;fill:#E9F0FF;enable-background:new    ;}
	.st2{fill:#6D6F76;}
	.st3{font-family:'BalooBhai2-Bold';}
	.st4{font-size:13.7848px;}
	.st5{fill:#4A555F;}
	.st6{fill:#E0E0E0;}
	.st7{fill:none;}
	.st8{enable-background:new    ;}
	.st9{fill:#E79D82;}
	.st10{opacity:0.31;fill:#30FF2A;stroke:#005537;stroke-width:1.5;stroke-miterlimit:10;enable-background:new    ;}
	.st11{font-family:'BalooBhai2-ExtraBold';}
	.st12{font-size:17px;}
</style>
<sodipodi:namedview  bordercolor="#666666" borderopacity="1.0" id="namedview929" inkscape:current-layer="g2932" inkscape:cx="182.5" inkscape:cy="723" inkscape:document-units="pt" inkscape:pagecheckerboard="0" inkscape:pageopacity="0.0" inkscape:pageshadow="2" inkscape:window-height="1312" inkscape:window-maximized="0" inkscape:window-width="2560" inkscape:window-x="0" inkscape:window-y="25" inkscape:zoom="1" pagecolor="#ffffff" showgrid="false">
	</sodipodi:namedview>
<defs>
	
		<inkscape:path-effect  apply_no_weight="true" apply_with_weight="true" effect="bspline" helper_size="0" id="path-effect115563" is_visible="true" lpeversion="1" only_selected="false" steps="2" weight="33.333333">
		</inkscape:path-effect>
	
		<inkscape:path-effect  apply_no_weight="true" apply_with_weight="true" effect="bspline" helper_size="0" id="path-effect44124" is_visible="true" lpeversion="1" only_selected="false" steps="2" weight="33.333333">
		</inkscape:path-effect>
	<inkscape:path-effect  effect="spiro" id="path-effect7052" is_visible="true" lpeversion="1"></inkscape:path-effect>
</defs>
<g id="g191976" inkscape:export-filename="/Users/dong/Desktop/logo2.png" inkscape:export-xdpi="600" inkscape:export-ydpi="600">
	<g id="g191947">
	</g>
</g>
<g>
	<g>
		
			<image style="overflow:visible;opacity:0.75;" width="228" height="176" xlink:href="3B127C4CBA502C0E.png"  transform="matrix(1 0 0 1 197 77)">
		</image>
		<g>
			<g>
				<line class="st0" x1="330.3" y1="122.5" x2="382.4" y2="96.8"/>
				<polygon class="st1" points="205.3,121.9 267.7,85.9 330.2,121.9 330.2,194 267.7,230.1 205.3,194 				"/>
				<text transform="matrix(1 0 0 1 383.751 97.3635)" class="st2 st3 st4">OH</text>
				<line class="st0" x1="209.4" y1="126" x2="209.4" y2="190"/>
				<polygon class="st0" points="205.5,121.9 268,85.9 330.4,121.9 330.4,194 268,230.1 205.5,194 				"/>
				<line class="st0" x1="269.7" y1="224.3" x2="325.2" y2="192.2"/>
				<line class="st0" x1="268.9" y1="90.1" x2="324.4" y2="122.2"/>
			</g>
		</g>
	</g>
	<g>
		<path id="path142763" class="st5" d="M279.2,202.3h-26.4v-34.6h26.4V202.3z M253.4,201.7h25.3v-33.5h-25.3L253.4,201.7
			L253.4,201.7z"/>
		<path id="path142765" class="st5" d="M284.8,197.2h-6.2v-29h-20.2v-5.6h26.4V197.2z M279.2,196.6h5v-33.5H259v4.6h20.2V196.6
			L279.2,196.6z"/>
		<path id="path142767" class="st6" d="M279.9,196v-29h-20.2v-3.3h24.1V196H279.9L279.9,196z"/>
		<path id="path142769" class="st6" d="M256.5,173h9v9.8h-9V173z"/>
		<path id="path142771" class="st5" d="M268.1,172.8h7.5v0.6h-7.5V172.8z M268.1,175.9h7.5v0.6h-7.5V175.9z M268.1,179.1h7.5v0.6
			h-7.5V179.1z M268.1,182.2h7.5v0.6h-7.5V182.2z M256.5,185.4h19v0.6h-19V185.4z M256.5,193.7h19v0.6h-19V193.7z M256.5,196.5h19
			v0.6h-19V196.5z"/>
	</g>
	<rect x="173.3" y="115.8" class="st7" width="9.4" height="80.5"/>
	<g>
		<g>
			<g>
				<g class="st8">
					<path class="st9" d="M356.3,137.9c-0.1-1.2-0.1-2.7-0.1-4.2l0,0c-0.3,1.3-0.7,2.7-1.2,3.9l-1.2,3.9h-1.7l-1.1-3.9
						c-0.3-1.2-0.7-2.7-0.9-4l0,0c-0.1,1.4-0.1,2.9-0.2,4.2l-0.2,3.8h-2.1l0.7-10.1h3.1l1,3.4c0.3,1.2,0.7,2.4,0.8,3.6h0.1
						c0.2-1.2,0.6-2.5,1-3.7l1.1-3.3h3l0.6,10.1h-2.5L356.3,137.9z"/>
				</g>
			</g>
			<g class="st8">
				<path class="st2" d="M364.8,140.5c-0.7,1.1-1.7,1.3-2.2,1.3c-1.7,0-2.7-1.2-2.7-2.7c0-0.8,0.4-1.7,0.9-2.2
					c0.6-0.6,1.2-0.9,1.9-0.9c1.2,0,2.1,1,2.1,2c0,0.2,0,0.4-0.2,0.5c-0.2,0.1-2,0.2-3.2,0.2c0.1,1.3,0.7,2,1.7,2
					c0.5,0,1-0.2,1.4-0.6L364.8,140.5z M362.5,136.6c-0.5,0-0.9,0.6-1,1.6c0.5,0,1,0,1.5,0c0.2,0,0.2,0,0.2-0.2
					C363.3,137.3,363,136.6,362.5,136.6z"/>
				<path class="st2" d="M368.3,141.7c-0.2,0.1-0.4,0.2-0.5,0.2c-1,0-1.5-0.4-1.5-1.6v-3.5h-0.8l-0.1-0.2l0.3-0.5h0.5v-1
					c0.4-0.3,1-0.7,1.5-1l0.2,0.1c0,0.3,0,1,0,1.9h1.2c0.1,0.1,0.1,0.5-0.1,0.7h-1.2v3.1c0,1,0.4,1.1,0.7,1.1c0.2,0,0.4,0,0.6-0.1
					l0.2,0.4L368.3,141.7z"/>
				<path class="st2" d="M373.9,141.9c-0.3,0-0.6-0.1-0.7-0.2c-0.2-0.2-0.2-0.3-0.3-0.5c-0.5,0.3-1.1,0.7-1.3,0.7
					c-1.1,0-1.7-0.8-1.7-1.6c0-0.7,0.3-1,1-1.2c0.7-0.2,1.7-0.6,2-0.8v-0.6c0-0.7-0.2-1-0.7-1c-0.2,0-0.4,0.1-0.5,0.2
					c-0.2,0.2-0.2,0.4-0.3,0.8c-0.1,0.3-0.2,0.4-0.5,0.4c-0.3,0-0.7-0.3-0.7-0.7c0-0.2,0.2-0.4,0.4-0.6c0.6-0.3,1.3-0.7,2-0.9
					c0.5,0,0.9,0.1,1.2,0.3c0.5,0.4,0.7,0.9,0.7,1.5v2.2c0,0.6,0.2,0.7,0.4,0.7c0.2,0,0.2,0,0.4-0.1l0.2,0.4L373.9,141.9z
					 M372.7,138.7c-0.2,0.2-0.4,0.2-0.7,0.4c-0.4,0.2-0.6,0.4-0.6,0.8c0,0.7,0.5,0.9,0.7,0.9c0.2,0,0.3,0,0.6-0.2
					C372.7,140.2,372.7,139.3,372.7,138.7z"/>
				<path class="st2" d="M378.2,136.3c0.3-0.2,0.7-0.2,0.9-0.2c1.5,0,2.5,1.2,2.5,2.7c0,1.7-1.5,3.2-3.2,3.2c-0.7,0-1.3-0.2-2.2-0.4
					c0-0.3,0-0.7,0-1v-5.7c0-0.7-0.1-0.8-0.7-0.8v-0.4c0.7-0.1,1.7-0.2,2.4-0.4c0,0.4,0,0.9,0,1.3v2.2L378.2,136.3z M377.7,140.3
					c0,0.2,0,0.3,0.1,0.4c0.1,0.2,0.4,0.6,0.9,0.6c0.7,0,1.2-0.7,1.2-2.2c0-1.6-0.7-2.2-1.5-2.2c-0.2,0-0.4,0-0.6,0.1L377.7,140.3
					L377.7,140.3z"/>
				<path class="st2" d="M385.4,136.1c1.7,0,2.8,1.3,2.8,2.8c0,2-1.4,3-2.9,3c-1.9,0-3-1.4-3-2.9C382.4,137.1,384,136.1,385.4,136.1
					z M385.3,136.6c-0.5,0-1.1,0.6-1.1,2.1c0,1.6,0.5,2.7,1.3,2.7c0.5,0,1-0.3,1-2.2C386.4,137.5,386,136.6,385.3,136.6z"/>
				<path class="st2" d="M388.9,141.7v-0.4c0.7-0.1,0.7-0.2,0.7-1v-5.6c0-0.7-0.1-0.7-0.7-0.8v-0.4c0.8-0.1,1.7-0.2,2.3-0.4
					c0,0.6,0,1.2,0,1.7v5.6c0,0.8,0,0.9,0.7,1v0.4H388.9z"/>
				<path class="st2" d="M392.6,141.7v-0.4c0.7-0.1,0.7-0.2,0.7-1v-2.4c0-0.8-0.1-0.9-0.7-1v-0.4c0.7-0.1,1.6-0.2,2.2-0.4
					c0,0.5,0,1,0,1.6v2.7c0,0.8,0.1,0.9,0.7,1v0.4L392.6,141.7L392.6,141.7z M394,135.3c-0.5,0-0.9-0.4-0.9-0.9
					c0-0.5,0.4-0.9,0.9-0.9c0.5,0,0.9,0.3,0.9,0.9C394.9,134.8,394.5,135.3,394,135.3z"/>
				<path class="st2" d="M401.1,140.5c-0.6,0.8-1.4,1.3-2.2,1.3c-1.7,0-2.7-1.3-2.7-2.7c0-0.9,0.5-1.8,1.2-2.4
					c0.8-0.6,1.6-0.7,2.2-0.7c0.5,0,0.8,0.2,1.1,0.3c0.2,0.2,0.2,0.2,0.2,0.5c0,0.3-0.3,0.7-0.6,0.7c-0.1,0-0.2,0-0.2-0.2
					c-0.5-0.4-1-0.7-1.3-0.7c-0.5,0-1.1,0.5-1.1,1.8c0,1.7,1.2,2.2,1.7,2.2s0.9-0.2,1.3-0.5L401.1,140.5z"/>
				<path class="st2" d="M408,133.6c1,0,1.7,0.2,2.2,0.5c0.7,0.4,1,1,1,1.8c0,1.8-1.5,2.6-2.8,2.6c-0.2,0-0.2,0-0.4,0l-0.7-0.2v1.7
					c0,1.1,0.1,1.1,1.2,1.2v0.5h-4v-0.5c0.9-0.1,1.1-0.2,1.1-1.2v-4.7c0-1.1-0.2-1.2-1.1-1.2v-0.5L408,133.6L408,133.6z
					 M407.3,137.8c0.2,0.1,0.4,0.2,0.7,0.2c0.6,0,1.5-0.3,1.5-2c0-1.4-0.7-1.8-1.6-1.8c-0.2,0-0.4,0.1-0.5,0.1
					c-0.1,0.1-0.1,0.2-0.1,0.4L407.3,137.8L407.3,137.8z"/>
				<path class="st2" d="M415.3,141.7h-3.3v-0.4c0.7-0.1,0.7-0.2,0.7-0.9v-2.7c0-0.7-0.1-0.7-0.7-0.8v-0.4c0.7-0.1,1.5-0.2,2.2-0.5
					c0,0.4,0,0.9,0,1.3c0.6-0.8,1-1.3,1.5-1.3c0.5,0,0.8,0.3,0.8,0.7c0,0.6-0.4,1-0.7,1.1c-0.2,0.1-0.3,0-0.4-0.1
					c-0.2-0.2-0.4-0.4-0.6-0.4c-0.2,0-0.5,0.2-0.7,0.7v2.4c0,0.7,0.1,0.7,1,0.9L415.3,141.7L415.3,141.7z"/>
				<path class="st2" d="M420.1,136.1c1.7,0,2.8,1.3,2.8,2.8c0,2-1.4,3-2.9,3c-1.9,0-3-1.4-3-2.9
					C417.1,137.1,418.7,136.1,420.1,136.1z M419.9,136.6c-0.5,0-1.1,0.6-1.1,2.1c0,1.6,0.5,2.7,1.3,2.7c0.5,0,1-0.3,1-2.2
					C421.2,137.5,420.7,136.6,419.9,136.6z"/>
				<path class="st2" d="M427.4,141.7v-0.4c0.6-0.1,0.7-0.2,0.7-0.9v-2.7c0-0.7,0-0.8-0.7-0.8h-1.3v3.6c0,0.7,0.2,0.7,0.7,0.9v0.4
					h-3.1v-0.4c0.7-0.1,0.7-0.2,0.7-0.9v-3.6h-0.8l-0.1-0.2l0.3-0.5h0.6c0-1,0.5-1.9,1.2-2.5c0.6-0.4,1.3-0.7,1.9-0.7
					c0.8,0,1.3,0.2,1.7,0.6c0.2,0.2,0.2,0.3,0.2,0.5c0,0.2-0.2,0.6-0.5,0.7c-0.2,0.2-0.5,0.1-0.7-0.1c-0.2-0.2-0.7-0.9-1.5-0.9
					c-0.3,0-0.5,0.2-0.7,0.6c-0.1,0.3-0.2,1.1-0.2,1.6v0.2h1.2c0.6,0,1.7,0,2.3-0.2v4.3c0,0.7,0.1,0.8,0.8,0.9v0.4L427.4,141.7
					L427.4,141.7z"/>
				<path class="st2" d="M430.9,141.7v-0.4c0.7-0.1,0.7-0.2,0.7-1v-5.6c0-0.7-0.1-0.7-0.7-0.8v-0.4c0.8-0.1,1.7-0.2,2.3-0.4
					c0,0.6,0,1.2,0,1.7v5.6c0,0.8,0,0.9,0.7,1v0.4H430.9z"/>
				<path class="st2" d="M434.5,141.7v-0.4c0.7-0.1,0.7-0.2,0.7-1v-2.4c0-0.8-0.1-0.9-0.7-1v-0.4c0.7-0.1,1.6-0.2,2.2-0.4
					c0,0.5,0,1,0,1.6v2.7c0,0.8,0.1,0.9,0.7,1v0.4L434.5,141.7L434.5,141.7z M436,135.3c-0.5,0-0.9-0.4-0.9-0.9
					c0-0.5,0.4-0.9,0.9-0.9s0.9,0.3,0.9,0.9C436.9,134.8,436.4,135.3,436,135.3z"/>
				<path class="st2" d="M441.8,141.7v-0.4c0.5-0.1,0.6-0.2,0.6-1v-2.2c0-0.9-0.4-1.2-0.8-1.2c-0.3,0-0.6,0.1-0.9,0.4v3
					c0,0.7,0.1,0.8,0.6,0.9v0.4h-2.9v-0.4c0.7-0.1,0.7-0.2,0.7-0.9v-2.6c0-0.7-0.1-0.7-0.7-0.9v-0.4c0.7-0.1,1.6-0.2,2.2-0.5
					c0,0.2,0,0.6,0,0.9c0.2-0.2,0.5-0.3,0.8-0.5c0.4-0.2,0.6-0.3,1-0.3c1,0,1.7,0.7,1.7,2v2.3c0,0.7,0.1,0.8,0.7,0.9v0.4H441.8z"/>
				<path class="st2" d="M447.2,139.8c-0.2,0.2-0.2,0.3-0.2,0.4c0,0.2,0.2,0.5,0.7,0.5c0.4,0,1,0,1.4,0c0.7,0,1.8,0.3,1.8,1.5
					c0,1.4-1.7,2.5-3.4,2.5s-2.4-0.8-2.4-1.5c0-0.3,0.1-0.5,0.4-0.7c0.3-0.2,0.7-0.4,0.9-0.7c-0.5-0.2-0.7-0.4-0.9-0.7
					c-0.2-0.2-0.2-0.5-0.2-0.7c0.6-0.2,1.1-0.6,1.3-0.9L447.2,139.8z M447.9,139.9c-1.4,0-2.3-0.7-2.3-1.9c0-1.3,1.3-2,2.4-2
					c0.5,0,0.9,0.1,1.4,0.3c0.5,0,1.4-0.1,1.7-0.2l0.1,0.1c-0.1,0.2-0.2,0.7-0.5,0.7c-0.2,0-0.6-0.1-0.7-0.1c0.2,0.2,0.3,0.6,0.3,1
					C450.2,139.2,449.1,139.9,447.9,139.9z M448,142c-0.7,0-0.9,0.1-1.2,0.2c-0.2,0.2-0.3,0.4-0.3,0.7c0,0.7,0.7,1.2,1.7,1.2
					c1,0,1.6-0.4,1.6-1.2c0-0.5-0.3-0.7-0.7-0.8C448.7,142,448.5,142,448,142z M447.9,136.5c-0.4,0-0.7,0.5-0.7,1.3s0.2,1.6,0.8,1.6
					c0.5,0,0.7-0.5,0.7-1.4C448.7,137.3,448.5,136.5,447.9,136.5z"/>
				<path class="st2" d="M462.8,134.1c-0.8,0.1-1,0.3-1.1,0.7c0,0.4-0.1,0.8-0.1,1.7v1.7c0,1.1-0.2,2.2-0.9,2.9
					c-0.6,0.6-1.5,0.8-2.3,0.8c-0.8,0-1.7-0.2-2.2-0.7c-0.7-0.6-1.1-1.3-1.1-2.7v-3.2c0-1.2-0.1-1.2-1.1-1.3v-0.5h3.8v0.5
					c-0.9,0.1-1.1,0.2-1.1,1.3v3.3c0,1.4,0.7,2.3,2,2.3c1.5,0,2.2-1.1,2.2-3v-1.6c0-0.8,0-1.3-0.1-1.7c-0.1-0.6-0.4-0.7-1.2-0.7
					v-0.5h3.1v0.6H462.8z"/>
				<path class="st2" d="M466.8,141.7v-0.4c0.5-0.1,0.6-0.2,0.6-1v-2.2c0-0.9-0.4-1.2-0.8-1.2c-0.3,0-0.6,0.1-0.9,0.4v3
					c0,0.7,0.1,0.8,0.6,0.9v0.4h-2.9v-0.4c0.7-0.1,0.7-0.2,0.7-0.9v-2.6c0-0.7-0.1-0.7-0.7-0.9v-0.4c0.7-0.1,1.6-0.2,2.2-0.5
					c0,0.2,0,0.6,0,0.9c0.2-0.2,0.5-0.3,0.8-0.5c0.4-0.2,0.6-0.3,1-0.3c1,0,1.7,0.7,1.7,2v2.3c0,0.7,0.1,0.8,0.7,0.9v0.4H466.8z"/>
				<path class="st2" d="M470.3,141.7v-0.4c0.7-0.1,0.7-0.2,0.7-1v-2.4c0-0.8-0.1-0.9-0.7-1v-0.4c0.7-0.1,1.6-0.2,2.2-0.4
					c0,0.5,0,1,0,1.6v2.7c0,0.8,0.1,0.9,0.7,1v0.4L470.3,141.7L470.3,141.7z M471.8,135.3c-0.5,0-0.9-0.4-0.9-0.9
					c0-0.5,0.4-0.9,0.9-0.9s0.9,0.3,0.9,0.9C472.6,134.8,472.3,135.3,471.8,135.3z"/>
				<path class="st2" d="M476.7,141.7c-0.2,0.1-0.4,0.2-0.5,0.2c-1,0-1.5-0.4-1.5-1.6v-3.5h-0.8l-0.1-0.2l0.3-0.5h0.5v-1
					c0.4-0.3,1-0.7,1.5-1l0.2,0.1c0,0.3,0,1,0,1.9h1.2c0.1,0.1,0.1,0.5-0.1,0.7h-1.2v3.1c0,1,0.4,1.1,0.7,1.1c0.2,0,0.4,0,0.6-0.1
					l0.2,0.4L476.7,141.7z"/>
			</g>
		</g>
		<line class="st10" x1="347.6" y1="148.1" x2="479.2" y2="148.1"/>
		<g>
			<g>
				<path class="st2" d="M373.9,161.8l-0.9,1.5l0.2,0.2l1.5-0.8c0.2-0.1,0.3-0.2,0.3-0.4l0.1-0.8l-0.7,0
					C374.2,161.5,374,161.6,373.9,161.8z"/>
			</g>
			<g>
				<path class="st2" d="M374,160.4c0.2-0.2,0.2-0.4,0.1-0.6l-0.2-0.5l-0.7,0.3c-0.2,0.1-0.3,0.3-0.3,0.4l-0.3,1.6l0.2,0.1
					L374,160.4z"/>
			</g>
			<g>
				<path class="st2" d="M369.7,160.8c0.2-0.1,0.3-0.3,0.3-0.5l0.2-0.9l-0.8,0c-0.2,0-0.4,0.1-0.5,0.3l0,0l-0.9,1.5l0.2,0.3
					L369.7,160.8z"/>
			</g>
			<g>
				<path class="st2" d="M376.1,160.4c0.3-0.1,0.3-0.1,0.4-0.4l0.3-0.8h-0.9c-0.2,0-0.3,0.1-0.5,0.3l-0.8,1.3l0.2,0.2L376.1,160.4z"
					/>
			</g>
			<g>
				<path class="st2" d="M380,161.6c-0.2,0-0.4,0.2-0.5,0.3l-0.7,1.5l0.2,0.2l1.5-0.8c0.2-0.1,0.3-0.3,0.3-0.5l-0.1-0.7H380z"/>
			</g>
			<g>
				<path class="st2" d="M376.3,161.7l2.2-1.4c0.2-0.1,0.3-0.3,0.2-0.5l-0.1-0.7l-1,0.3c-0.2,0-0.3,0.2-0.4,0.3l-1.2,1.8
					L376.3,161.7z"/>
			</g>
			<g>
				<path class="st2" d="M372.2,160.7c0.1-0.2,0.1-0.3,0.1-0.5l-0.5-1l-0.8,0.5c-0.1,0.1-0.1,0.4-0.2,0.5v0l-0.2,1.8l0.3,0.1
					L372.2,160.7z"/>
			</g>
			<g>
				<path class="st2" d="M361,161.4l-0.8-0.4l0,1c0,0.2,0.1,0.4,0.3,0.6l1,1l0.3-0.2l-0.3-1.6C361.3,161.6,361.2,161.5,361,161.4z"
					/>
			</g>
			<g>
				<path class="st2" d="M369.1,162.4l-0.1-0.7l-0.9,0.3c-0.3,0.1-0.3,0.3-0.4,0.6l-0.5,1.1l0.2,0.2l1.4-0.7
					C369,163.1,369.1,163,369.1,162.4z"/>
			</g>
			<g>
				<path class="st2" d="M364.9,162.9l0.2,0l0.1-1c0-0.2-0.1-0.4-0.3-0.6l-0.5-0.3l-0.2,0.5c0,0.1,0,0.3,0,0.4L364.9,162.9z"/>
			</g>
			<g>
				<path class="st2" d="M360.3,160.3l1.4,0.9l0.2-0.2l-0.4-1.2c-0.1-0.2-0.2-0.3-0.4-0.4l-1-0.2l-0.1,0.5
					C360.1,159.9,360.1,160.1,360.3,160.3z"/>
			</g>
			<g>
				<path class="st2" d="M362.4,162.3l1,0.9l0.2-0.2l-0.3-1.3c0-0.2-0.2-0.3-0.3-0.3l-0.7-0.2l-0.1,0.6
					C362.1,162,362.2,162.2,362.4,162.3z"/>
			</g>
			<g>
				<path class="st2" d="M365.5,161.2l0.2-0.1l0.2-1.2c0-0.2-0.1-0.3-0.2-0.4l-0.5-0.4l-0.4,0.6c-0.1,0.2-0.1,0.3,0,0.5L365.5,161.2
					z"/>
			</g>
			<g>
				<path class="st2" d="M367.8,160.4c0.2-0.1,0.3-0.2,0.3-0.3l0-0.8l-0.9,0.1c-0.1,0-0.3,0.1-0.3,0.3l-0.5,1.3l0.2,0.2L367.8,160.4
					z"/>
			</g>
			<g>
				<path class="st2" d="M365.7,163.3l1.2-0.6c0.2-0.1,0.3-0.3,0.3-0.5l-0.1-0.8l-0.8,0.3c-0.1,0.1-0.3,0.2-0.3,0.3l-0.5,1.1
					L365.7,163.3z"/>
			</g>
			<g>
				<path class="st2" d="M362.5,160.1l1.1,1l0.3-0.1l-0.1-1.3c0-0.2-0.2-0.4-0.4-0.4l-0.5-0.2l-0.4,0.4
					C362.3,159.8,362.4,160,362.5,160.1z"/>
			</g>
			<g>
				<path class="st2" d="M375.2,162.8L375.2,162.8l-0.8,1.4l0.2,0.2l1.4-0.8c0.2-0.1,0.3-0.3,0.3-0.4l0.1-0.8l-0.7,0.1
					C375.4,162.5,375.3,162.7,375.2,162.8z"/>
			</g>
			<g>
				<path class="st2" d="M378.6,162.1l-1,0.2c-0.1,0-0.3,0.1-0.4,0.4l-0.8,1.4l0.2,0.2l1.5-0.6c0.3-0.1,0.4-0.4,0.4-0.7L378.6,162.1
					z"/>
			</g>
			<g>
				<path class="st2" d="M378.7,161.4l1.9-0.9c0.2-0.1,0.3-0.3,0.3-0.5v-0.8l-1,0.1c-0.1,0-0.2,0.1-0.3,0.3l-1.1,1.7L378.7,161.4z"
					/>
			</g>
			<g>
				<path class="st2" d="M382.5,160.9c0.3-0.2,0.7-0.3,0.7-0.6c0-0.3,0-1,0-1.1l-0.9,0.1c-0.3,0-0.4,0.2-0.5,0.4l-0.6,1.5l0.2,0.2
					L382.5,160.9z"/>
			</g>
			<g>
				<path class="st2" d="M382.1,162.1l-1.2,1l0.1,0.3l1,0.1c0.1,0,0.1,0,0.2,0c0.3,0,0.6,0.1,0.8-0.2c0-0.1,0.1-0.1,0.1-0.2l0.2-0.8
					l-0.5-0.3C382.5,162,382.3,162,382.1,162.1z"/>
			</g>
			<g>
				<path class="st2" d="M356.1,160.6L356.1,160.6l1.7,0.9l0.2-0.2l-1-1.8c-0.1-0.2-0.2-0.2-0.5-0.2c0,0-0.1,0-0.1,0l-0.9-0.1
					l0.3,1.2C355.9,160.5,356,160.5,356.1,160.6z"/>
			</g>
			<g>
				<path class="st2" d="M358.2,160.5l1,1.1l0.2-0.1l-0.3-1.8c-0.1-0.3-0.3-0.4-0.5-0.4h-0.6v0.9
					C358.1,160.3,358.1,160.4,358.2,160.5z"/>
			</g>
			<g>
				<path class="st2" d="M356.5,161.7l-0.8,0.2l0.2,0.6c0.1,0.2,0.2,0.4,0.4,0.4l1.8,0.4l0.1-0.2l-1.1-1.2
					C356.9,161.7,356.7,161.6,356.5,161.7z"/>
			</g>
			<g>
				<path class="st2" d="M353.2,160.8l2,0.4l0.1-0.2l-1.4-1.6c-0.2-0.2-0.4-0.2-0.6-0.1l-0.7,0.4l0.3,0.8
					C352.9,160.6,353.1,160.8,353.2,160.8z"/>
			</g>
			<g>
				<path class="st2" d="M358.8,162.3l0.1,1c0,0.2,0.2,0.4,0.4,0.5l1.4,0.6l0.2-0.2l-1.2-1.7c-0.1-0.2-0.3-0.3-0.5-0.3H358.8z"/>
			</g>
			<g>
				<path class="st2" d="M353.6,163.5l2.1,0l0.1-0.3l-1.6-1.2c-0.2-0.1-0.4-0.2-0.6,0l-1,0.6l0.6,0.6
					C353.3,163.4,353.4,163.5,353.6,163.5z"/>
			</g>
			<g>
				<g>
					<path class="st2" d="M380.8,168.6l-0.9-0.6c-0.2-0.2-0.5-0.2-0.8-0.1l-1.3,0.4v0.3l1.6,0.6c0.3,0.1,0.6,0,0.9-0.2L380.8,168.6z
						"/>
				</g>
				<g>
					<path class="st2" d="M370,165.9c-0.1,0.1-0.2,0.3-0.1,0.4l0.1,1.1h0.2l0.7-0.9c0.1-0.2,0.2-0.4,0.1-0.6l-0.3-0.7L370,165.9z"/>
				</g>
				<g>
					<path class="st2" d="M369.5,163.1c-0.1,0.1-0.1,0.3,0,0.4l0.5,1.3h0.2l0.4-1.3c0.1-0.2,0-0.3-0.1-0.5l-0.5-0.8L369.5,163.1z"/>
				</g>
				<g>
					<path class="st2" d="M381,164.9l0.2-0.8l-0.9-0.3c-0.2-0.1-0.3,0-0.5,0.1l-1.4,1.2l0.1,0.3l2-0.1
						C380.7,165.3,380.9,165.1,381,164.9z"/>
				</g>
				<g>
					<path class="st2" d="M366.8,164.8c-0.1,0-0.1,0.1-0.2,0.2l-0.5,0.5l0,0.2l0.9,0c0.2,0,0.3-0.1,0.4-0.3l0.3-0.6l-0.6-0.1
						C367,164.8,366.9,164.8,366.8,164.8z"/>
				</g>
				<g>
					<path class="st2" d="M375.8,166.8l1.7-0.8c0.2-0.1,0.3-0.3,0.3-0.4l0.1-0.6l-1,0.1c-0.2,0-0.3,0.1-0.4,0.3l-0.9,1.3
						L375.8,166.8z"/>
				</g>
				<g>
					<path class="st2" d="M379.2,167.2l0.6-0.7l-1-0.4c-0.2-0.1-0.4-0.1-0.6,0.1l-1.4,1.1l0.1,0.2l1.9-0.1
						C378.9,167.4,379.1,167.3,379.2,167.2z"/>
				</g>
				<g>
					<path class="st2" d="M375.7,168.3c-0.1,0-0.2,0.1-0.3,0.2l-0.7,1.3l0.2,0.2l1.7-0.7c0.2-0.1,0.4-0.3,0.3-0.6l-0.1-0.8
						L375.7,168.3z"/>
				</g>
				<g>
					<path class="st2" d="M379.6,173.2c-0.1-0.1-0.3-0.2-0.5-0.1l-1.7,0.3l0,0.3l1.8,0.8c0.2,0.1,0.4,0.1,0.5,0l0.7-0.4L379.6,173.2
						z"/>
				</g>
				<g>
					<path class="st2" d="M372.7,163.3l0-1l-0.8,0.3c-0.2,0.1-0.3,0.2-0.4,0.4l-0.5,1.7l0.2,0.1l1.2-1
						C372.6,163.7,372.7,163.6,372.7,163.3z"/>
				</g>
				<g>
					<path class="st2" d="M373.2,165.6c0.2-0.1,0.3-0.3,0.3-0.5l0.1-0.7l-0.8,0.1c-0.2,0-0.4,0.2-0.5,0.4l-0.4,1.2l0.2,0.2
						L373.2,165.6z"/>
				</g>
				<g>
					<path class="st2" d="M378.6,172.6c0.2,0.1,0.5,0,0.6-0.2l0.5-0.6l-1-0.4c-0.1-0.1-0.3-0.1-0.4,0l-1.4,0.5v0.3L378.6,172.6z"/>
				</g>
				<g>
					<path class="st2" d="M378.9,176.2l0.8-0.1l-0.3-0.6c-0.1-0.3-0.4-0.5-0.7-0.6l-1.7-0.3l-0.1,0.2l1.1,1.1
						C378.3,176.1,378.6,176.3,378.9,176.2z"/>
				</g>
				<g>
					<path class="st2" d="M378.7,178.3l1.1-0.1l-0.1-0.7c0-0.2-0.2-0.4-0.4-0.5l-2.1-0.5l-0.1,0.2l1.2,1.3
						C378.3,178.3,378.5,178.3,378.7,178.3z"/>
				</g>
				<g>
					<path class="st2" d="M373.3,166.4l0.1,0.2l1.5-0.3c0.2,0,0.3-0.2,0.4-0.3l0.4-1.1l-0.9,0c-0.2,0-0.3,0.1-0.4,0.2L373.3,166.4z"
						/>
				</g>
				<g>
					<path class="st2" d="M378.3,170.6l0.6-0.9l-1.1-0.2c-0.2,0-0.3,0-0.4,0.1l-1.4,0.8l0.1,0.2l1.7,0.2
						C378,170.9,378.2,170.8,378.3,170.6z"/>
				</g>
				<g>
					<path class="st2" d="M374.6,168.2c0.2,0,0.3-0.1,0.5-0.3l0.6-0.6l-1-0.3c-0.4-0.1-0.5-0.1-0.7,0.1l-1,0.7l0.1,0.3L374.6,168.2z
						"/>
				</g>
				<g>
					<path class="st2" d="M375.9,174.2c0.2,0,0.4,0,0.5-0.2l0.4-0.6l-0.6-0.3c-0.1-0.1-0.3-0.1-0.4,0l-1.4,0.5l0,0.2L375.9,174.2z"
						/>
				</g>
				<g>
					<path class="st2" d="M373.4,170.7l-0.3,1.3l0.2,0.2l1-0.9c0.2-0.3,0.3-0.3,0.3-0.6l-0.1-0.7c0,0-0.5,0.2-0.7,0.3
						C373.6,170.3,373.5,170.4,373.4,170.7z"/>
				</g>
				<g>
					<path class="st2" d="M375.6,172.4c0.3-0.1,0.4-0.3,0.4-0.5l-0.1-0.6l-0.8,0.1c-0.1,0-0.2,0.1-0.3,0.2l-1.1,1.2l0.1,0.2
						L375.6,172.4z"/>
				</g>
				<g>
					<path class="st2" d="M381.9,166.9l-1.5,0.6v0.3l1.7,0.6c0.2,0.1,0.5,0,0.6-0.2l0.5-0.6l-0.8-0.6
						C382.3,166.8,382.1,166.8,381.9,166.9z"/>
				</g>
				<g>
					<path class="st2" d="M372.7,173.7l-0.7,0.7l0.1,0.3l1.1-0.1c0.3,0,0.5-0.2,0.6-0.4l0.2-0.6l-0.9-0.1
						C372.9,173.5,372.8,173.6,372.7,173.7z"/>
				</g>
				<g>
					<path class="st2" d="M375.8,175.9l0.9-0.3l-0.5-0.6c-0.1-0.1-0.3-0.2-0.5-0.2l-1.5,0l-0.1,0.2l1.1,0.8
						C375.4,176,375.6,176,375.8,175.9z"/>
				</g>
				<g>
					<path class="st2" d="M372.8,175.2l-1.3,0l-0.1,0.2l1,0.7c0.2,0.1,0.3,0.2,0.6,0.1l0.8-0.2l-0.4-0.6
						C373.2,175.2,373,175.2,372.8,175.2z"/>
				</g>
				<g>
					<path class="st2" d="M353.1,180.5c-0.1,0.1-0.2,0.2-0.2,0.3l-0.3,0.9l1.6-0.4c0.2,0,0.3-0.2,0.4-0.4l0.5-1.5l-0.3-0.1
						L353.1,180.5z"/>
				</g>
				<g>
					<path class="st2" d="M376.4,177.2c-0.1-0.2-0.2-0.3-0.4-0.4l-1.7-0.4l-0.1,0.2l1.2,1.4c0.1,0.2,0.3,0.3,0.5,0.2l0.9-0.2
						L376.4,177.2z"/>
				</g>
				<g>
					<path class="st2" d="M372.7,172.7v-0.4l-0.6,0.1c-0.3,0-0.4,0.1-0.5,0.4l-0.2,1.1l-0.7,0.7H368c-0.3,0-0.4-0.3-0.3-0.6l1.3-1.5
						l-0.2-0.2l-3.7,4.1l-0.2-0.2l0.5-0.6c0.1-0.1,0.1-0.2,0.1-0.2l-0.3-0.8l1.7-3.9c0.1-0.3,0.4-0.5,0.8-0.5h1.2l0.6-0.6
						c0.5-0.5,0.7-0.6,1.2-0.6h0.9l0.8,0.6c0.2,0.1,0.3,0.1,0.6,0.1l0.7-0.2l-0.6-0.5c-0.3-0.2-0.3-0.2-0.5-0.2h-1.2l0,0l0,0h-1
						l0.5-0.6l1-0.1c0.2,0,0.3-0.2,0.4-0.3l0.4-0.7h-0.8c-0.2,0-0.4,0-0.5,0.2l-1.6,1.8c-0.2,0.2-0.4,0.2-0.6,0.2h-2.2l-0.7,0.7
						l-0.2-0.2l0.5-0.6c0.1-0.1,0.1-0.3,0.1-0.4l-0.2-2c0,0-0.7-0.4-0.7-0.8c0-0.3,0.1-0.6,0.3-0.8l0.3-0.3c0.2-0.2,0.3-0.3,0.3-0.7
						l0-0.6l-1,0.4c-0.1,0.1-0.3,0.3-0.3,0.4v0.8l-0.3,0.5l-0.4-0.4v-0.3l0.2-0.7c0.1-0.2-0.1-0.4-0.3-0.5l-0.6-0.5l-0.3,0.6
						c0,0.2,0,0.3,0.1,0.5l0.5,0.6v3.1l-1.5-1c-0.2-0.1-0.4-0.3-0.4-0.6v-0.6v-1c0-0.3,0-0.4-0.2-0.6l-0.4-0.3l-0.3,0.5
						c-0.1,0.2-0.1,0.3,0,0.5l0.6,0.8l0,0l-0.1,0.6l-1.4-1.3c-0.1-0.1-0.3-0.2-0.5-0.1l-0.7,0.3l0.3,0.5c0.1,0.2,0.2,0.2,0.4,0.3
						l1.1,0.1l2.2,2.9c0.3,0.3,0.3,0.8,0.2,1.1l-0.5,1.1l-0.2,0.3l-3.3-2.1c-0.3-0.2-0.3-0.2-0.5-0.2l-0.6,0.1l0.2,0.6
						c0.1,0.2,0.3,0.4,0.5,0.4h1.1l0.8,0.5v0.1h-1.2l0,0h-1c-0.2,0-0.4,0.1-0.5,0.3l-0.4,0.9l0.7,0c0.2,0,0.3,0,0.4-0.1l0.9-0.8h0.4
						c0.3,0,0.4,0,0.6,0.2l0.7,1c0.3,0.4,0.3,0.6,0.3,0.9l-0.4,1l-0.8,1.6l-0.1,4.3l-1.1,1.1v0.4h8.4l0.3-0.3l-1.2-2.8l0.8-2.6
						c0.1-0.3,0.3-0.5,0.7-0.5h1.9l2.1-2.3C372.7,173,372.7,172.9,372.7,172.7z"/>
				</g>
				<g>
					<path class="st2" d="M356.9,172.3l-1.5,0.8c-0.2,0.1-0.3,0.3-0.3,0.4v0.9l1.1-0.4c0.1,0,0.3-0.2,0.3-0.3l0.6-1.3L356.9,172.3z"
						/>
				</g>
				<g>
					<path class="st2" d="M356.2,175.1l-0.3,0l-0.7,2c-0.1,0.2,0,0.4,0.1,0.5l0.4,0.9l0.8-1.1c0.2-0.2,0.2-0.4,0.1-0.6L356.2,175.1z
						"/>
				</g>
				<g>
					<path class="st2" d="M357.9,172.9l-1,1.4c-0.1,0.2-0.2,0.3-0.1,0.5l0.2,0.6l1-0.6c0.2-0.1,0.3-0.3,0.3-0.5V173L357.9,172.9z"/>
				</g>
				<g>
					<path class="st2" d="M376.4,178.8l-0.2,0.1l0.2,1.8c0,0.2,0.1,0.3,0.3,0.4l1.1,0.6l0.2-1.1c0-0.2,0-0.3-0.2-0.4L376.4,178.8z"
						/>
				</g>
				<g>
					<path class="st2" d="M382.3,171.1L380,171l-0.1,0.3l1.8,1.2c0.2,0.2,0.5,0.2,0.7,0l0.9-0.5l-0.6-0.6
						C382.6,171.2,382.4,171.1,382.3,171.1z"/>
				</g>
				<g>
					<path class="st2" d="M382,164.7l-1.4,1.4l0.1,0.3l2-0.2c0.3,0,0.5-0.3,0.5-0.6v-0.9l-0.8-0.2
						C382.3,164.5,382.1,164.6,382,164.7z"/>
				</g>
				<g>
					<path class="st2" d="M381.6,169.2C381.6,169.2,381.6,169.2,381.6,169.2l-1.8,0.8l0,0.3l2.2,0.3c0,0,0.1,0,0.1,0
						c0.2,0,0.3,0.1,0.7-0.3l0.3-0.3l-0.7-0.4C382,169,381.9,169,381.6,169.2z"/>
				</g>
				<g>
					<path class="st2" d="M383,180.1L383,180.1l-2.1-1.3l-0.2,0.2l0.7,2.1c0.1,0.2,0.2,0.3,0.4,0.3l1.4,0.3v-1.1
						C383.2,180.4,383.2,180.2,383,180.1z"/>
				</g>
				<g>
					<path class="st2" d="M380.2,180.3L380.2,180.3l-1.8-1.5l-0.2,0.2l0.8,2.2c0.1,0.2,0.3,0.3,0.4,0.3l1.1,0.2l-0.1-1
						C380.4,180.6,380.3,180.4,380.2,180.3z"/>
				</g>
				<g>
					<path class="st2" d="M382.6,177.4l-2.1-0.7l-0.2,0.2l1.5,1.7c0.1,0.1,0.3,0.2,0.5,0.2l0.9-0.1l-0.3-1
						C382.9,177.6,382.8,177.5,382.6,177.4z"/>
				</g>
				<g>
					<path class="st2" d="M382.3,173.1h-1.7l-0.1,0.3l1.4,1.1c0.1,0.1,0.3,0.1,0.4,0.1l1-0.3l-0.6-1.1
						C382.6,173.1,382.5,173.1,382.3,173.1z"/>
				</g>
				<g>
					<path class="st2" d="M382.9,175.8c-0.1-0.3-0.1-0.3-0.3-0.4l-2.3-0.4l-0.1,0.2l1.5,1.4c0.1,0.1,0.2,0.1,0.3,0.2l1.3,0.1
						l-0.3-0.9C382.9,175.9,382.9,175.9,382.9,175.8z"/>
				</g>
				<g>
					<path class="st2" d="M357.3,163.7l-0.9,0.3l0.6,0.8c0.1,0.2,0.3,0.2,0.5,0.2l1.4-0.1l0.1-0.3l-1.2-0.9
						C357.6,163.6,357.4,163.6,357.3,163.7z"/>
				</g>
				<g>
					<path class="st2" d="M352.6,178.9l0.1,0.9l1.3-0.7c0.2-0.1,0.3-0.2,0.3-0.4l0.3-1.4l-0.3-0.2l-1.6,1.2
						C352.6,178.5,352.5,178.7,352.6,178.9z"/>
				</g>
				<g>
					<path class="st2" d="M358.8,167.8l-1.3-0.8c-0.2-0.1-0.3-0.1-0.5,0l-0.8,0.5l0.7,0.6c0.1,0.1,0.2,0.1,0.4,0.1l1.5-0.1
						L358.8,167.8z"/>
				</g>
				<g>
					<path class="st2" d="M359,165.9l-1.6-0.6c-0.2-0.1-0.3,0-0.6,0.1l-0.5,0.3l0.5,0.6c0.1,0.2,0.3,0.3,0.5,0.2l1.6-0.3L359,165.9z
						"/>
				</g>
				<g>
					<path class="st2" d="M360,168.2h-0.7l0.2,0.5c0,0.1,0.1,0.2,0.3,0.3l1,0.6l0.1-0.2l-0.4-1.1C360.3,168.2,360.1,168.2,360,168.2
						z"/>
				</g>
				<g>
					<path class="st2" d="M355.8,170.8l-0.6,0.8l0.9,0.3c0.2,0.1,0.4,0,0.6-0.1l1.2-1.1l-0.1-0.3l-1.6,0.1
						C356.1,170.6,355.9,170.7,355.8,170.8z"/>
				</g>
				<g>
					<path class="st2" d="M361,166.6l-1-0.2c-0.2,0-0.4,0.1-0.5,0.3l-0.3,0.6l0.8,0.2c0.2,0,0.3,0,0.4-0.1l0.9-0.6L361,166.6z"/>
				</g>
				<g>
					<path class="st2" d="M358.1,168.8l-1.5-0.2c-0.2,0-0.3,0.1-0.5,0.2l-0.6,0.7l0.9,0.4c0.2,0.1,0.4,0.1,0.5-0.1l1.1-0.8V168.8z"
						/>
				</g>
				<g>
					<path class="st2" d="M353.7,172l1.4-1.6l-0.2-0.2l-1.5,0.4c-0.2,0-0.3,0.2-0.3,0.3l-0.4,1.1l0.6,0.2
						C353.4,172.3,353.6,172.2,353.7,172z"/>
				</g>
				<g>
					<path class="st2" d="M354,174.2l0.7-1.5l-0.2-0.2l-1.6,0.9c-0.2,0.1-0.3,0.3-0.3,0.5l-0.1,1l1.1-0.3
						C353.8,174.5,354,174.3,354,174.2z"/>
				</g>
				<g>
					<path class="st2" d="M354,169.8l1.6-1.6l-0.2-0.3l-1.9,0.4c-0.2,0-0.3,0.1-0.3,0.2l-0.6,0.9l0.7,0.4
						C353.5,170,353.8,170,354,169.8z"/>
				</g>
				<g>
					<path class="st2" d="M353.9,176.7l1-1.7l-0.2-0.2l-1.6,0.7c-0.2,0.1-0.3,0.3-0.3,0.4l-0.1,0.9l0.7,0.2
						C353.5,177.1,353.8,177,353.9,176.7z"/>
				</g>
				<g>
					<path class="st2" d="M354.3,165.7l1.8-0.7v-0.3L354,164c-0.2-0.1-0.4,0-0.5,0.1l-0.9,0.8l1.2,0.8
						C353.9,165.8,354.1,165.8,354.3,165.7z"/>
				</g>
				<g>
					<path class="st2" d="M354,167.5l1.6-0.9l0-0.3l-2.1-0.2c-0.2,0-0.4,0.1-0.5,0.3l-0.5,0.7l1,0.4
						C353.7,167.6,353.9,167.6,354,167.5z"/>
				</g>
				<path class="st2" d="M387.8,186.3H348v-31.7h39.8V186.3z M348.5,185.8h38.9V155h-38.9V185.8z"/>
				<g>
					<path class="st2" d="M468.8,165h0.2v-5.4h-0.7v3.8l-3.6-3.9h-0.2v5.4h0.7v-3.8L468.8,165z M462.1,165h0.2v-5.4h-0.7v3.8
						l-3.6-3.9h-0.2v5.4h0.7v-3.8L462.1,165z M461.7,173.3h2.8v-0.6h-2.1v-1.9h1.9v-0.6h-1.9v-1.6h2.1V168h-2.8V173.3L461.7,173.3z
						 M453.5,162.8l0.8-1.9l0.8,1.9H453.5z M451.8,165h0.7l0.7-1.6h2.1l0.7,1.6h0.7l-2.4-5.4h-0.2L451.8,165z M468.2,181.3h2.8v-0.6
						h-2.1v-1.9h1.9v-0.6h-1.9v-1.6h2.1v-0.6h-2.8V181.3z M458.1,173.3h0.7v-4.7h1.6V168h-3.9v0.6h1.6V173.3L458.1,173.3z M445,165
						h0.7v-3.8l2.1,2.2l2.1-2.2v3.8h0.7v-5.4h-0.2l-2.6,2.8l-2.6-2.8H445V165z M464.5,181.4c0.7,0,1.3-0.2,1.8-0.6V180l-0.1,0
						c-0.3,0.5-0.9,0.9-1.7,0.9c-1.2,0-2.1-1-2.1-2.2c0-1.2,0.9-2.2,2.1-2.2c0.8,0,1.4,0.3,1.7,0.8l0.1,0v-0.7
						c-0.4-0.4-1-0.6-1.8-0.6c-1.6,0-2.8,1.2-2.8,2.8C461.7,180.2,462.9,181.4,464.5,181.4z M452.9,173.3c1.2,0,2.3-0.6,2.3-2.3v-3
						h-0.7v3.2c0,1-0.8,1.6-1.6,1.6c-0.8,0-1.6-0.5-1.6-1.6V168h-0.7v3C450.5,172.7,451.7,173.3,452.9,173.3z M459.8,181.3h0.2V176
						h-0.7v3.8l-3.6-3.9h-0.2v5.4h0.7v-3.8L459.8,181.3z M439.3,165h4v-0.6h-2.8l3-4.7h-3.9v0.6h2.8L439.3,165z M447,173.3h0.7v-4.7
						h1.6V168h-3.9v0.6h1.6L447,173.3L447,173.3z M437.2,165h0.7v-5.3h-0.7V165z M450.6,181.3h2.8v-0.6h-2.1v-1.9h2v-0.6h-2v-1.6
						h2.1v-0.6h-2.8V181.3z M443,173.3h0.7V168H443V173.3z M432.6,165h2.8v-0.6h-2.1v-1.9h1.9v-0.6h-1.9v-1.6h2.1v-0.6h-2.8V165z
						 M447.7,181.3h0.7V176h-0.7V181.3z M439.1,173.3h0.7v-4.7h1.6V168h-4v0.6h1.6L439.1,173.3L439.1,173.3z M426,165h0.2l1.1-2
						l1.1,2h0.2l3.1-5.4h-0.8l-2.4,4.2l-0.8-1.6l1.5-2.7h-0.8l-1,2l-1-2h-0.8l1.5,2.7l-0.8,1.6l-2.4-4.3h-0.8L426,165z M444,181.4
						c0.7,0,1.4-0.2,1.8-0.6V180l-0.1,0c-0.3,0.5-0.9,0.9-1.7,0.9c-1.2,0-2.1-1-2.1-2.2c0-1.2,0.9-2.2,2.1-2.2
						c0.8,0,1.4,0.3,1.7,0.8l0.1,0v-0.7c-0.4-0.4-1.1-0.6-1.8-0.6c-1.6,0-2.8,1.2-2.8,2.8C441.2,180.2,442.4,181.4,444,181.4z
						 M434.6,173.4c0.9,0,1.7-0.5,1.7-1.5c0-0.9-0.4-1.3-1.6-1.8c-0.6-0.3-0.8-0.6-0.8-1c0-0.4,0.3-0.7,0.7-0.7
						c0.3,0,0.6,0.1,0.9,0.6l0.6-0.3c-0.4-0.6-0.9-0.9-1.4-0.9c-0.9,0-1.5,0.4-1.5,1.3c0,0.5,0.3,1.1,1.3,1.5
						c0.9,0.4,1.1,0.7,1.1,1.2c0,0.5-0.4,0.9-1,0.9c-0.4,0-0.9-0.3-1.2-0.9l-0.5,0.3C433.2,172.9,433.9,173.4,434.6,173.4z
						 M438.2,181.4c0.9,0,1.7-0.5,1.7-1.5c0-0.9-0.4-1.4-1.6-1.8c-0.6-0.2-0.9-0.6-0.9-1c0-0.3,0.3-0.6,0.7-0.6
						c0.3,0,0.6,0.1,0.9,0.6l0.6-0.3c-0.4-0.6-0.9-0.9-1.4-0.9c-0.9,0-1.5,0.4-1.5,1.3c0,0.5,0.3,1.1,1.3,1.5
						c0.9,0.4,1.1,0.7,1.1,1.2c0,0.5-0.4,0.9-1,0.9c-0.4,0-0.9-0.3-1.2-0.9l-0.5,0.3C436.7,181,437.4,181.4,438.2,181.4z M431,173.3
						h0.2V168h-0.7v3.8l-3.6-3.9h-0.2v5.4h0.7v-3.8L431,173.3z M423.9,173.3h0.7V168h-0.7V173.3z M430.6,181.3h0.7v-2.5h1.9v-0.6
						h-1.9v-1.6h2.1v-0.6h-2.8V181.3z M426.4,180.8c-1.2,0-2.2-1-2.2-2.2c0-1.2,1-2.2,2.2-2.2c1.2,0,2.2,1,2.2,2.2
						C428.5,179.8,427.6,180.8,426.4,180.8z M426.4,181.4c1.6,0,2.9-1.2,2.9-2.9c0-1.6-1.3-2.8-2.9-2.8c-1.6,0-2.9,1.2-2.9,2.8
						C423.5,180.2,424.7,181.4,426.4,181.4z"/>
				</g>
				<g>
					<path class="st2" d="M478,186.3h-59.9v-31.7H478V186.3z M418.5,185.8h59.2V155h-59.2V185.8L418.5,185.8z"/>
				</g>
				<g>
					<path class="st2" d="M393.1,169.8l-0.1,4.1l1.1,1h0.2l-0.7-4.9c0-0.1,0-0.3,0.2-0.6l0.8-1l-1.6-1.3h-0.3l-0.6,0.7l1.3,1.1
						c0.2,0.1,0.2,0.3,0,0.5L393.1,169.8z M405.8,165.6h7l0.8-1.4v-3.5c0-0.6-0.5-1-1.1-1h-2.3l-0.7,0.8c-0.2,0.3-0.6,0.3-0.9,0
						l-1.4-1.2h-0.3l-0.6,0.7l1.7,1.4c0.2,0.2,0.2,0.4,0,0.7l-0.4,0.5l0.2,0.2l1.6-1.8c0.2-0.2,0.4-0.3,0.8-0.3h1.8
						c0.4,0,0.6,0.2,0.7,0.5l0.4,2.4c0.1,0.3,0,0.5-0.1,0.6c-0.2,0.3-0.8,0.3-1.4,0.3h-5.4l-0.4,0.8L405.8,165.6L405.8,165.6z
						 M412.2,173.5h0.2l1-0.4l-0.7-3.2c0-0.1,0-0.3,0.3-0.5l0.8-1l-1.6-1.3H412l-0.6,0.7l1.3,1.1c0.2,0.1,0.2,0.3,0,0.5l-0.3,0.3
						L412.2,173.5z M409,170.4l1.8-2l-1.5-1.3H409l-0.6,0.8l1.1,0.9c0.2,0.2,0.2,0.4,0,0.7l-0.6,0.7L409,170.4z M397.8,165.6h6.9
						l0.7-1.4v-3.8c0-0.4-0.4-0.8-0.9-0.8h-4.7c-0.2,0-0.3-0.1-0.5-0.2l-0.2-0.1h-0.3l-0.6,0.7l0.8,0.6h5c0.3,0,0.4,0.1,0.4,0.3
						l0.4,2.6c0,0.3,0,0.4-0.1,0.6c-0.2,0.3-0.7,0.3-1.3,0.3h-5.1l-0.4,0.8L397.8,165.6L397.8,165.6z M402,173.4h5.1l0.4-0.8
						c0.1-0.2,0-0.4-0.2-0.6l-1.1-0.9c-0.2-0.2-0.3-0.5-0.1-0.7l1.8-2.1l-1.5-1.3h-0.3l-0.6,0.7l1.1,1c0.2,0.2,0.2,0.4,0,0.7l-1,1.2
						l-1.3-1c-0.2-0.1-0.2-0.3-0.1-0.5l0.7-0.9l-1.6-1.3h-0.3l-0.6,0.7l1.3,1.1c0.2,0.2,0.2,0.3,0,0.5l-0.3,0.4l2.6,2.4
						c0.1,0.1,0.1,0.2-0.1,0.2h-3.6l-0.4,0.8L402,173.4L402,173.4z M396,165.8h0.2l1-0.4l-0.7-3.2c0-0.2,0.1-0.4,0.3-0.5l0.8-1
						l-1.6-1.3h-0.3l-0.6,0.7l1.3,1.1c0.2,0.2,0.2,0.3,0,0.5l-0.3,0.3L396,165.8z M394.1,166.9h0.2l-0.7-4.8c0-0.1,0-0.3,0.2-0.5
						l0.8-1l-1.6-1.3h-0.3l-0.6,0.7l1.3,1.1c0.2,0.1,0.2,0.3,0,0.5l-0.3,0.3l-0.1,4L394.1,166.9z M394.7,173.4h6.1l0.7-1.4v-3.6
						c0-0.6-0.5-1-1.1-1h-1.3l-0.7,0.8c-0.2,0.3-0.6,0.3-0.9,0l-1.4-1.2h-0.4l-0.6,0.7l1.7,1.5c0.2,0.2,0.3,0.4,0.1,0.7l-0.4,0.5
						l0.2,0.2l1.6-1.9c0.1-0.2,0.4-0.3,0.8-0.3h0.9c0.4,0,0.5,0.2,0.6,0.6l0.4,2.5c0.1,0.3,0,0.4-0.1,0.6c-0.2,0.3-0.8,0.4-1.2,0.4
						h-4.6l-0.4,0.8L394.7,173.4L394.7,173.4z M401.4,181.3h6.4l0.7-1.4v-3.6c0-0.6-0.5-1-1.1-1h-1.1l-0.7,0.8
						c-0.2,0.3-0.6,0.3-0.9,0l-1.4-1.2H403l-0.6,0.7l1.6,1.4c0.2,0.2,0.3,0.5,0.1,0.7l-0.4,0.5l0.2,0.2l1.6-1.8
						c0.1-0.2,0.4-0.3,0.9-0.3h0.7c0.4,0,0.6,0.1,0.6,0.5l0.4,2.6c0.1,0.3,0,0.5-0.1,0.6c-0.3,0.3-0.8,0.3-1.4,0.3h-4.8l-0.4,0.8
						L401.4,181.3L401.4,181.3z M399.5,181.5h0.2l1-0.4l-0.6-2.8c-0.1-0.5,0-0.8,0.5-1.2c0.2-0.2,0.5-0.4,1-0.8v-0.4
						c0-0.3-0.1-0.5-0.5-0.5h-4.3c-0.2,0-0.3-0.1-0.5-0.2l-0.2-0.1h-0.3l-0.6,0.7l0.8,0.6h4.2c0.3,0,0.4,0.1,0.4,0.3
						c0,0.1,0,0.2-0.1,0.2l-0.8,0.8L399.5,181.5z M392.2,181.6c1.8-0.4,3.4-1.1,4.4-2.5c0.2-0.4,0.3-1,0.4-1.8l-0.2-0.2
						c-0.2,0.7-0.8,1.6-1.3,1.9c-0.2,0.1-0.3,0.1-0.5-0.1l-1.1-1.2c-0.1-0.1-0.2-0.2-0.2-0.3s0.1-0.2,0.2-0.3l0.7-0.8l-1.6-1.4h-0.3
						l-0.6,0.7l1.3,1.1c0.2,0.1,0.2,0.3,0,0.5l-0.3,0.3l1.3,2c-0.4,0.3-1.2,0.5-1.8,0.6l-0.5,1.1L392.2,181.6z M409,181.4
						c2.2-0.6,3.9-1.6,4.6-2.8v-2.8c0-0.3-0.3-0.6-0.7-0.6h-2.2c-0.4,0-0.6-0.1-0.6-0.3l-0.2-0.8c0-0.1,0-0.3,0.3-0.5l0.8-1
						l-1.4-1.1h-0.3l-0.6,0.7l1.1,1c0.1,0.1,0.1,0.2,0.1,0.3s0,0.2-0.1,0.2l-0.3,0.3v2c0.2,0.2,0.3,0.3,0.7,0.3h2.2
						c0.2,0,0.3,0.1,0.3,0.3l0.3,1.6c0.1,0.3,0,0.4-0.1,0.5c-0.7,0.7-1.9,1.1-3.4,1.6l-0.5,1.1L409,181.4z"/>
				</g>
				<g>
					<path class="st2" d="M418.5,186.3h-31.2v-31.7h31.2V186.3z M387.8,185.8h30.3V155h-30.3V185.8z"/>
				</g>
			</g>
		</g>
	</g>
	<text transform="matrix(1 0 0 1 213.9722 148.1)" class="st9 st11 st12">MetaboReport</text>
</g>
</svg>
